<svg class="marks" width="324" height="308" version="1.1" xmlns="http://www.w3.org/2000/svg" xmlns:xlink="http://www.w3.org/1999/xlink"><g transform="translate(53,12)"><g class="mark-group"><g transform="translate(0,0)"><rect class="background" width="1" height="1" style="fill: none;"></rect><g class="mark-group root"><g transform="translate(0,0)"><rect class="background" width="264" height="255" style="fill: none;"></rect><g class="mark-group"><g transform="translate(0,255)"><rect class="background" width="0" height="0" style="pointer-events: none; fill: none;"></rect><g class="mark-rule" style="pointer-events: none;"></g><g class="mark-rule" style="pointer-events: none;"><line transform="translate(36.5,0)" x2="0" y2="6" style="fill: none; stroke: #000; stroke-width: 1; opacity: 1;"></line><line transform="translate(100.5,0)" x2="0" y2="6" style="fill: none; stroke: #000; stroke-width: 1; opacity: 1;"></line><line transform="translate(164.5,0)" x2="0" y2="6" style="fill: none; stroke: #000; stroke-width: 1; opacity: 1;"></line><line transform="translate(228.5,0)" x2="0" y2="6" style="fill: none; stroke: #000; stroke-width: 1; opacity: 1;"></line></g><g class="mark-rule" style="pointer-events: none;"></g><g class="mark-text"><text text-anchor="end" transform="translate(36.5,9) rotate(270) translate(0,3)" style="font: 11px sans-serif; fill: #000; opacity: 1;">0</text><text text-anchor="end" transform="translate(100.5,9) rotate(270) translate(0,3)" style="font: 11px sans-serif; fill: #000; opacity: 1;">1</text><text text-anchor="end" transform="translate(164.5,9) rotate(270) translate(0,3)" style="font: 11px sans-serif; fill: #000; opacity: 1;">2</text><text text-anchor="end" transform="translate(228.5,9) rotate(270) translate(0,3)" style="font: 11px sans-serif; fill: #000; opacity: 1;">4</text></g><g class="mark-path" style="pointer-events: none;"><path transform="translate(0.5,0.5)" d="M0,6V0H264V6" style="fill: none; stroke: #000; stroke-width: 1;"></path></g><g class="mark-text"><text text-anchor="middle" transform="translate(132,33)" style="font: bold 11px sans-serif; fill: #000;">DaysToManufacture</text></g></g></g><g class="mark-group"><g transform="translate(0,0)"><rect class="background" width="0" height="0" style="pointer-events: none; fill: none;"></rect><g class="mark-rule" style="pointer-events: none;"><line transform="translate(0,255.5)" x2="264" y2="0" style="fill: none; stroke: #000; stroke-opacity: 0.15; opacity: 1;"></line><line transform="translate(0,232.5)" x2="264" y2="0" style="fill: none; stroke: #000; stroke-opacity: 0.15; opacity: 1;"></line><line transform="translate(0,209.5)" x2="264" y2="0" style="fill: none; stroke: #000; stroke-opacity: 0.15; opacity: 1;"></line><line transform="translate(0,185.5)" x2="264" y2="0" style="fill: none; stroke: #000; stroke-opacity: 0.15; opacity: 1;"></line><line transform="translate(0,162.5)" x2="264" y2="0" style="fill: none; stroke: #000; stroke-opacity: 0.15; opacity: 1;"></line><line transform="translate(0,139.5)" x2="264" y2="0" style="fill: none; stroke: #000; stroke-opacity: 0.15; opacity: 1;"></line><line transform="translate(0,116.5)" x2="264" y2="0" style="fill: none; stroke: #000; stroke-opacity: 0.15; opacity: 1;"></line><line transform="translate(0,93.5)" x2="264" y2="0" style="fill: none; stroke: #000; stroke-opacity: 0.15; opacity: 1;"></line><line transform="translate(0,70.5)" x2="264" y2="0" style="fill: none; stroke: #000; stroke-opacity: 0.15; opacity: 1;"></line><line transform="translate(0,46.5)" x2="264" y2="0" style="fill: none; stroke: #000; stroke-opacity: 0.15; opacity: 1;"></line><line transform="translate(0,23.5)" x2="264" y2="0" style="fill: none; stroke: #000; stroke-opacity: 0.15; opacity: 1;"></line><line transform="translate(0,0.5)" x2="264" y2="0" style="fill: none; stroke: #000; stroke-opacity: 0.15; opacity: 1;"></line></g><g class="mark-rule" style="pointer-events: none;"><line transform="translate(-6,255.5)" x2="6" y2="0" style="fill: none; stroke: #000; stroke-width: 1; opacity: 1;"></line><line transform="translate(-6,232.5)" x2="6" y2="0" style="fill: none; stroke: #000; stroke-width: 1; opacity: 1;"></line><line transform="translate(-6,209.5)" x2="6" y2="0" style="fill: none; stroke: #000; stroke-width: 1; opacity: 1;"></line><line transform="translate(-6,185.5)" x2="6" y2="0" style="fill: none; stroke: #000; stroke-width: 1; opacity: 1;"></line><line transform="translate(-6,162.5)" x2="6" y2="0" style="fill: none; stroke: #000; stroke-width: 1; opacity: 1;"></line><line transform="translate(-6,139.5)" x2="6" y2="0" style="fill: none; stroke: #000; stroke-width: 1; opacity: 1;"></line><line transform="translate(-6,116.5)" x2="6" y2="0" style="fill: none; stroke: #000; stroke-width: 1; opacity: 1;"></line><line transform="translate(-6,93.5)" x2="6" y2="0" style="fill: none; stroke: #000; stroke-width: 1; opacity: 1;"></line><line transform="translate(-6,70.5)" x2="6" y2="0" style="fill: none; stroke: #000; stroke-width: 1; opacity: 1;"></line><line transform="translate(-6,46.5)" x2="6" y2="0" style="fill: none; stroke: #000; stroke-width: 1; opacity: 1;"></line><line transform="translate(-6,23.5)" x2="6" y2="0" style="fill: none; stroke: #000; stroke-width: 1; opacity: 1;"></line><line transform="translate(-6,0.5)" x2="6" y2="0" style="fill: none; stroke: #000; stroke-width: 1; opacity: 1;"></line></g><g class="mark-rule" style="pointer-events: none;"></g><g class="mark-text"><text text-anchor="end" transform="translate(-9,258.5)" style="font: 11px sans-serif; fill: #000; opacity: 1;">0.0k</text><text text-anchor="end" transform="translate(-9,235.5)" style="font: 11px sans-serif; fill: #000; opacity: 1;">0.1k</text><text text-anchor="end" transform="translate(-9,212.5)" style="font: 11px sans-serif; fill: #000; opacity: 1;">0.2k</text><text text-anchor="end" transform="translate(-9,188.5)" style="font: 11px sans-serif; fill: #000; opacity: 1;">0.3k</text><text text-anchor="end" transform="translate(-9,165.5)" style="font: 11px sans-serif; fill: #000; opacity: 1;">0.4k</text><text text-anchor="end" transform="translate(-9,142.5)" style="font: 11px sans-serif; fill: #000; opacity: 1;">0.5k</text><text text-anchor="end" transform="translate(-9,119.5)" style="font: 11px sans-serif; fill: #000; opacity: 1;">0.6k</text><text text-anchor="end" transform="translate(-9,96.5)" style="font: 11px sans-serif; fill: #000; opacity: 1;">0.7k</text><text text-anchor="end" transform="translate(-9,73.5)" style="font: 11px sans-serif; fill: #000; opacity: 1;">0.8k</text><text text-anchor="end" transform="translate(-9,49.5)" style="font: 11px sans-serif; fill: #000; opacity: 1;">0.9k</text><text text-anchor="end" transform="translate(-9,26.5)" style="font: 11px sans-serif; fill: #000; opacity: 1;">1.0k</text><text text-anchor="end" transform="translate(-9,3.5)" style="font: 11px sans-serif; fill: #000; opacity: 1;">1.1k</text></g><g class="mark-path" style="pointer-events: none;"><path transform="translate(0.5,0.5)" d="M-6,0H0V255H-6" style="fill: none; stroke: #000; stroke-width: 1;"></path></g><g class="mark-text"><text text-anchor="middle" transform="translate(-41,127) rotate(-90) translate(0,3)" style="font: bold 11px sans-serif; fill: #000;">Weight</text></g></g></g><g class="mark-rect marks"><rect transform="translate(7.5,154)" width="57.5" height="101" style="fill: #4682b4;"></rect><rect transform="translate(7.5,151)" width="57.5" height="104" style="fill: #4682b4;"></rect><rect transform="translate(7.5,162)" width="57.5" height="93" style="fill: #4682b4;"></rect><rect transform="translate(7.5,152)" width="57.5" height="103" style="fill: #4682b4;"></rect><rect transform="translate(7.5,151)" width="57.5" height="104" style="fill: #4682b4;"></rect><rect transform="translate(7.5,162)" width="57.5" height="93" style="fill: #4682b4;"></rect><rect transform="translate(7.5,148)" width="57.5" height="107" style="fill: #4682b4;"></rect><rect transform="translate(71.5,254)" width="57.5" height="1" style="fill: #4682b4;"></rect><rect transform="translate(71.5,254)" width="57.5" height="1" style="fill: #4682b4;"></rect><rect transform="translate(71.5,254)" width="57.5" height="1" style="fill: #4682b4;"></rect><rect transform="translate(71.5,255)" width="57.5" height="0" style="fill: #4682b4;"></rect><rect transform="translate(71.5,254)" width="57.5" height="1" style="fill: #4682b4;"></rect><rect transform="translate(71.5,254)" width="57.5" height="1" style="fill: #4682b4;"></rect><rect transform="translate(71.5,254)" width="57.5" height="1" style="fill: #4682b4;"></rect><rect transform="translate(71.5,254)" width="57.5" height="1" style="fill: #4682b4;"></rect><rect transform="translate(71.5,254)" width="57.5" height="1" style="fill: #4682b4;"></rect><rect transform="translate(71.5,254)" width="57.5" height="1" style="fill: #4682b4;"></rect><rect transform="translate(71.5,254)" width="57.5" height="1" style="fill: #4682b4;"></rect><rect transform="translate(71.5,254)" width="57.5" height="1" style="fill: #4682b4;"></rect><rect transform="translate(71.5,254)" width="57.5" height="1" style="fill: #4682b4;"></rect><rect transform="translate(71.5,254)" width="57.5" height="1" style="fill: #4682b4;"></rect><rect transform="translate(71.5,254)" width="57.5" height="1" style="fill: #4682b4;"></rect><rect transform="translate(71.5,254)" width="57.5" height="1" style="fill: #4682b4;"></rect><rect transform="translate(71.5,254)" width="57.5" height="1" style="fill: #4682b4;"></rect><rect transform="translate(71.5,254)" width="57.5" height="1" style="fill: #4682b4;"></rect><rect transform="translate(71.5,254)" width="57.5" height="1" style="fill: #4682b4;"></rect><rect transform="translate(71.5,254)" width="57.5" height="1" style="fill: #4682b4;"></rect><rect transform="translate(71.5,254)" width="57.5" height="1" style="fill: #4682b4;"></rect><rect transform="translate(71.5,254)" width="57.5" height="1" style="fill: #4682b4;"></rect><rect transform="translate(71.5,254)" width="57.5" height="1" style="fill: #4682b4;"></rect><rect transform="translate(71.5,254)" width="57.5" height="1" style="fill: #4682b4;"></rect><rect transform="translate(71.5,254)" width="57.5" height="1" style="fill: #4682b4;"></rect><rect transform="translate(71.5,254)" width="57.5" height="1" style="fill: #4682b4;"></rect><rect transform="translate(71.5,254)" width="57.5" height="1" style="fill: #4682b4;"></rect><rect transform="translate(71.5,254)" width="57.5" height="1" style="fill: #4682b4;"></rect><rect transform="translate(71.5,254)" width="57.5" height="1" style="fill: #4682b4;"></rect><rect transform="translate(71.5,254)" width="57.5" height="1" style="fill: #4682b4;"></rect><rect transform="translate(71.5,254)" width="57.5" height="1" style="fill: #4682b4;"></rect><rect transform="translate(71.5,254)" width="57.5" height="1" style="fill: #4682b4;"></rect><rect transform="translate(135.5,254)" width="57.5" height="1" style="fill: #4682b4;"></rect><rect transform="translate(135.5,254)" width="57.5" height="1" style="fill: #4682b4;"></rect><rect transform="translate(199.5,252)" width="57.5" height="3" style="fill: #4682b4;"></rect><rect transform="translate(199.5,252)" width="57.5" height="3" style="fill: #4682b4;"></rect><rect transform="translate(199.5,252)" width="57.5" height="3" style="fill: #4682b4;"></rect><rect transform="translate(199.5,252)" width="57.5" height="3" style="fill: #4682b4;"></rect><rect transform="translate(199.5,252)" width="57.5" height="3" style="fill: #4682b4;"></rect><rect transform="translate(199.5,251)" width="57.5" height="4" style="fill: #4682b4;"></rect><rect transform="translate(199.5,251)" width="57.5" height="4" style="fill: #4682b4;"></rect><rect transform="translate(199.5,251)" width="57.5" height="4" style="fill: #4682b4;"></rect><rect transform="translate(199.5,251)" width="57.5" height="4" style="fill: #4682b4;"></rect><rect transform="translate(199.5,251)" width="57.5" height="4" style="fill: #4682b4;"></rect><rect transform="translate(199.5,250)" width="57.5" height="5" style="fill: #4682b4;"></rect><rect transform="translate(199.5,250)" width="57.5" height="5" style="fill: #4682b4;"></rect><rect transform="translate(199.5,250)" width="57.5" height="5" style="fill: #4682b4;"></rect><rect transform="translate(199.5,251)" width="57.5" height="4" style="fill: #4682b4;"></rect><rect transform="translate(199.5,251)" width="57.5" height="4" style="fill: #4682b4;"></rect><rect transform="translate(199.5,250)" width="57.5" height="5" style="fill: #4682b4;"></rect><rect transform="translate(199.5,250)" width="57.5" height="5" style="fill: #4682b4;"></rect><rect transform="translate(199.5,250)" width="57.5" height="5" style="fill: #4682b4;"></rect><rect transform="translate(199.5,250)" width="57.5" height="5" style="fill: #4682b4;"></rect><rect transform="translate(199.5,251)" width="57.5" height="4" style="fill: #4682b4;"></rect><rect transform="translate(199.5,251)" width="57.5" height="4" style="fill: #4682b4;"></rect><rect transform="translate(199.5,250)" width="57.5" height="5" style="fill: #4682b4;"></rect><rect transform="translate(199.5,250)" width="57.5" height="5" style="fill: #4682b4;"></rect><rect transform="translate(199.5,250)" width="57.5" height="5" style="fill: #4682b4;"></rect><rect transform="translate(199.5,250)" width="57.5" height="5" style="fill: #4682b4;"></rect><rect transform="translate(199.5,250)" width="57.5" height="5" style="fill: #4682b4;"></rect><rect transform="translate(199.5,250)" width="57.5" height="5" style="fill: #4682b4;"></rect><rect transform="translate(199.5,250)" width="57.5" height="5" style="fill: #4682b4;"></rect><rect transform="translate(199.5,250)" width="57.5" height="5" style="fill: #4682b4;"></rect><rect transform="translate(199.5,250)" width="57.5" height="5" style="fill: #4682b4;"></rect><rect transform="translate(199.5,250)" width="57.5" height="5" style="fill: #4682b4;"></rect><rect transform="translate(199.5,249)" width="57.5" height="6" style="fill: #4682b4;"></rect><rect transform="translate(199.5,249)" width="57.5" height="6" style="fill: #4682b4;"></rect><rect transform="translate(199.5,250)" width="57.5" height="5" style="fill: #4682b4;"></rect><rect transform="translate(199.5,249)" width="57.5" height="6" style="fill: #4682b4;"></rect><rect transform="translate(199.5,249)" width="57.5" height="6" style="fill: #4682b4;"></rect><rect transform="translate(199.5,249)" width="57.5" height="6" style="fill: #4682b4;"></rect><rect transform="translate(199.5,249)" width="57.5" height="6" style="fill: #4682b4;"></rect><rect transform="translate(199.5,249)" width="57.5" height="6" style="fill: #4682b4;"></rect><rect transform="translate(199.5,249)" width="57.5" height="6" style="fill: #4682b4;"></rect><rect transform="translate(199.5,252)" width="57.5" height="3" style="fill: #4682b4;"></rect><rect transform="translate(199.5,251)" width="57.5" height="4" style="fill: #4682b4;"></rect><rect transform="translate(199.5,251)" width="57.5" height="4" style="fill: #4682b4;"></rect><rect transform="translate(199.5,251)" width="57.5" height="4" style="fill: #4682b4;"></rect><rect transform="translate(199.5,252)" width="57.5" height="3" style="fill: #4682b4;"></rect><rect transform="translate(199.5,251)" width="57.5" height="4" style="fill: #4682b4;"></rect><rect transform="translate(199.5,251)" width="57.5" height="4" style="fill: #4682b4;"></rect><rect transform="translate(199.5,251)" width="57.5" height="4" style="fill: #4682b4;"></rect><rect transform="translate(199.5,251)" width="57.5" height="4" style="fill: #4682b4;"></rect><rect transform="translate(199.5,251)" width="57.5" height="4" style="fill: #4682b4;"></rect><rect transform="translate(199.5,251)" width="57.5" height="4" style="fill: #4682b4;"></rect><rect transform="translate(199.5,251)" width="57.5" height="4" style="fill: #4682b4;"></rect><rect transform="translate(199.5,251)" width="57.5" height="4" style="fill: #4682b4;"></rect><rect transform="translate(135.5,254)" width="57.5" height="1" style="fill: #4682b4;"></rect><rect transform="translate(71.5,46)" width="57.5" height="209" style="fill: #4682b4;"></rect><rect transform="translate(71.5,58)" width="57.5" height="197" style="fill: #4682b4;"></rect><rect transform="translate(71.5,104)" width="57.5" height="151" style="fill: #4682b4;"></rect><rect transform="translate(135.5,254)" width="57.5" height="1" style="fill: #4682b4;"></rect><rect transform="translate(71.5,12)" width="57.5" height="243" style="fill: #4682b4;"></rect><rect transform="translate(71.5,23)" width="57.5" height="232" style="fill: #4682b4;"></rect><rect transform="translate(71.5,49)" width="57.5" height="206" style="fill: #4682b4;"></rect><rect transform="translate(71.5,254)" width="57.5" height="1" style="fill: #4682b4;"></rect><rect transform="translate(71.5,254)" width="57.5" height="1" style="fill: #4682b4;"></rect><rect transform="translate(71.5,254)" width="57.5" height="1" style="fill: #4682b4;"></rect><rect transform="translate(71.5,254)" width="57.5" height="1" style="fill: #4682b4;"></rect><rect transform="translate(71.5,254)" width="57.5" height="1" style="fill: #4682b4;"></rect><rect transform="translate(71.5,254)" width="57.5" height="1" style="fill: #4682b4;"></rect><rect transform="translate(71.5,254)" width="57.5" height="1" style="fill: #4682b4;"></rect><rect transform="translate(71.5,254)" width="57.5" height="1" style="fill: #4682b4;"></rect><rect transform="translate(71.5,255)" width="57.5" height="0" style="fill: #4682b4;"></rect><rect transform="translate(71.5,254)" width="57.5" height="1" style="fill: #4682b4;"></rect><rect transform="translate(71.5,254)" width="57.5" height="1" style="fill: #4682b4;"></rect><rect transform="translate(71.5,254)" width="57.5" height="1" style="fill: #4682b4;"></rect><rect transform="translate(71.5,254)" width="57.5" height="1" style="fill: #4682b4;"></rect><rect transform="translate(71.5,254)" width="57.5" height="1" style="fill: #4682b4;"></rect><rect transform="translate(71.5,254)" width="57.5" height="1" style="fill: #4682b4;"></rect><rect transform="translate(71.5,254)" width="57.5" height="1" style="fill: #4682b4;"></rect><rect transform="translate(71.5,254)" width="57.5" height="1" style="fill: #4682b4;"></rect><rect transform="translate(71.5,254)" width="57.5" height="1" style="fill: #4682b4;"></rect><rect transform="translate(71.5,254)" width="57.5" height="1" style="fill: #4682b4;"></rect><rect transform="translate(71.5,254)" width="57.5" height="1" style="fill: #4682b4;"></rect><rect transform="translate(71.5,205)" width="57.5" height="50" style="fill: #4682b4;"></rect><rect transform="translate(71.5,254)" width="57.5" height="1" style="fill: #4682b4;"></rect><rect transform="translate(71.5,254)" width="57.5" height="1" style="fill: #4682b4;"></rect><rect transform="translate(71.5,254)" width="57.5" height="1" style="fill: #4682b4;"></rect><rect transform="translate(71.5,254)" width="57.5" height="1" style="fill: #4682b4;"></rect><rect transform="translate(71.5,254)" width="57.5" height="1" style="fill: #4682b4;"></rect><rect transform="translate(71.5,254)" width="57.5" height="1" style="fill: #4682b4;"></rect><rect transform="translate(71.5,254)" width="57.5" height="1" style="fill: #4682b4;"></rect><rect transform="translate(71.5,254)" width="57.5" height="1" style="fill: #4682b4;"></rect><rect transform="translate(71.5,254)" width="57.5" height="1" style="fill: #4682b4;"></rect><rect transform="translate(71.5,254)" width="57.5" height="1" style="fill: #4682b4;"></rect><rect transform="translate(71.5,254)" width="57.5" height="1" style="fill: #4682b4;"></rect><rect transform="translate(71.5,254)" width="57.5" height="1" style="fill: #4682b4;"></rect><rect transform="translate(71.5,182)" width="57.5" height="73" style="fill: #4682b4;"></rect><rect transform="translate(71.5,254)" width="57.5" height="1" style="fill: #4682b4;"></rect><rect transform="translate(71.5,254)" width="57.5" height="1" style="fill: #4682b4;"></rect><rect transform="translate(71.5,254)" width="57.5" height="1" style="fill: #4682b4;"></rect><rect transform="translate(71.5,254)" width="57.5" height="1" style="fill: #4682b4;"></rect><rect transform="translate(71.5,254)" width="57.5" height="1" style="fill: #4682b4;"></rect><rect transform="translate(71.5,254)" width="57.5" height="1" style="fill: #4682b4;"></rect><rect transform="translate(71.5,254)" width="57.5" height="1" style="fill: #4682b4;"></rect><rect transform="translate(71.5,254)" width="57.5" height="1" style="fill: #4682b4;"></rect><rect transform="translate(71.5,204)" width="57.5" height="51" style="fill: #4682b4;"></rect><rect transform="translate(71.5,205)" width="57.5" height="50" style="fill: #4682b4;"></rect><rect transform="translate(71.5,212)" width="57.5" height="43" style="fill: #4682b4;"></rect><rect transform="translate(71.5,211)" width="57.5" height="44" style="fill: #4682b4;"></rect><rect transform="translate(71.5,216)" width="57.5" height="39" style="fill: #4682b4;"></rect><rect transform="translate(71.5,220)" width="57.5" height="35" style="fill: #4682b4;"></rect><rect transform="translate(135.5,254)" width="57.5" height="1" style="fill: #4682b4;"></rect><rect transform="translate(135.5,254)" width="57.5" height="1" style="fill: #4682b4;"></rect><rect transform="translate(135.5,254)" width="57.5" height="1" style="fill: #4682b4;"></rect><rect transform="translate(71.5,235)" width="57.5" height="20" style="fill: #4682b4;"></rect><rect transform="translate(71.5,182)" width="57.5" height="73" style="fill: #4682b4;"></rect><rect transform="translate(71.5,116)" width="57.5" height="139" style="fill: #4682b4;"></rect><rect transform="translate(71.5,108)" width="57.5" height="147" style="fill: #4682b4;"></rect><rect transform="translate(71.5,122)" width="57.5" height="133" style="fill: #4682b4;"></rect><rect transform="translate(199.5,249)" width="57.5" height="6" style="fill: #4682b4;"></rect><rect transform="translate(199.5,249)" width="57.5" height="6" style="fill: #4682b4;"></rect><rect transform="translate(199.5,249)" width="57.5" height="6" style="fill: #4682b4;"></rect><rect transform="translate(199.5,249)" width="57.5" height="6" style="fill: #4682b4;"></rect><rect transform="translate(199.5,249)" width="57.5" height="6" style="fill: #4682b4;"></rect><rect transform="translate(199.5,248)" width="57.5" height="7" style="fill: #4682b4;"></rect><rect transform="translate(199.5,248)" width="57.5" height="7" style="fill: #4682b4;"></rect><rect transform="translate(199.5,248)" width="57.5" height="7" style="fill: #4682b4;"></rect><rect transform="translate(199.5,248)" width="57.5" height="7" style="fill: #4682b4;"></rect><rect transform="translate(199.5,248)" width="57.5" height="7" style="fill: #4682b4;"></rect><rect transform="translate(199.5,248)" width="57.5" height="7" style="fill: #4682b4;"></rect><rect transform="translate(199.5,248)" width="57.5" height="7" style="fill: #4682b4;"></rect><rect transform="translate(199.5,248)" width="57.5" height="7" style="fill: #4682b4;"></rect><rect transform="translate(199.5,249)" width="57.5" height="6" style="fill: #4682b4;"></rect><rect transform="translate(199.5,249)" width="57.5" height="6" style="fill: #4682b4;"></rect><rect transform="translate(199.5,249)" width="57.5" height="6" style="fill: #4682b4;"></rect><rect transform="translate(199.5,249)" width="57.5" height="6" style="fill: #4682b4;"></rect><rect transform="translate(199.5,249)" width="57.5" height="6" style="fill: #4682b4;"></rect><rect transform="translate(199.5,249)" width="57.5" height="6" style="fill: #4682b4;"></rect><rect transform="translate(199.5,249)" width="57.5" height="6" style="fill: #4682b4;"></rect><rect transform="translate(199.5,251)" width="57.5" height="4" style="fill: #4682b4;"></rect><rect transform="translate(199.5,251)" width="57.5" height="4" style="fill: #4682b4;"></rect><rect transform="translate(199.5,251)" width="57.5" height="4" style="fill: #4682b4;"></rect><rect transform="translate(199.5,251)" width="57.5" height="4" style="fill: #4682b4;"></rect><rect transform="translate(199.5,250)" width="57.5" height="5" style="fill: #4682b4;"></rect><rect transform="translate(199.5,248)" width="57.5" height="7" style="fill: #4682b4;"></rect><rect transform="translate(199.5,248)" width="57.5" height="7" style="fill: #4682b4;"></rect><rect transform="translate(199.5,249)" width="57.5" height="6" style="fill: #4682b4;"></rect><rect transform="translate(199.5,249)" width="57.5" height="6" style="fill: #4682b4;"></rect><rect transform="translate(199.5,249)" width="57.5" height="6" style="fill: #4682b4;"></rect><rect transform="translate(199.5,249)" width="57.5" height="6" style="fill: #4682b4;"></rect><rect transform="translate(199.5,249)" width="57.5" height="6" style="fill: #4682b4;"></rect><rect transform="translate(199.5,249)" width="57.5" height="6" style="fill: #4682b4;"></rect><rect transform="translate(199.5,248)" width="57.5" height="7" style="fill: #4682b4;"></rect><rect transform="translate(199.5,248)" width="57.5" height="7" style="fill: #4682b4;"></rect><rect transform="translate(199.5,248)" width="57.5" height="7" style="fill: #4682b4;"></rect><rect transform="translate(199.5,249)" width="57.5" height="6" style="fill: #4682b4;"></rect><rect transform="translate(199.5,249)" width="57.5" height="6" style="fill: #4682b4;"></rect><rect transform="translate(199.5,248)" width="57.5" height="7" style="fill: #4682b4;"></rect><rect transform="translate(199.5,248)" width="57.5" height="7" style="fill: #4682b4;"></rect><rect transform="translate(199.5,248)" width="57.5" height="7" style="fill: #4682b4;"></rect><rect transform="translate(71.5,203)" width="57.5" height="52" style="fill: #4682b4;"></rect><rect transform="translate(71.5,216)" width="57.5" height="39" style="fill: #4682b4;"></rect><rect transform="translate(71.5,216)" width="57.5" height="39" style="fill: #4682b4;"></rect><rect transform="translate(199.5,250)" width="57.5" height="5" style="fill: #4682b4;"></rect><rect transform="translate(199.5,250)" width="57.5" height="5" style="fill: #4682b4;"></rect><rect transform="translate(199.5,250)" width="57.5" height="5" style="fill: #4682b4;"></rect></g></g></g></g></g></g></svg>