<svg class="marks" width="332" height="310" version="1.1" xmlns="http://www.w3.org/2000/svg" xmlns:xlink="http://www.w3.org/1999/xlink"><g transform="translate(57,12)"><g class="mark-group"><g transform="translate(0,0)"><rect class="background" width="1" height="1" style="fill: none;"></rect><g class="mark-group root"><g transform="translate(0,0)"><rect class="background" width="264" height="255" style="fill: none;"></rect><g class="mark-group"><g transform="translate(0,255)"><rect class="background" width="0" height="0" style="pointer-events: none; fill: none;"></rect><g class="mark-rule" style="pointer-events: none;"><line transform="translate(0.5,-255)" x2="0" y2="255" style="fill: none; stroke: #000; stroke-opacity: 0.15; opacity: 1;"></line><line transform="translate(66.5,-255)" x2="0" y2="255" style="fill: none; stroke: #000; stroke-opacity: 0.15; opacity: 1;"></line><line transform="translate(132.5,-255)" x2="0" y2="255" style="fill: none; stroke: #000; stroke-opacity: 0.15; opacity: 1;"></line><line transform="translate(198.5,-255)" x2="0" y2="255" style="fill: none; stroke: #000; stroke-opacity: 0.15; opacity: 1;"></line><line transform="translate(264.5,-255)" x2="0" y2="255" style="fill: none; stroke: #000; stroke-opacity: 0.15; opacity: 1;"></line></g><g class="mark-rule" style="pointer-events: none;"><line transform="translate(0.5,0)" x2="0" y2="6" style="fill: none; stroke: #000; stroke-width: 1; opacity: 1;"></line><line transform="translate(66.5,0)" x2="0" y2="6" style="fill: none; stroke: #000; stroke-width: 1; opacity: 1;"></line><line transform="translate(132.5,0)" x2="0" y2="6" style="fill: none; stroke: #000; stroke-width: 1; opacity: 1;"></line><line transform="translate(198.5,0)" x2="0" y2="6" style="fill: none; stroke: #000; stroke-width: 1; opacity: 1;"></line><line transform="translate(264.5,0)" x2="0" y2="6" style="fill: none; stroke: #000; stroke-width: 1; opacity: 1;"></line></g><g class="mark-rule" style="pointer-events: none;"></g><g class="mark-text"><text text-anchor="middle" transform="translate(0.5,19)" style="font: 11px sans-serif; fill: #000; opacity: 1;">0</text><text text-anchor="middle" transform="translate(66.5,19)" style="font: 11px sans-serif; fill: #000; opacity: 1;">1</text><text text-anchor="middle" transform="translate(132.5,19)" style="font: 11px sans-serif; fill: #000; opacity: 1;">2</text><text text-anchor="middle" transform="translate(198.5,19)" style="font: 11px sans-serif; fill: #000; opacity: 1;">3</text><text text-anchor="middle" transform="translate(264.5,19)" style="font: 11px sans-serif; fill: #000; opacity: 1;">4</text></g><g class="mark-path" style="pointer-events: none;"><path transform="translate(0.5,0.5)" d="M0,6V0H264V6" style="fill: none; stroke: #000; stroke-width: 1;"></path></g><g class="mark-text"><text text-anchor="middle" transform="translate(132,35)" style="font: bold 11px sans-serif; fill: #000;">DaysToManufacture</text></g></g></g><g class="mark-group"><g transform="translate(0,0)"><rect class="background" width="0" height="0" style="pointer-events: none; fill: none;"></rect><g class="mark-rule" style="pointer-events: none;"><line transform="translate(0,255.5)" x2="264" y2="0" style="fill: none; stroke: #000; stroke-opacity: 0.15; opacity: 1;"></line><line transform="translate(0,230.5)" x2="264" y2="0" style="fill: none; stroke: #000; stroke-opacity: 0.15; opacity: 1;"></line><line transform="translate(0,204.5)" x2="264" y2="0" style="fill: none; stroke: #000; stroke-opacity: 0.15; opacity: 1;"></line><line transform="translate(0,179.5)" x2="264" y2="0" style="fill: none; stroke: #000; stroke-opacity: 0.15; opacity: 1;"></line><line transform="translate(0,153.5)" x2="264" y2="0" style="fill: none; stroke: #000; stroke-opacity: 0.15; opacity: 1;"></line><line transform="translate(0,128.5)" x2="264" y2="0" style="fill: none; stroke: #000; stroke-opacity: 0.15; opacity: 1;"></line><line transform="translate(0,102.5)" x2="264" y2="0" style="fill: none; stroke: #000; stroke-opacity: 0.15; opacity: 1;"></line><line transform="translate(0,77.5)" x2="264" y2="0" style="fill: none; stroke: #000; stroke-opacity: 0.15; opacity: 1;"></line><line transform="translate(0,51.5)" x2="264" y2="0" style="fill: none; stroke: #000; stroke-opacity: 0.15; opacity: 1;"></line><line transform="translate(0,26.5)" x2="264" y2="0" style="fill: none; stroke: #000; stroke-opacity: 0.15; opacity: 1;"></line><line transform="translate(0,0.5)" x2="264" y2="0" style="fill: none; stroke: #000; stroke-opacity: 0.15; opacity: 1;"></line></g><g class="mark-rule" style="pointer-events: none;"><line transform="translate(-6,255.5)" x2="6" y2="0" style="fill: none; stroke: #000; stroke-width: 1; opacity: 1;"></line><line transform="translate(-6,230.5)" x2="6" y2="0" style="fill: none; stroke: #000; stroke-width: 1; opacity: 1;"></line><line transform="translate(-6,204.5)" x2="6" y2="0" style="fill: none; stroke: #000; stroke-width: 1; opacity: 1;"></line><line transform="translate(-6,179.5)" x2="6" y2="0" style="fill: none; stroke: #000; stroke-width: 1; opacity: 1;"></line><line transform="translate(-6,153.5)" x2="6" y2="0" style="fill: none; stroke: #000; stroke-width: 1; opacity: 1;"></line><line transform="translate(-6,128.5)" x2="6" y2="0" style="fill: none; stroke: #000; stroke-width: 1; opacity: 1;"></line><line transform="translate(-6,102.5)" x2="6" y2="0" style="fill: none; stroke: #000; stroke-width: 1; opacity: 1;"></line><line transform="translate(-6,77.5)" x2="6" y2="0" style="fill: none; stroke: #000; stroke-width: 1; opacity: 1;"></line><line transform="translate(-6,51.5)" x2="6" y2="0" style="fill: none; stroke: #000; stroke-width: 1; opacity: 1;"></line><line transform="translate(-6,26.5)" x2="6" y2="0" style="fill: none; stroke: #000; stroke-width: 1; opacity: 1;"></line><line transform="translate(-6,0.5)" x2="6" y2="0" style="fill: none; stroke: #000; stroke-width: 1; opacity: 1;"></line></g><g class="mark-rule" style="pointer-events: none;"></g><g class="mark-text"><text text-anchor="end" transform="translate(-9,258.5)" style="font: 11px sans-serif; fill: #000; opacity: 1;">0.0k</text><text text-anchor="end" transform="translate(-9,233.5)" style="font: 11px sans-serif; fill: #000; opacity: 1;">0.2k</text><text text-anchor="end" transform="translate(-9,207.5)" style="font: 11px sans-serif; fill: #000; opacity: 1;">0.4k</text><text text-anchor="end" transform="translate(-9,182.5)" style="font: 11px sans-serif; fill: #000; opacity: 1;">0.6k</text><text text-anchor="end" transform="translate(-9,156.5)" style="font: 11px sans-serif; fill: #000; opacity: 1;">0.8k</text><text text-anchor="end" transform="translate(-9,131.5)" style="font: 11px sans-serif; fill: #000; opacity: 1;">1.0k</text><text text-anchor="end" transform="translate(-9,105.5)" style="font: 11px sans-serif; fill: #000; opacity: 1;">1.2k</text><text text-anchor="end" transform="translate(-9,80.5)" style="font: 11px sans-serif; fill: #000; opacity: 1;">1.4k</text><text text-anchor="end" transform="translate(-9,54.5)" style="font: 11px sans-serif; fill: #000; opacity: 1;">1.6k</text><text text-anchor="end" transform="translate(-9,29.5)" style="font: 11px sans-serif; fill: #000; opacity: 1;">1.8k</text><text text-anchor="end" transform="translate(-9,3.5)" style="font: 11px sans-serif; fill: #000; opacity: 1;">2.0k</text></g><g class="mark-path" style="pointer-events: none;"><path transform="translate(0.5,0.5)" d="M-6,0H0V255H-6" style="fill: none; stroke: #000; stroke-width: 1;"></path></g><g class="mark-text"><text text-anchor="middle" transform="translate(-45,127) rotate(-90) translate(0,3)" style="font: bold 11px sans-serif; fill: #000;">ListPrice</text></g></g></g><g class="mark-symbol marks"><path transform="translate(264,69)" d="M0,3.0901936161855166A3.0901936161855166,3.0901936161855166 0 1,1 0,-3.0901936161855166A3.0901936161855166,3.0901936161855166 0 1,1 0,3.0901936161855166Z" style="fill: transparent; stroke: #4682b4; stroke-width: 2; opacity: 0.7;"></path><path transform="translate(264,69)" d="M0,3.0901936161855166A3.0901936161855166,3.0901936161855166 0 1,1 0,-3.0901936161855166A3.0901936161855166,3.0901936161855166 0 1,1 0,3.0901936161855166Z" style="fill: transparent; stroke: #4682b4; stroke-width: 2; opacity: 0.7;"></path><path transform="translate(264,69)" d="M0,3.0901936161855166A3.0901936161855166,3.0901936161855166 0 1,1 0,-3.0901936161855166A3.0901936161855166,3.0901936161855166 0 1,1 0,3.0901936161855166Z" style="fill: transparent; stroke: #4682b4; stroke-width: 2; opacity: 0.7;"></path><path transform="translate(264,69)" d="M0,3.0901936161855166A3.0901936161855166,3.0901936161855166 0 1,1 0,-3.0901936161855166A3.0901936161855166,3.0901936161855166 0 1,1 0,3.0901936161855166Z" style="fill: transparent; stroke: #4682b4; stroke-width: 2; opacity: 0.7;"></path><path transform="translate(264,69)" d="M0,3.0901936161855166A3.0901936161855166,3.0901936161855166 0 1,1 0,-3.0901936161855166A3.0901936161855166,3.0901936161855166 0 1,1 0,3.0901936161855166Z" style="fill: transparent; stroke: #4682b4; stroke-width: 2; opacity: 0.7;"></path><path transform="translate(264,155)" d="M0,3.0901936161855166A3.0901936161855166,3.0901936161855166 0 1,1 0,-3.0901936161855166A3.0901936161855166,3.0901936161855166 0 1,1 0,3.0901936161855166Z" style="fill: transparent; stroke: #4682b4; stroke-width: 2; opacity: 0.7;"></path><path transform="translate(264,155)" d="M0,3.0901936161855166A3.0901936161855166,3.0901936161855166 0 1,1 0,-3.0901936161855166A3.0901936161855166,3.0901936161855166 0 1,1 0,3.0901936161855166Z" style="fill: transparent; stroke: #4682b4; stroke-width: 2; opacity: 0.7;"></path><path transform="translate(264,155)" d="M0,3.0901936161855166A3.0901936161855166,3.0901936161855166 0 1,1 0,-3.0901936161855166A3.0901936161855166,3.0901936161855166 0 1,1 0,3.0901936161855166Z" style="fill: transparent; stroke: #4682b4; stroke-width: 2; opacity: 0.7;"></path><path transform="translate(264,155)" d="M0,3.0901936161855166A3.0901936161855166,3.0901936161855166 0 1,1 0,-3.0901936161855166A3.0901936161855166,3.0901936161855166 0 1,1 0,3.0901936161855166Z" style="fill: transparent; stroke: #4682b4; stroke-width: 2; opacity: 0.7;"></path><path transform="translate(264,155)" d="M0,3.0901936161855166A3.0901936161855166,3.0901936161855166 0 1,1 0,-3.0901936161855166A3.0901936161855166,3.0901936161855166 0 1,1 0,3.0901936161855166Z" style="fill: transparent; stroke: #4682b4; stroke-width: 2; opacity: 0.7;"></path><path transform="translate(264,155)" d="M0,3.0901936161855166A3.0901936161855166,3.0901936161855166 0 1,1 0,-3.0901936161855166A3.0901936161855166,3.0901936161855166 0 1,1 0,3.0901936161855166Z" style="fill: transparent; stroke: #4682b4; stroke-width: 2; opacity: 0.7;"></path><path transform="translate(264,155)" d="M0,3.0901936161855166A3.0901936161855166,3.0901936161855166 0 1,1 0,-3.0901936161855166A3.0901936161855166,3.0901936161855166 0 1,1 0,3.0901936161855166Z" style="fill: transparent; stroke: #4682b4; stroke-width: 2; opacity: 0.7;"></path><path transform="translate(264,155)" d="M0,3.0901936161855166A3.0901936161855166,3.0901936161855166 0 1,1 0,-3.0901936161855166A3.0901936161855166,3.0901936161855166 0 1,1 0,3.0901936161855166Z" style="fill: transparent; stroke: #4682b4; stroke-width: 2; opacity: 0.7;"></path><path transform="translate(264,155)" d="M0,3.0901936161855166A3.0901936161855166,3.0901936161855166 0 1,1 0,-3.0901936161855166A3.0901936161855166,3.0901936161855166 0 1,1 0,3.0901936161855166Z" style="fill: transparent; stroke: #4682b4; stroke-width: 2; opacity: 0.7;"></path><path transform="translate(264,155)" d="M0,3.0901936161855166A3.0901936161855166,3.0901936161855166 0 1,1 0,-3.0901936161855166A3.0901936161855166,3.0901936161855166 0 1,1 0,3.0901936161855166Z" style="fill: transparent; stroke: #4682b4; stroke-width: 2; opacity: 0.7;"></path><path transform="translate(264,155)" d="M0,3.0901936161855166A3.0901936161855166,3.0901936161855166 0 1,1 0,-3.0901936161855166A3.0901936161855166,3.0901936161855166 0 1,1 0,3.0901936161855166Z" style="fill: transparent; stroke: #4682b4; stroke-width: 2; opacity: 0.7;"></path><path transform="translate(264,155)" d="M0,3.0901936161855166A3.0901936161855166,3.0901936161855166 0 1,1 0,-3.0901936161855166A3.0901936161855166,3.0901936161855166 0 1,1 0,3.0901936161855166Z" style="fill: transparent; stroke: #4682b4; stroke-width: 2; opacity: 0.7;"></path><path transform="translate(264,117)" d="M0,3.0901936161855166A3.0901936161855166,3.0901936161855166 0 1,1 0,-3.0901936161855166A3.0901936161855166,3.0901936161855166 0 1,1 0,3.0901936161855166Z" style="fill: transparent; stroke: #4682b4; stroke-width: 2; opacity: 0.7;"></path><path transform="translate(264,117)" d="M0,3.0901936161855166A3.0901936161855166,3.0901936161855166 0 1,1 0,-3.0901936161855166A3.0901936161855166,3.0901936161855166 0 1,1 0,3.0901936161855166Z" style="fill: transparent; stroke: #4682b4; stroke-width: 2; opacity: 0.7;"></path><path transform="translate(264,117)" d="M0,3.0901936161855166A3.0901936161855166,3.0901936161855166 0 1,1 0,-3.0901936161855166A3.0901936161855166,3.0901936161855166 0 1,1 0,3.0901936161855166Z" style="fill: transparent; stroke: #4682b4; stroke-width: 2; opacity: 0.7;"></path><path transform="translate(264,117)" d="M0,3.0901936161855166A3.0901936161855166,3.0901936161855166 0 1,1 0,-3.0901936161855166A3.0901936161855166,3.0901936161855166 0 1,1 0,3.0901936161855166Z" style="fill: transparent; stroke: #4682b4; stroke-width: 2; opacity: 0.7;"></path><path transform="translate(264,112)" d="M0,3.0901936161855166A3.0901936161855166,3.0901936161855166 0 1,1 0,-3.0901936161855166A3.0901936161855166,3.0901936161855166 0 1,1 0,3.0901936161855166Z" style="fill: transparent; stroke: #4682b4; stroke-width: 2; opacity: 0.7;"></path><path transform="translate(264,112)" d="M0,3.0901936161855166A3.0901936161855166,3.0901936161855166 0 1,1 0,-3.0901936161855166A3.0901936161855166,3.0901936161855166 0 1,1 0,3.0901936161855166Z" style="fill: transparent; stroke: #4682b4; stroke-width: 2; opacity: 0.7;"></path><path transform="translate(264,112)" d="M0,3.0901936161855166A3.0901936161855166,3.0901936161855166 0 1,1 0,-3.0901936161855166A3.0901936161855166,3.0901936161855166 0 1,1 0,3.0901936161855166Z" style="fill: transparent; stroke: #4682b4; stroke-width: 2; opacity: 0.7;"></path><path transform="translate(264,112)" d="M0,3.0901936161855166A3.0901936161855166,3.0901936161855166 0 1,1 0,-3.0901936161855166A3.0901936161855166,3.0901936161855166 0 1,1 0,3.0901936161855166Z" style="fill: transparent; stroke: #4682b4; stroke-width: 2; opacity: 0.7;"></path><path transform="translate(264,112)" d="M0,3.0901936161855166A3.0901936161855166,3.0901936161855166 0 1,1 0,-3.0901936161855166A3.0901936161855166,3.0901936161855166 0 1,1 0,3.0901936161855166Z" style="fill: transparent; stroke: #4682b4; stroke-width: 2; opacity: 0.7;"></path><path transform="translate(264,100)" d="M0,3.0901936161855166A3.0901936161855166,3.0901936161855166 0 1,1 0,-3.0901936161855166A3.0901936161855166,3.0901936161855166 0 1,1 0,3.0901936161855166Z" style="fill: transparent; stroke: #4682b4; stroke-width: 2; opacity: 0.7;"></path><path transform="translate(264,160)" d="M0,3.0901936161855166A3.0901936161855166,3.0901936161855166 0 1,1 0,-3.0901936161855166A3.0901936161855166,3.0901936161855166 0 1,1 0,3.0901936161855166Z" style="fill: transparent; stroke: #4682b4; stroke-width: 2; opacity: 0.7;"></path><path transform="translate(264,160)" d="M0,3.0901936161855166A3.0901936161855166,3.0901936161855166 0 1,1 0,-3.0901936161855166A3.0901936161855166,3.0901936161855166 0 1,1 0,3.0901936161855166Z" style="fill: transparent; stroke: #4682b4; stroke-width: 2; opacity: 0.7;"></path><path transform="translate(264,160)" d="M0,3.0901936161855166A3.0901936161855166,3.0901936161855166 0 1,1 0,-3.0901936161855166A3.0901936161855166,3.0901936161855166 0 1,1 0,3.0901936161855166Z" style="fill: transparent; stroke: #4682b4; stroke-width: 2; opacity: 0.7;"></path><path transform="translate(264,160)" d="M0,3.0901936161855166A3.0901936161855166,3.0901936161855166 0 1,1 0,-3.0901936161855166A3.0901936161855166,3.0901936161855166 0 1,1 0,3.0901936161855166Z" style="fill: transparent; stroke: #4682b4; stroke-width: 2; opacity: 0.7;"></path><path transform="translate(264,160)" d="M0,3.0901936161855166A3.0901936161855166,3.0901936161855166 0 1,1 0,-3.0901936161855166A3.0901936161855166,3.0901936161855166 0 1,1 0,3.0901936161855166Z" style="fill: transparent; stroke: #4682b4; stroke-width: 2; opacity: 0.7;"></path><path transform="translate(264,160)" d="M0,3.0901936161855166A3.0901936161855166,3.0901936161855166 0 1,1 0,-3.0901936161855166A3.0901936161855166,3.0901936161855166 0 1,1 0,3.0901936161855166Z" style="fill: transparent; stroke: #4682b4; stroke-width: 2; opacity: 0.7;"></path><path transform="translate(264,160)" d="M0,3.0901936161855166A3.0901936161855166,3.0901936161855166 0 1,1 0,-3.0901936161855166A3.0901936161855166,3.0901936161855166 0 1,1 0,3.0901936161855166Z" style="fill: transparent; stroke: #4682b4; stroke-width: 2; opacity: 0.7;"></path><path transform="translate(264,160)" d="M0,3.0901936161855166A3.0901936161855166,3.0901936161855166 0 1,1 0,-3.0901936161855166A3.0901936161855166,3.0901936161855166 0 1,1 0,3.0901936161855166Z" style="fill: transparent; stroke: #4682b4; stroke-width: 2; opacity: 0.7;"></path><path transform="translate(264,100)" d="M0,3.0901936161855166A3.0901936161855166,3.0901936161855166 0 1,1 0,-3.0901936161855166A3.0901936161855166,3.0901936161855166 0 1,1 0,3.0901936161855166Z" style="fill: transparent; stroke: #4682b4; stroke-width: 2; opacity: 0.7;"></path><path transform="translate(264,100)" d="M0,3.0901936161855166A3.0901936161855166,3.0901936161855166 0 1,1 0,-3.0901936161855166A3.0901936161855166,3.0901936161855166 0 1,1 0,3.0901936161855166Z" style="fill: transparent; stroke: #4682b4; stroke-width: 2; opacity: 0.7;"></path><path transform="translate(264,100)" d="M0,3.0901936161855166A3.0901936161855166,3.0901936161855166 0 1,1 0,-3.0901936161855166A3.0901936161855166,3.0901936161855166 0 1,1 0,3.0901936161855166Z" style="fill: transparent; stroke: #4682b4; stroke-width: 2; opacity: 0.7;"></path><path transform="translate(264,38)" d="M0,3.0901936161855166A3.0901936161855166,3.0901936161855166 0 1,1 0,-3.0901936161855166A3.0901936161855166,3.0901936161855166 0 1,1 0,3.0901936161855166Z" style="fill: transparent; stroke: #4682b4; stroke-width: 2; opacity: 0.7;"></path><path transform="translate(264,38)" d="M0,3.0901936161855166A3.0901936161855166,3.0901936161855166 0 1,1 0,-3.0901936161855166A3.0901936161855166,3.0901936161855166 0 1,1 0,3.0901936161855166Z" style="fill: transparent; stroke: #4682b4; stroke-width: 2; opacity: 0.7;"></path><path transform="translate(264,38)" d="M0,3.0901936161855166A3.0901936161855166,3.0901936161855166 0 1,1 0,-3.0901936161855166A3.0901936161855166,3.0901936161855166 0 1,1 0,3.0901936161855166Z" style="fill: transparent; stroke: #4682b4; stroke-width: 2; opacity: 0.7;"></path><path transform="translate(264,38)" d="M0,3.0901936161855166A3.0901936161855166,3.0901936161855166 0 1,1 0,-3.0901936161855166A3.0901936161855166,3.0901936161855166 0 1,1 0,3.0901936161855166Z" style="fill: transparent; stroke: #4682b4; stroke-width: 2; opacity: 0.7;"></path><path transform="translate(264,186)" d="M0,3.0901936161855166A3.0901936161855166,3.0901936161855166 0 1,1 0,-3.0901936161855166A3.0901936161855166,3.0901936161855166 0 1,1 0,3.0901936161855166Z" style="fill: transparent; stroke: #4682b4; stroke-width: 2; opacity: 0.7;"></path><path transform="translate(264,160)" d="M0,3.0901936161855166A3.0901936161855166,3.0901936161855166 0 1,1 0,-3.0901936161855166A3.0901936161855166,3.0901936161855166 0 1,1 0,3.0901936161855166Z" style="fill: transparent; stroke: #4682b4; stroke-width: 2; opacity: 0.7;"></path><path transform="translate(264,160)" d="M0,3.0901936161855166A3.0901936161855166,3.0901936161855166 0 1,1 0,-3.0901936161855166A3.0901936161855166,3.0901936161855166 0 1,1 0,3.0901936161855166Z" style="fill: transparent; stroke: #4682b4; stroke-width: 2; opacity: 0.7;"></path><path transform="translate(264,157)" d="M0,3.0901936161855166A3.0901936161855166,3.0901936161855166 0 1,1 0,-3.0901936161855166A3.0901936161855166,3.0901936161855166 0 1,1 0,3.0901936161855166Z" style="fill: transparent; stroke: #4682b4; stroke-width: 2; opacity: 0.7;"></path><path transform="translate(264,157)" d="M0,3.0901936161855166A3.0901936161855166,3.0901936161855166 0 1,1 0,-3.0901936161855166A3.0901936161855166,3.0901936161855166 0 1,1 0,3.0901936161855166Z" style="fill: transparent; stroke: #4682b4; stroke-width: 2; opacity: 0.7;"></path><path transform="translate(264,157)" d="M0,3.0901936161855166A3.0901936161855166,3.0901936161855166 0 1,1 0,-3.0901936161855166A3.0901936161855166,3.0901936161855166 0 1,1 0,3.0901936161855166Z" style="fill: transparent; stroke: #4682b4; stroke-width: 2; opacity: 0.7;"></path><path transform="translate(264,157)" d="M0,3.0901936161855166A3.0901936161855166,3.0901936161855166 0 1,1 0,-3.0901936161855166A3.0901936161855166,3.0901936161855166 0 1,1 0,3.0901936161855166Z" style="fill: transparent; stroke: #4682b4; stroke-width: 2; opacity: 0.7;"></path><path transform="translate(264,183)" d="M0,3.0901936161855166A3.0901936161855166,3.0901936161855166 0 1,1 0,-3.0901936161855166A3.0901936161855166,3.0901936161855166 0 1,1 0,3.0901936161855166Z" style="fill: transparent; stroke: #4682b4; stroke-width: 2; opacity: 0.7;"></path><path transform="translate(264,183)" d="M0,3.0901936161855166A3.0901936161855166,3.0901936161855166 0 1,1 0,-3.0901936161855166A3.0901936161855166,3.0901936161855166 0 1,1 0,3.0901936161855166Z" style="fill: transparent; stroke: #4682b4; stroke-width: 2; opacity: 0.7;"></path><path transform="translate(264,183)" d="M0,3.0901936161855166A3.0901936161855166,3.0901936161855166 0 1,1 0,-3.0901936161855166A3.0901936161855166,3.0901936161855166 0 1,1 0,3.0901936161855166Z" style="fill: transparent; stroke: #4682b4; stroke-width: 2; opacity: 0.7;"></path><path transform="translate(264,183)" d="M0,3.0901936161855166A3.0901936161855166,3.0901936161855166 0 1,1 0,-3.0901936161855166A3.0901936161855166,3.0901936161855166 0 1,1 0,3.0901936161855166Z" style="fill: transparent; stroke: #4682b4; stroke-width: 2; opacity: 0.7;"></path><path transform="translate(264,183)" d="M0,3.0901936161855166A3.0901936161855166,3.0901936161855166 0 1,1 0,-3.0901936161855166A3.0901936161855166,3.0901936161855166 0 1,1 0,3.0901936161855166Z" style="fill: transparent; stroke: #4682b4; stroke-width: 2; opacity: 0.7;"></path><path transform="translate(264,186)" d="M0,3.0901936161855166A3.0901936161855166,3.0901936161855166 0 1,1 0,-3.0901936161855166A3.0901936161855166,3.0901936161855166 0 1,1 0,3.0901936161855166Z" style="fill: transparent; stroke: #4682b4; stroke-width: 2; opacity: 0.7;"></path><path transform="translate(264,186)" d="M0,3.0901936161855166A3.0901936161855166,3.0901936161855166 0 1,1 0,-3.0901936161855166A3.0901936161855166,3.0901936161855166 0 1,1 0,3.0901936161855166Z" style="fill: transparent; stroke: #4682b4; stroke-width: 2; opacity: 0.7;"></path><path transform="translate(264,186)" d="M0,3.0901936161855166A3.0901936161855166,3.0901936161855166 0 1,1 0,-3.0901936161855166A3.0901936161855166,3.0901936161855166 0 1,1 0,3.0901936161855166Z" style="fill: transparent; stroke: #4682b4; stroke-width: 2; opacity: 0.7;"></path><path transform="translate(264,186)" d="M0,3.0901936161855166A3.0901936161855166,3.0901936161855166 0 1,1 0,-3.0901936161855166A3.0901936161855166,3.0901936161855166 0 1,1 0,3.0901936161855166Z" style="fill: transparent; stroke: #4682b4; stroke-width: 2; opacity: 0.7;"></path><path transform="translate(264,186)" d="M0,3.0901936161855166A3.0901936161855166,3.0901936161855166 0 1,1 0,-3.0901936161855166A3.0901936161855166,3.0901936161855166 0 1,1 0,3.0901936161855166Z" style="fill: transparent; stroke: #4682b4; stroke-width: 2; opacity: 0.7;"></path><path transform="translate(264,186)" d="M0,3.0901936161855166A3.0901936161855166,3.0901936161855166 0 1,1 0,-3.0901936161855166A3.0901936161855166,3.0901936161855166 0 1,1 0,3.0901936161855166Z" style="fill: transparent; stroke: #4682b4; stroke-width: 2; opacity: 0.7;"></path><path transform="translate(264,186)" d="M0,3.0901936161855166A3.0901936161855166,3.0901936161855166 0 1,1 0,-3.0901936161855166A3.0901936161855166,3.0901936161855166 0 1,1 0,3.0901936161855166Z" style="fill: transparent; stroke: #4682b4; stroke-width: 2; opacity: 0.7;"></path><path transform="translate(264,186)" d="M0,3.0901936161855166A3.0901936161855166,3.0901936161855166 0 1,1 0,-3.0901936161855166A3.0901936161855166,3.0901936161855166 0 1,1 0,3.0901936161855166Z" style="fill: transparent; stroke: #4682b4; stroke-width: 2; opacity: 0.7;"></path></g></g></g></g></g></g></svg>