<svg class="marks" width="396" height="310" version="1.1" xmlns="http://www.w3.org/2000/svg" xmlns:xlink="http://www.w3.org/1999/xlink"><g transform="translate(57,12)"><g class="mark-group"><g transform="translate(0,0)"><rect class="background" width="1" height="1" style="fill: none;"></rect><g class="mark-group root"><g transform="translate(0,0)"><rect class="background" width="264" height="255" style="fill: none;"></rect><g class="mark-group"><g transform="translate(0,255)"><rect class="background" width="0" height="0" style="pointer-events: none; fill: none;"></rect><g class="mark-rule" style="pointer-events: none;"><line transform="translate(0.5,-255)" x2="0" y2="255" style="fill: none; stroke: #000; stroke-opacity: 0.15; opacity: 1;"></line><line transform="translate(66.5,-255)" x2="0" y2="255" style="fill: none; stroke: #000; stroke-opacity: 0.15; opacity: 1;"></line><line transform="translate(132.5,-255)" x2="0" y2="255" style="fill: none; stroke: #000; stroke-opacity: 0.15; opacity: 1;"></line><line transform="translate(198.5,-255)" x2="0" y2="255" style="fill: none; stroke: #000; stroke-opacity: 0.15; opacity: 1;"></line><line transform="translate(264.5,-255)" x2="0" y2="255" style="fill: none; stroke: #000; stroke-opacity: 0.15; opacity: 1;"></line></g><g class="mark-rule" style="pointer-events: none;"><line transform="translate(0.5,0)" x2="0" y2="6" style="fill: none; stroke: #000; stroke-width: 1; opacity: 1;"></line><line transform="translate(66.5,0)" x2="0" y2="6" style="fill: none; stroke: #000; stroke-width: 1; opacity: 1;"></line><line transform="translate(132.5,0)" x2="0" y2="6" style="fill: none; stroke: #000; stroke-width: 1; opacity: 1;"></line><line transform="translate(198.5,0)" x2="0" y2="6" style="fill: none; stroke: #000; stroke-width: 1; opacity: 1;"></line><line transform="translate(264.5,0)" x2="0" y2="6" style="fill: none; stroke: #000; stroke-width: 1; opacity: 1;"></line></g><g class="mark-rule" style="pointer-events: none;"></g><g class="mark-text"><text text-anchor="middle" transform="translate(0.5,19)" style="font: 11px sans-serif; fill: #000; opacity: 1;">0</text><text text-anchor="middle" transform="translate(66.5,19)" style="font: 11px sans-serif; fill: #000; opacity: 1;">1</text><text text-anchor="middle" transform="translate(132.5,19)" style="font: 11px sans-serif; fill: #000; opacity: 1;">2</text><text text-anchor="middle" transform="translate(198.5,19)" style="font: 11px sans-serif; fill: #000; opacity: 1;">3</text><text text-anchor="middle" transform="translate(264.5,19)" style="font: 11px sans-serif; fill: #000; opacity: 1;">4</text></g><g class="mark-path" style="pointer-events: none;"><path transform="translate(0.5,0.5)" d="M0,6V0H264V6" style="fill: none; stroke: #000; stroke-width: 1;"></path></g><g class="mark-text"><text text-anchor="middle" transform="translate(132,35)" style="font: bold 11px sans-serif; fill: #000;">DaysToManufacture</text></g></g></g><g class="mark-group"><g transform="translate(0,0)"><rect class="background" width="0" height="0" style="pointer-events: none; fill: none;"></rect><g class="mark-rule" style="pointer-events: none;"><line transform="translate(0,255.5)" x2="264" y2="0" style="fill: none; stroke: #000; stroke-opacity: 0.15; opacity: 1;"></line><line transform="translate(0,219.5)" x2="264" y2="0" style="fill: none; stroke: #000; stroke-opacity: 0.15; opacity: 1;"></line><line transform="translate(0,182.5)" x2="264" y2="0" style="fill: none; stroke: #000; stroke-opacity: 0.15; opacity: 1;"></line><line transform="translate(0,146.5)" x2="264" y2="0" style="fill: none; stroke: #000; stroke-opacity: 0.15; opacity: 1;"></line><line transform="translate(0,109.5)" x2="264" y2="0" style="fill: none; stroke: #000; stroke-opacity: 0.15; opacity: 1;"></line><line transform="translate(0,73.5)" x2="264" y2="0" style="fill: none; stroke: #000; stroke-opacity: 0.15; opacity: 1;"></line><line transform="translate(0,36.5)" x2="264" y2="0" style="fill: none; stroke: #000; stroke-opacity: 0.15; opacity: 1;"></line><line transform="translate(0,0.5)" x2="264" y2="0" style="fill: none; stroke: #000; stroke-opacity: 0.15; opacity: 1;"></line></g><g class="mark-rule" style="pointer-events: none;"><line transform="translate(-6,255.5)" x2="6" y2="0" style="fill: none; stroke: #000; stroke-width: 1; opacity: 1;"></line><line transform="translate(-6,219.5)" x2="6" y2="0" style="fill: none; stroke: #000; stroke-width: 1; opacity: 1;"></line><line transform="translate(-6,182.5)" x2="6" y2="0" style="fill: none; stroke: #000; stroke-width: 1; opacity: 1;"></line><line transform="translate(-6,146.5)" x2="6" y2="0" style="fill: none; stroke: #000; stroke-width: 1; opacity: 1;"></line><line transform="translate(-6,109.5)" x2="6" y2="0" style="fill: none; stroke: #000; stroke-width: 1; opacity: 1;"></line><line transform="translate(-6,73.5)" x2="6" y2="0" style="fill: none; stroke: #000; stroke-width: 1; opacity: 1;"></line><line transform="translate(-6,36.5)" x2="6" y2="0" style="fill: none; stroke: #000; stroke-width: 1; opacity: 1;"></line><line transform="translate(-6,0.5)" x2="6" y2="0" style="fill: none; stroke: #000; stroke-width: 1; opacity: 1;"></line></g><g class="mark-rule" style="pointer-events: none;"></g><g class="mark-text"><text text-anchor="end" transform="translate(-9,258.5)" style="font: 11px sans-serif; fill: #000; opacity: 1;">0.0k</text><text text-anchor="end" transform="translate(-9,222.5)" style="font: 11px sans-serif; fill: #000; opacity: 1;">0.5k</text><text text-anchor="end" transform="translate(-9,185.5)" style="font: 11px sans-serif; fill: #000; opacity: 1;">1.0k</text><text text-anchor="end" transform="translate(-9,149.5)" style="font: 11px sans-serif; fill: #000; opacity: 1;">1.5k</text><text text-anchor="end" transform="translate(-9,112.5)" style="font: 11px sans-serif; fill: #000; opacity: 1;">2.0k</text><text text-anchor="end" transform="translate(-9,76.5)" style="font: 11px sans-serif; fill: #000; opacity: 1;">2.5k</text><text text-anchor="end" transform="translate(-9,39.5)" style="font: 11px sans-serif; fill: #000; opacity: 1;">3.0k</text><text text-anchor="end" transform="translate(-9,3.5)" style="font: 11px sans-serif; fill: #000; opacity: 1;">3.5k</text></g><g class="mark-path" style="pointer-events: none;"><path transform="translate(0.5,0.5)" d="M-6,0H0V255H-6" style="fill: none; stroke: #000; stroke-width: 1;"></path></g><g class="mark-text"><text text-anchor="middle" transform="translate(-45,127) rotate(-90) translate(0,3)" style="font: bold 11px sans-serif; fill: #000;">ListPrice</text></g></g></g><g class="mark-symbol marks"><path transform="translate(0,255)" d="M0,3.0901936161855166A3.0901936161855166,3.0901936161855166 0 1,1 0,-3.0901936161855166A3.0901936161855166,3.0901936161855166 0 1,1 0,3.0901936161855166Z" style="fill: transparent; stroke: #1f77b4; stroke-width: 2; opacity: 0.7;"></path><path transform="translate(0,255)" d="M0,3.0901936161855166A3.0901936161855166,3.0901936161855166 0 1,1 0,-3.0901936161855166A3.0901936161855166,3.0901936161855166 0 1,1 0,3.0901936161855166Z" style="fill: transparent; stroke: #1f77b4; stroke-width: 2; opacity: 0.7;"></path><path transform="translate(0,255)" d="M0,3.0901936161855166A3.0901936161855166,3.0901936161855166 0 1,1 0,-3.0901936161855166A3.0901936161855166,3.0901936161855166 0 1,1 0,3.0901936161855166Z" style="fill: transparent; stroke: #1f77b4; stroke-width: 2; opacity: 0.7;"></path><path transform="translate(0,255)" d="M0,3.0901936161855166A3.0901936161855166,3.0901936161855166 0 1,1 0,-3.0901936161855166A3.0901936161855166,3.0901936161855166 0 1,1 0,3.0901936161855166Z" style="fill: transparent; stroke: #1f77b4; stroke-width: 2; opacity: 0.7;"></path><path transform="translate(66,151)" d="M0,3.0901936161855166A3.0901936161855166,3.0901936161855166 0 1,1 0,-3.0901936161855166A3.0901936161855166,3.0901936161855166 0 1,1 0,3.0901936161855166Z" style="fill: transparent; stroke: #1f77b4; stroke-width: 2; opacity: 0.7;"></path><path transform="translate(0,252)" d="M0,3.0901936161855166A3.0901936161855166,3.0901936161855166 0 1,1 0,-3.0901936161855166A3.0901936161855166,3.0901936161855166 0 1,1 0,3.0901936161855166Z" style="fill: transparent; stroke: #1f77b4; stroke-width: 2; opacity: 0.7;"></path><path transform="translate(66,230)" d="M0,3.0901936161855166A3.0901936161855166,3.0901936161855166 0 1,1 0,-3.0901936161855166A3.0901936161855166,3.0901936161855166 0 1,1 0,3.0901936161855166Z" style="fill: transparent; stroke: #1f77b4; stroke-width: 2; opacity: 0.7;"></path><path transform="translate(66,230)" d="M0,3.0901936161855166A3.0901936161855166,3.0901936161855166 0 1,1 0,-3.0901936161855166A3.0901936161855166,3.0901936161855166 0 1,1 0,3.0901936161855166Z" style="fill: transparent; stroke: #1f77b4; stroke-width: 2; opacity: 0.7;"></path><path transform="translate(66,230)" d="M0,3.0901936161855166A3.0901936161855166,3.0901936161855166 0 1,1 0,-3.0901936161855166A3.0901936161855166,3.0901936161855166 0 1,1 0,3.0901936161855166Z" style="fill: transparent; stroke: #1f77b4; stroke-width: 2; opacity: 0.7;"></path><path transform="translate(66,230)" d="M0,3.0901936161855166A3.0901936161855166,3.0901936161855166 0 1,1 0,-3.0901936161855166A3.0901936161855166,3.0901936161855166 0 1,1 0,3.0901936161855166Z" style="fill: transparent; stroke: #1f77b4; stroke-width: 2; opacity: 0.7;"></path><path transform="translate(66,230)" d="M0,3.0901936161855166A3.0901936161855166,3.0901936161855166 0 1,1 0,-3.0901936161855166A3.0901936161855166,3.0901936161855166 0 1,1 0,3.0901936161855166Z" style="fill: transparent; stroke: #1f77b4; stroke-width: 2; opacity: 0.7;"></path><path transform="translate(66,230)" d="M0,3.0901936161855166A3.0901936161855166,3.0901936161855166 0 1,1 0,-3.0901936161855166A3.0901936161855166,3.0901936161855166 0 1,1 0,3.0901936161855166Z" style="fill: transparent; stroke: #1f77b4; stroke-width: 2; opacity: 0.7;"></path><path transform="translate(66,157)" d="M0,3.0901936161855166A3.0901936161855166,3.0901936161855166 0 1,1 0,-3.0901936161855166A3.0901936161855166,3.0901936161855166 0 1,1 0,3.0901936161855166Z" style="fill: transparent; stroke: #1f77b4; stroke-width: 2; opacity: 0.7;"></path><path transform="translate(66,157)" d="M0,3.0901936161855166A3.0901936161855166,3.0901936161855166 0 1,1 0,-3.0901936161855166A3.0901936161855166,3.0901936161855166 0 1,1 0,3.0901936161855166Z" style="fill: transparent; stroke: #1f77b4; stroke-width: 2; opacity: 0.7;"></path><path transform="translate(66,157)" d="M0,3.0901936161855166A3.0901936161855166,3.0901936161855166 0 1,1 0,-3.0901936161855166A3.0901936161855166,3.0901936161855166 0 1,1 0,3.0901936161855166Z" style="fill: transparent; stroke: #1f77b4; stroke-width: 2; opacity: 0.7;"></path><path transform="translate(66,157)" d="M0,3.0901936161855166A3.0901936161855166,3.0901936161855166 0 1,1 0,-3.0901936161855166A3.0901936161855166,3.0901936161855166 0 1,1 0,3.0901936161855166Z" style="fill: transparent; stroke: #1f77b4; stroke-width: 2; opacity: 0.7;"></path><path transform="translate(132,157)" d="M0,3.0901936161855166A3.0901936161855166,3.0901936161855166 0 1,1 0,-3.0901936161855166A3.0901936161855166,3.0901936161855166 0 1,1 0,3.0901936161855166Z" style="fill: transparent; stroke: #1f77b4; stroke-width: 2; opacity: 0.7;"></path><path transform="translate(264,198)" d="M0,3.0901936161855166A3.0901936161855166,3.0901936161855166 0 1,1 0,-3.0901936161855166A3.0901936161855166,3.0901936161855166 0 1,1 0,3.0901936161855166Z" style="fill: transparent; stroke: #1f77b4; stroke-width: 2; opacity: 0.7;"></path><path transform="translate(264,198)" d="M0,3.0901936161855166A3.0901936161855166,3.0901936161855166 0 1,1 0,-3.0901936161855166A3.0901936161855166,3.0901936161855166 0 1,1 0,3.0901936161855166Z" style="fill: transparent; stroke: #1f77b4; stroke-width: 2; opacity: 0.7;"></path><path transform="translate(264,198)" d="M0,3.0901936161855166A3.0901936161855166,3.0901936161855166 0 1,1 0,-3.0901936161855166A3.0901936161855166,3.0901936161855166 0 1,1 0,3.0901936161855166Z" style="fill: transparent; stroke: #1f77b4; stroke-width: 2; opacity: 0.7;"></path><path transform="translate(264,198)" d="M0,3.0901936161855166A3.0901936161855166,3.0901936161855166 0 1,1 0,-3.0901936161855166A3.0901936161855166,3.0901936161855166 0 1,1 0,3.0901936161855166Z" style="fill: transparent; stroke: #1f77b4; stroke-width: 2; opacity: 0.7;"></path><path transform="translate(264,198)" d="M0,3.0901936161855166A3.0901936161855166,3.0901936161855166 0 1,1 0,-3.0901936161855166A3.0901936161855166,3.0901936161855166 0 1,1 0,3.0901936161855166Z" style="fill: transparent; stroke: #1f77b4; stroke-width: 2; opacity: 0.7;"></path><path transform="translate(264,198)" d="M0,3.0901936161855166A3.0901936161855166,3.0901936161855166 0 1,1 0,-3.0901936161855166A3.0901936161855166,3.0901936161855166 0 1,1 0,3.0901936161855166Z" style="fill: transparent; stroke: #1f77b4; stroke-width: 2; opacity: 0.7;"></path><path transform="translate(264,9)" d="M0,3.0901936161855166A3.0901936161855166,3.0901936161855166 0 1,1 0,-3.0901936161855166A3.0901936161855166,3.0901936161855166 0 1,1 0,3.0901936161855166Z" style="fill: transparent; stroke: #1f77b4; stroke-width: 2; opacity: 0.7;"></path><path transform="translate(264,9)" d="M0,3.0901936161855166A3.0901936161855166,3.0901936161855166 0 1,1 0,-3.0901936161855166A3.0901936161855166,3.0901936161855166 0 1,1 0,3.0901936161855166Z" style="fill: transparent; stroke: #1f77b4; stroke-width: 2; opacity: 0.7;"></path><path transform="translate(264,9)" d="M0,3.0901936161855166A3.0901936161855166,3.0901936161855166 0 1,1 0,-3.0901936161855166A3.0901936161855166,3.0901936161855166 0 1,1 0,3.0901936161855166Z" style="fill: transparent; stroke: #1f77b4; stroke-width: 2; opacity: 0.7;"></path><path transform="translate(264,9)" d="M0,3.0901936161855166A3.0901936161855166,3.0901936161855166 0 1,1 0,-3.0901936161855166A3.0901936161855166,3.0901936161855166 0 1,1 0,3.0901936161855166Z" style="fill: transparent; stroke: #1f77b4; stroke-width: 2; opacity: 0.7;"></path><path transform="translate(264,88)" d="M0,3.0901936161855166A3.0901936161855166,3.0901936161855166 0 1,1 0,-3.0901936161855166A3.0901936161855166,3.0901936161855166 0 1,1 0,3.0901936161855166Z" style="fill: transparent; stroke: #1f77b4; stroke-width: 2; opacity: 0.7;"></path><path transform="translate(264,88)" d="M0,3.0901936161855166A3.0901936161855166,3.0901936161855166 0 1,1 0,-3.0901936161855166A3.0901936161855166,3.0901936161855166 0 1,1 0,3.0901936161855166Z" style="fill: transparent; stroke: #1f77b4; stroke-width: 2; opacity: 0.7;"></path><path transform="translate(264,88)" d="M0,3.0901936161855166A3.0901936161855166,3.0901936161855166 0 1,1 0,-3.0901936161855166A3.0901936161855166,3.0901936161855166 0 1,1 0,3.0901936161855166Z" style="fill: transparent; stroke: #1f77b4; stroke-width: 2; opacity: 0.7;"></path><path transform="translate(264,176)" d="M0,3.0901936161855166A3.0901936161855166,3.0901936161855166 0 1,1 0,-3.0901936161855166A3.0901936161855166,3.0901936161855166 0 1,1 0,3.0901936161855166Z" style="fill: transparent; stroke: #1f77b4; stroke-width: 2; opacity: 0.7;"></path><path transform="translate(264,176)" d="M0,3.0901936161855166A3.0901936161855166,3.0901936161855166 0 1,1 0,-3.0901936161855166A3.0901936161855166,3.0901936161855166 0 1,1 0,3.0901936161855166Z" style="fill: transparent; stroke: #1f77b4; stroke-width: 2; opacity: 0.7;"></path><path transform="translate(264,176)" d="M0,3.0901936161855166A3.0901936161855166,3.0901936161855166 0 1,1 0,-3.0901936161855166A3.0901936161855166,3.0901936161855166 0 1,1 0,3.0901936161855166Z" style="fill: transparent; stroke: #1f77b4; stroke-width: 2; opacity: 0.7;"></path><path transform="translate(264,176)" d="M0,3.0901936161855166A3.0901936161855166,3.0901936161855166 0 1,1 0,-3.0901936161855166A3.0901936161855166,3.0901936161855166 0 1,1 0,3.0901936161855166Z" style="fill: transparent; stroke: #1f77b4; stroke-width: 2; opacity: 0.7;"></path><path transform="translate(264,77)" d="M0,3.0901936161855166A3.0901936161855166,3.0901936161855166 0 1,1 0,-3.0901936161855166A3.0901936161855166,3.0901936161855166 0 1,1 0,3.0901936161855166Z" style="fill: transparent; stroke: #1f77b4; stroke-width: 2; opacity: 0.7;"></path><path transform="translate(264,77)" d="M0,3.0901936161855166A3.0901936161855166,3.0901936161855166 0 1,1 0,-3.0901936161855166A3.0901936161855166,3.0901936161855166 0 1,1 0,3.0901936161855166Z" style="fill: transparent; stroke: #1f77b4; stroke-width: 2; opacity: 0.7;"></path><path transform="translate(264,77)" d="M0,3.0901936161855166A3.0901936161855166,3.0901936161855166 0 1,1 0,-3.0901936161855166A3.0901936161855166,3.0901936161855166 0 1,1 0,3.0901936161855166Z" style="fill: transparent; stroke: #1f77b4; stroke-width: 2; opacity: 0.7;"></path><path transform="translate(264,77)" d="M0,3.0901936161855166A3.0901936161855166,3.0901936161855166 0 1,1 0,-3.0901936161855166A3.0901936161855166,3.0901936161855166 0 1,1 0,3.0901936161855166Z" style="fill: transparent; stroke: #1f77b4; stroke-width: 2; opacity: 0.7;"></path><path transform="translate(132,230)" d="M0,3.0901936161855166A3.0901936161855166,3.0901936161855166 0 1,1 0,-3.0901936161855166A3.0901936161855166,3.0901936161855166 0 1,1 0,3.0901936161855166Z" style="fill: transparent; stroke: #1f77b4; stroke-width: 2; opacity: 0.7;"></path><path transform="translate(66,251)" d="M0,3.0901936161855166A3.0901936161855166,3.0901936161855166 0 1,1 0,-3.0901936161855166A3.0901936161855166,3.0901936161855166 0 1,1 0,3.0901936161855166Z" style="fill: transparent; stroke: #1f77b4; stroke-width: 2; opacity: 0.7;"></path><path transform="translate(66,240)" d="M0,3.0901936161855166A3.0901936161855166,3.0901936161855166 0 1,1 0,-3.0901936161855166A3.0901936161855166,3.0901936161855166 0 1,1 0,3.0901936161855166Z" style="fill: transparent; stroke: #1f77b4; stroke-width: 2; opacity: 0.7;"></path><path transform="translate(66,233)" d="M0,3.0901936161855166A3.0901936161855166,3.0901936161855166 0 1,1 0,-3.0901936161855166A3.0901936161855166,3.0901936161855166 0 1,1 0,3.0901936161855166Z" style="fill: transparent; stroke: #1f77b4; stroke-width: 2; opacity: 0.7;"></path><path transform="translate(66,249)" d="M0,3.0901936161855166A3.0901936161855166,3.0901936161855166 0 1,1 0,-3.0901936161855166A3.0901936161855166,3.0901936161855166 0 1,1 0,3.0901936161855166Z" style="fill: transparent; stroke: #1f77b4; stroke-width: 2; opacity: 0.7;"></path><path transform="translate(66,237)" d="M0,3.0901936161855166A3.0901936161855166,3.0901936161855166 0 1,1 0,-3.0901936161855166A3.0901936161855166,3.0901936161855166 0 1,1 0,3.0901936161855166Z" style="fill: transparent; stroke: #1f77b4; stroke-width: 2; opacity: 0.7;"></path><path transform="translate(66,231)" d="M0,3.0901936161855166A3.0901936161855166,3.0901936161855166 0 1,1 0,-3.0901936161855166A3.0901936161855166,3.0901936161855166 0 1,1 0,3.0901936161855166Z" style="fill: transparent; stroke: #1f77b4; stroke-width: 2; opacity: 0.7;"></path><path transform="translate(66,239)" d="M0,3.0901936161855166A3.0901936161855166,3.0901936161855166 0 1,1 0,-3.0901936161855166A3.0901936161855166,3.0901936161855166 0 1,1 0,3.0901936161855166Z" style="fill: transparent; stroke: #1f77b4; stroke-width: 2; opacity: 0.7;"></path><path transform="translate(66,249)" d="M0,3.0901936161855166A3.0901936161855166,3.0901936161855166 0 1,1 0,-3.0901936161855166A3.0901936161855166,3.0901936161855166 0 1,1 0,3.0901936161855166Z" style="fill: transparent; stroke: #1f77b4; stroke-width: 2; opacity: 0.7;"></path><path transform="translate(66,238)" d="M0,3.0901936161855166A3.0901936161855166,3.0901936161855166 0 1,1 0,-3.0901936161855166A3.0901936161855166,3.0901936161855166 0 1,1 0,3.0901936161855166Z" style="fill: transparent; stroke: #1f77b4; stroke-width: 2; opacity: 0.7;"></path><path transform="translate(66,231)" d="M0,3.0901936161855166A3.0901936161855166,3.0901936161855166 0 1,1 0,-3.0901936161855166A3.0901936161855166,3.0901936161855166 0 1,1 0,3.0901936161855166Z" style="fill: transparent; stroke: #1f77b4; stroke-width: 2; opacity: 0.7;"></path><path transform="translate(66,247)" d="M0,3.0901936161855166A3.0901936161855166,3.0901936161855166 0 1,1 0,-3.0901936161855166A3.0901936161855166,3.0901936161855166 0 1,1 0,3.0901936161855166Z" style="fill: transparent; stroke: #1f77b4; stroke-width: 2; opacity: 0.7;"></path><path transform="translate(66,235)" d="M0,3.0901936161855166A3.0901936161855166,3.0901936161855166 0 1,1 0,-3.0901936161855166A3.0901936161855166,3.0901936161855166 0 1,1 0,3.0901936161855166Z" style="fill: transparent; stroke: #1f77b4; stroke-width: 2; opacity: 0.7;"></path><path transform="translate(66,229)" d="M0,3.0901936161855166A3.0901936161855166,3.0901936161855166 0 1,1 0,-3.0901936161855166A3.0901936161855166,3.0901936161855166 0 1,1 0,3.0901936161855166Z" style="fill: transparent; stroke: #1f77b4; stroke-width: 2; opacity: 0.7;"></path><path transform="translate(66,237)" d="M0,3.0901936161855166A3.0901936161855166,3.0901936161855166 0 1,1 0,-3.0901936161855166A3.0901936161855166,3.0901936161855166 0 1,1 0,3.0901936161855166Z" style="fill: transparent; stroke: #1f77b4; stroke-width: 2; opacity: 0.7;"></path><path transform="translate(66,230)" d="M0,3.0901936161855166A3.0901936161855166,3.0901936161855166 0 1,1 0,-3.0901936161855166A3.0901936161855166,3.0901936161855166 0 1,1 0,3.0901936161855166Z" style="fill: transparent; stroke: #1f77b4; stroke-width: 2; opacity: 0.7;"></path><path transform="translate(66,230)" d="M0,3.0901936161855166A3.0901936161855166,3.0901936161855166 0 1,1 0,-3.0901936161855166A3.0901936161855166,3.0901936161855166 0 1,1 0,3.0901936161855166Z" style="fill: transparent; stroke: #1f77b4; stroke-width: 2; opacity: 0.7;"></path><path transform="translate(66,230)" d="M0,3.0901936161855166A3.0901936161855166,3.0901936161855166 0 1,1 0,-3.0901936161855166A3.0901936161855166,3.0901936161855166 0 1,1 0,3.0901936161855166Z" style="fill: transparent; stroke: #1f77b4; stroke-width: 2; opacity: 0.7;"></path><path transform="translate(66,151)" d="M0,3.0901936161855166A3.0901936161855166,3.0901936161855166 0 1,1 0,-3.0901936161855166A3.0901936161855166,3.0901936161855166 0 1,1 0,3.0901936161855166Z" style="fill: transparent; stroke: #1f77b4; stroke-width: 2; opacity: 0.7;"></path><path transform="translate(66,151)" d="M0,3.0901936161855166A3.0901936161855166,3.0901936161855166 0 1,1 0,-3.0901936161855166A3.0901936161855166,3.0901936161855166 0 1,1 0,3.0901936161855166Z" style="fill: transparent; stroke: #1f77b4; stroke-width: 2; opacity: 0.7;"></path><path transform="translate(66,151)" d="M0,3.0901936161855166A3.0901936161855166,3.0901936161855166 0 1,1 0,-3.0901936161855166A3.0901936161855166,3.0901936161855166 0 1,1 0,3.0901936161855166Z" style="fill: transparent; stroke: #1f77b4; stroke-width: 2; opacity: 0.7;"></path><path transform="translate(66,151)" d="M0,3.0901936161855166A3.0901936161855166,3.0901936161855166 0 1,1 0,-3.0901936161855166A3.0901936161855166,3.0901936161855166 0 1,1 0,3.0901936161855166Z" style="fill: transparent; stroke: #1f77b4; stroke-width: 2; opacity: 0.7;"></path><path transform="translate(0,251)" d="M0,3.0901936161855166A3.0901936161855166,3.0901936161855166 0 1,1 0,-3.0901936161855166A3.0901936161855166,3.0901936161855166 0 1,1 0,3.0901936161855166Z" style="fill: transparent; stroke: #1f77b4; stroke-width: 2; opacity: 0.7;"></path><path transform="translate(0,251)" d="M0,3.0901936161855166A3.0901936161855166,3.0901936161855166 0 1,1 0,-3.0901936161855166A3.0901936161855166,3.0901936161855166 0 1,1 0,3.0901936161855166Z" style="fill: transparent; stroke: #1f77b4; stroke-width: 2; opacity: 0.7;"></path><path transform="translate(0,251)" d="M0,3.0901936161855166A3.0901936161855166,3.0901936161855166 0 1,1 0,-3.0901936161855166A3.0901936161855166,3.0901936161855166 0 1,1 0,3.0901936161855166Z" style="fill: transparent; stroke: #1f77b4; stroke-width: 2; opacity: 0.7;"></path><path transform="translate(0,251)" d="M0,3.0901936161855166A3.0901936161855166,3.0901936161855166 0 1,1 0,-3.0901936161855166A3.0901936161855166,3.0901936161855166 0 1,1 0,3.0901936161855166Z" style="fill: transparent; stroke: #1f77b4; stroke-width: 2; opacity: 0.7;"></path><path transform="translate(0,250)" d="M0,3.0901936161855166A3.0901936161855166,3.0901936161855166 0 1,1 0,-3.0901936161855166A3.0901936161855166,3.0901936161855166 0 1,1 0,3.0901936161855166Z" style="fill: transparent; stroke: #1f77b4; stroke-width: 2; opacity: 0.7;"></path><path transform="translate(0,250)" d="M0,3.0901936161855166A3.0901936161855166,3.0901936161855166 0 1,1 0,-3.0901936161855166A3.0901936161855166,3.0901936161855166 0 1,1 0,3.0901936161855166Z" style="fill: transparent; stroke: #1f77b4; stroke-width: 2; opacity: 0.7;"></path><path transform="translate(0,250)" d="M0,3.0901936161855166A3.0901936161855166,3.0901936161855166 0 1,1 0,-3.0901936161855166A3.0901936161855166,3.0901936161855166 0 1,1 0,3.0901936161855166Z" style="fill: transparent; stroke: #1f77b4; stroke-width: 2; opacity: 0.7;"></path><path transform="translate(0,253)" d="M0,3.0901936161855166A3.0901936161855166,3.0901936161855166 0 1,1 0,-3.0901936161855166A3.0901936161855166,3.0901936161855166 0 1,1 0,3.0901936161855166Z" style="fill: transparent; stroke: #1f77b4; stroke-width: 2; opacity: 0.7;"></path><path transform="translate(0,253)" d="M0,3.0901936161855166A3.0901936161855166,3.0901936161855166 0 1,1 0,-3.0901936161855166A3.0901936161855166,3.0901936161855166 0 1,1 0,3.0901936161855166Z" style="fill: transparent; stroke: #1f77b4; stroke-width: 2; opacity: 0.7;"></path><path transform="translate(0,253)" d="M0,3.0901936161855166A3.0901936161855166,3.0901936161855166 0 1,1 0,-3.0901936161855166A3.0901936161855166,3.0901936161855166 0 1,1 0,3.0901936161855166Z" style="fill: transparent; stroke: #1f77b4; stroke-width: 2; opacity: 0.7;"></path><path transform="translate(0,252)" d="M0,3.0901936161855166A3.0901936161855166,3.0901936161855166 0 1,1 0,-3.0901936161855166A3.0901936161855166,3.0901936161855166 0 1,1 0,3.0901936161855166Z" style="fill: transparent; stroke: #1f77b4; stroke-width: 2; opacity: 0.7;"></path><path transform="translate(0,252)" d="M0,3.0901936161855166A3.0901936161855166,3.0901936161855166 0 1,1 0,-3.0901936161855166A3.0901936161855166,3.0901936161855166 0 1,1 0,3.0901936161855166Z" style="fill: transparent; stroke: #1f77b4; stroke-width: 2; opacity: 0.7;"></path><path transform="translate(0,252)" d="M0,3.0901936161855166A3.0901936161855166,3.0901936161855166 0 1,1 0,-3.0901936161855166A3.0901936161855166,3.0901936161855166 0 1,1 0,3.0901936161855166Z" style="fill: transparent; stroke: #1f77b4; stroke-width: 2; opacity: 0.7;"></path><path transform="translate(0,250)" d="M0,3.0901936161855166A3.0901936161855166,3.0901936161855166 0 1,1 0,-3.0901936161855166A3.0901936161855166,3.0901936161855166 0 1,1 0,3.0901936161855166Z" style="fill: transparent; stroke: #1f77b4; stroke-width: 2; opacity: 0.7;"></path><path transform="translate(0,250)" d="M0,3.0901936161855166A3.0901936161855166,3.0901936161855166 0 1,1 0,-3.0901936161855166A3.0901936161855166,3.0901936161855166 0 1,1 0,3.0901936161855166Z" style="fill: transparent; stroke: #1f77b4; stroke-width: 2; opacity: 0.7;"></path><path transform="translate(0,250)" d="M0,3.0901936161855166A3.0901936161855166,3.0901936161855166 0 1,1 0,-3.0901936161855166A3.0901936161855166,3.0901936161855166 0 1,1 0,3.0901936161855166Z" style="fill: transparent; stroke: #1f77b4; stroke-width: 2; opacity: 0.7;"></path><path transform="translate(66,237)" d="M0,3.0901936161855166A3.0901936161855166,3.0901936161855166 0 1,1 0,-3.0901936161855166A3.0901936161855166,3.0901936161855166 0 1,1 0,3.0901936161855166Z" style="fill: transparent; stroke: #1f77b4; stroke-width: 2; opacity: 0.7;"></path><path transform="translate(66,237)" d="M0,3.0901936161855166A3.0901936161855166,3.0901936161855166 0 1,1 0,-3.0901936161855166A3.0901936161855166,3.0901936161855166 0 1,1 0,3.0901936161855166Z" style="fill: transparent; stroke: #1f77b4; stroke-width: 2; opacity: 0.7;"></path><path transform="translate(66,237)" d="M0,3.0901936161855166A3.0901936161855166,3.0901936161855166 0 1,1 0,-3.0901936161855166A3.0901936161855166,3.0901936161855166 0 1,1 0,3.0901936161855166Z" style="fill: transparent; stroke: #1f77b4; stroke-width: 2; opacity: 0.7;"></path><path transform="translate(66,237)" d="M0,3.0901936161855166A3.0901936161855166,3.0901936161855166 0 1,1 0,-3.0901936161855166A3.0901936161855166,3.0901936161855166 0 1,1 0,3.0901936161855166Z" style="fill: transparent; stroke: #1f77b4; stroke-width: 2; opacity: 0.7;"></path><path transform="translate(132,237)" d="M0,3.0901936161855166A3.0901936161855166,3.0901936161855166 0 1,1 0,-3.0901936161855166A3.0901936161855166,3.0901936161855166 0 1,1 0,3.0901936161855166Z" style="fill: transparent; stroke: #1f77b4; stroke-width: 2; opacity: 0.7;"></path><path transform="translate(66,242)" d="M0,3.0901936161855166A3.0901936161855166,3.0901936161855166 0 1,1 0,-3.0901936161855166A3.0901936161855166,3.0901936161855166 0 1,1 0,3.0901936161855166Z" style="fill: transparent; stroke: #1f77b4; stroke-width: 2; opacity: 0.7;"></path><path transform="translate(66,236)" d="M0,3.0901936161855166A3.0901936161855166,3.0901936161855166 0 1,1 0,-3.0901936161855166A3.0901936161855166,3.0901936161855166 0 1,1 0,3.0901936161855166Z" style="fill: transparent; stroke: #1f77b4; stroke-width: 2; opacity: 0.7;"></path><path transform="translate(66,225)" d="M0,3.0901936161855166A3.0901936161855166,3.0901936161855166 0 1,1 0,-3.0901936161855166A3.0901936161855166,3.0901936161855166 0 1,1 0,3.0901936161855166Z" style="fill: transparent; stroke: #1f77b4; stroke-width: 2; opacity: 0.7;"></path><path transform="translate(264,216)" d="M0,3.0901936161855166A3.0901936161855166,3.0901936161855166 0 1,1 0,-3.0901936161855166A3.0901936161855166,3.0901936161855166 0 1,1 0,3.0901936161855166Z" style="fill: transparent; stroke: #1f77b4; stroke-width: 2; opacity: 0.7;"></path><path transform="translate(264,216)" d="M0,3.0901936161855166A3.0901936161855166,3.0901936161855166 0 1,1 0,-3.0901936161855166A3.0901936161855166,3.0901936161855166 0 1,1 0,3.0901936161855166Z" style="fill: transparent; stroke: #1f77b4; stroke-width: 2; opacity: 0.7;"></path><path transform="translate(264,216)" d="M0,3.0901936161855166A3.0901936161855166,3.0901936161855166 0 1,1 0,-3.0901936161855166A3.0901936161855166,3.0901936161855166 0 1,1 0,3.0901936161855166Z" style="fill: transparent; stroke: #1f77b4; stroke-width: 2; opacity: 0.7;"></path><path transform="translate(264,216)" d="M0,3.0901936161855166A3.0901936161855166,3.0901936161855166 0 1,1 0,-3.0901936161855166A3.0901936161855166,3.0901936161855166 0 1,1 0,3.0901936161855166Z" style="fill: transparent; stroke: #1f77b4; stroke-width: 2; opacity: 0.7;"></path><path transform="translate(264,216)" d="M0,3.0901936161855166A3.0901936161855166,3.0901936161855166 0 1,1 0,-3.0901936161855166A3.0901936161855166,3.0901936161855166 0 1,1 0,3.0901936161855166Z" style="fill: transparent; stroke: #1f77b4; stroke-width: 2; opacity: 0.7;"></path><path transform="translate(264,216)" d="M0,3.0901936161855166A3.0901936161855166,3.0901936161855166 0 1,1 0,-3.0901936161855166A3.0901936161855166,3.0901936161855166 0 1,1 0,3.0901936161855166Z" style="fill: transparent; stroke: #1f77b4; stroke-width: 2; opacity: 0.7;"></path><path transform="translate(264,216)" d="M0,3.0901936161855166A3.0901936161855166,3.0901936161855166 0 1,1 0,-3.0901936161855166A3.0901936161855166,3.0901936161855166 0 1,1 0,3.0901936161855166Z" style="fill: transparent; stroke: #1f77b4; stroke-width: 2; opacity: 0.7;"></path><path transform="translate(264,216)" d="M0,3.0901936161855166A3.0901936161855166,3.0901936161855166 0 1,1 0,-3.0901936161855166A3.0901936161855166,3.0901936161855166 0 1,1 0,3.0901936161855166Z" style="fill: transparent; stroke: #1f77b4; stroke-width: 2; opacity: 0.7;"></path><path transform="translate(264,216)" d="M0,3.0901936161855166A3.0901936161855166,3.0901936161855166 0 1,1 0,-3.0901936161855166A3.0901936161855166,3.0901936161855166 0 1,1 0,3.0901936161855166Z" style="fill: transparent; stroke: #1f77b4; stroke-width: 2; opacity: 0.7;"></path></g><g class="mark-group"><g transform="translate(284.5,0.5)"><rect class="background" width="49" height="32" style="pointer-events: none; fill: none;"></rect><g class="mark-text" style="pointer-events: none;"><text text-anchor="start" transform="translate(3,13)" style="font: bold 11px sans-serif; fill: #000; opacity: 1;">Color</text></g><g class="mark-symbol" style="pointer-events: none;"><path transform="translate(7.5,23)" d="M0,3.989422804014327A3.989422804014327,3.989422804014327 0 1,1 0,-3.989422804014327A3.989422804014327,3.989422804014327 0 1,1 0,3.989422804014327Z" style="fill: none; stroke: #1f77b4; stroke-width: 2; opacity: 0.7;"></path></g><g class="mark-text" style="pointer-events: none;"><text text-anchor="start" transform="translate(16,26)" style="font: 10px sans-serif; fill: #000; opacity: 1;">Black</text></g></g></g></g></g></g></g></g></svg>