<svg class="marks" width="267" height="255" version="1.1" xmlns="http://www.w3.org/2000/svg" xmlns:xlink="http://www.w3.org/1999/xlink"><g transform="translate(57,12)"><g class="mark-group"><g transform="translate(0,0)"><rect class="background" width="1" height="1" style="fill: none;"></rect><g class="mark-group root"><g transform="translate(0,0)"><rect class="background" width="200" height="200" style="fill: none;"></rect><g class="mark-group"><g transform="translate(0,200)"><rect class="background" width="0" height="0" style="pointer-events: none; fill: none;"></rect><g class="mark-rule" style="pointer-events: none;"><line transform="translate(0.5,-200)" x2="0" y2="200" style="fill: none; stroke: #000; stroke-opacity: 0.15; opacity: 1;"></line><line transform="translate(50.5,-200)" x2="0" y2="200" style="fill: none; stroke: #000; stroke-opacity: 0.15; opacity: 1;"></line><line transform="translate(100.5,-200)" x2="0" y2="200" style="fill: none; stroke: #000; stroke-opacity: 0.15; opacity: 1;"></line><line transform="translate(150.5,-200)" x2="0" y2="200" style="fill: none; stroke: #000; stroke-opacity: 0.15; opacity: 1;"></line><line transform="translate(200.5,-200)" x2="0" y2="200" style="fill: none; stroke: #000; stroke-opacity: 0.15; opacity: 1;"></line></g><g class="mark-rule" style="pointer-events: none;"><line transform="translate(0.5,0)" x2="0" y2="6" style="fill: none; stroke: #000; stroke-width: 1; opacity: 1;"></line><line transform="translate(50.5,0)" x2="0" y2="6" style="fill: none; stroke: #000; stroke-width: 1; opacity: 1;"></line><line transform="translate(100.5,0)" x2="0" y2="6" style="fill: none; stroke: #000; stroke-width: 1; opacity: 1;"></line><line transform="translate(150.5,0)" x2="0" y2="6" style="fill: none; stroke: #000; stroke-width: 1; opacity: 1;"></line><line transform="translate(200.5,0)" x2="0" y2="6" style="fill: none; stroke: #000; stroke-width: 1; opacity: 1;"></line></g><g class="mark-rule" style="pointer-events: none;"></g><g class="mark-text"><text text-anchor="middle" transform="translate(0.5,19)" style="font: 11px sans-serif; fill: #000; opacity: 1;">0</text><text text-anchor="middle" transform="translate(50.5,19)" style="font: 11px sans-serif; fill: #000; opacity: 1;">1</text><text text-anchor="middle" transform="translate(100.5,19)" style="font: 11px sans-serif; fill: #000; opacity: 1;">2</text><text text-anchor="middle" transform="translate(150.5,19)" style="font: 11px sans-serif; fill: #000; opacity: 1;">3</text><text text-anchor="middle" transform="translate(200.5,19)" style="font: 11px sans-serif; fill: #000; opacity: 1;">4</text></g><g class="mark-path" style="pointer-events: none;"><path transform="translate(0.5,0.5)" d="M0,6V0H200V6" style="fill: none; stroke: #000; stroke-width: 1;"></path></g><g class="mark-text"><text text-anchor="middle" transform="translate(100,35)" style="font: bold 11px sans-serif; fill: #000;">DaysToManufacture</text></g></g></g><g class="mark-group"><g transform="translate(0,0)"><rect class="background" width="0" height="0" style="pointer-events: none; fill: none;"></rect><g class="mark-rule" style="pointer-events: none;"><line transform="translate(0,200.5)" x2="200" y2="0" style="fill: none; stroke: #000; stroke-opacity: 0.15; opacity: 1;"></line><line transform="translate(0,175.5)" x2="200" y2="0" style="fill: none; stroke: #000; stroke-opacity: 0.15; opacity: 1;"></line><line transform="translate(0,150.5)" x2="200" y2="0" style="fill: none; stroke: #000; stroke-opacity: 0.15; opacity: 1;"></line><line transform="translate(0,125.5)" x2="200" y2="0" style="fill: none; stroke: #000; stroke-opacity: 0.15; opacity: 1;"></line><line transform="translate(0,100.5)" x2="200" y2="0" style="fill: none; stroke: #000; stroke-opacity: 0.15; opacity: 1;"></line><line transform="translate(0,75.5)" x2="200" y2="0" style="fill: none; stroke: #000; stroke-opacity: 0.15; opacity: 1;"></line><line transform="translate(0,50.5)" x2="200" y2="0" style="fill: none; stroke: #000; stroke-opacity: 0.15; opacity: 1;"></line><line transform="translate(0,25.5)" x2="200" y2="0" style="fill: none; stroke: #000; stroke-opacity: 0.15; opacity: 1;"></line><line transform="translate(0,0.5)" x2="200" y2="0" style="fill: none; stroke: #000; stroke-opacity: 0.15; opacity: 1;"></line></g><g class="mark-rule" style="pointer-events: none;"><line transform="translate(-6,200.5)" x2="6" y2="0" style="fill: none; stroke: #000; stroke-width: 1; opacity: 1;"></line><line transform="translate(-6,175.5)" x2="6" y2="0" style="fill: none; stroke: #000; stroke-width: 1; opacity: 1;"></line><line transform="translate(-6,150.5)" x2="6" y2="0" style="fill: none; stroke: #000; stroke-width: 1; opacity: 1;"></line><line transform="translate(-6,125.5)" x2="6" y2="0" style="fill: none; stroke: #000; stroke-width: 1; opacity: 1;"></line><line transform="translate(-6,100.5)" x2="6" y2="0" style="fill: none; stroke: #000; stroke-width: 1; opacity: 1;"></line><line transform="translate(-6,75.5)" x2="6" y2="0" style="fill: none; stroke: #000; stroke-width: 1; opacity: 1;"></line><line transform="translate(-6,50.5)" x2="6" y2="0" style="fill: none; stroke: #000; stroke-width: 1; opacity: 1;"></line><line transform="translate(-6,25.5)" x2="6" y2="0" style="fill: none; stroke: #000; stroke-width: 1; opacity: 1;"></line><line transform="translate(-6,0.5)" x2="6" y2="0" style="fill: none; stroke: #000; stroke-width: 1; opacity: 1;"></line></g><g class="mark-rule" style="pointer-events: none;"></g><g class="mark-text"><text text-anchor="end" transform="translate(-9,203.5)" style="font: 11px sans-serif; fill: #000; opacity: 1;">0.0k</text><text text-anchor="end" transform="translate(-9,178.5)" style="font: 11px sans-serif; fill: #000; opacity: 1;">0.5k</text><text text-anchor="end" transform="translate(-9,153.5)" style="font: 11px sans-serif; fill: #000; opacity: 1;">1.0k</text><text text-anchor="end" transform="translate(-9,128.5)" style="font: 11px sans-serif; fill: #000; opacity: 1;">1.5k</text><text text-anchor="end" transform="translate(-9,103.5)" style="font: 11px sans-serif; fill: #000; opacity: 1;">2.0k</text><text text-anchor="end" transform="translate(-9,78.5)" style="font: 11px sans-serif; fill: #000; opacity: 1;">2.5k</text><text text-anchor="end" transform="translate(-9,53.5)" style="font: 11px sans-serif; fill: #000; opacity: 1;">3.0k</text><text text-anchor="end" transform="translate(-9,28.5)" style="font: 11px sans-serif; fill: #000; opacity: 1;">3.5k</text><text text-anchor="end" transform="translate(-9,3.5)" style="font: 11px sans-serif; fill: #000; opacity: 1;">4.0k</text></g><g class="mark-path" style="pointer-events: none;"><path transform="translate(0.5,0.5)" d="M-6,0H0V200H-6" style="fill: none; stroke: #000; stroke-width: 1;"></path></g><g class="mark-text"><text text-anchor="middle" transform="translate(-45,100) rotate(-90) translate(0,3)" style="font: bold 11px sans-serif; fill: #000;">ListPrice</text></g></g></g><g class="mark-line marks"><path d="M200,78L200,144L200,173L200,173L200,173L200,173L200,173L200,172L200,172L200,172L200,172L200,172L200,162L200,162L200,162L200,162L200,163L200,163L200,173L200,115L200,115L200,115L200,115L200,139L200,139L200,139L200,81L200,81L200,81L200,81L200,163L200,163L200,163L200,163L200,163L200,163L200,163L200,163L200,81L200,81L200,81L200,81L200,139L200,144L200,144L200,144L200,144L200,173L200,78L200,78L200,78L200,78L200,173L200,78L200,78L200,78L200,146L200,146L200,146L200,146L200,85L200,85L200,85L200,84L200,84L200,84L200,31L200,31L200,31L200,31L200,30L200,30L200,30L200,30L200,161L200,161L200,161L200,161L200,161L200,161L200,161L200,161L200,161L200,161L200,161L200,161L200,127L200,127L200,127L200,127L200,127L200,21L200,21L200,21L200,21L200,21L200,173L100,183L100,132L100,187L100,188L100,182L100,170L100,133L50,183L50,200L50,193L50,190L50,193L50,193L50,190L50,193L50,193L50,190L50,200L50,200L50,200L50,200L50,200L50,128L50,128L50,128L50,128L50,128L50,128L50,128L50,183L50,183L50,183L50,183L50,183L50,183L50,183L50,183L50,183L50,170L50,170L50,170L50,170L50,170L50,183L50,183L50,183L50,132L50,132L50,132L50,132L50,133L50,133L50,133L50,133L50,200L50,200L50,200L50,200L50,193L50,191L50,189L50,198L50,195L50,194L50,198L50,197L50,194L50,198L50,197L50,194L50,197L50,190L50,185L50,196L50,188L50,183L50,189L50,196L50,188L50,184L50,194L50,186L50,182L50,188L50,193L50,183L50,183L50,170L50,170L50,170L50,170L50,128L50,128L50,128L50,128L50,150L50,183L50,150L50,150L50,150L50,150L50,150L50,150L50,150L50,194L50,183L50,183L50,183L50,183L50,183L50,183L50,183L50,183L50,183L50,182L50,182L50,182L50,195L50,199L50,198L50,197L50,199L50,198L50,197L50,199L50,198L50,197L50,187L50,187L50,187L50,187L50,188L50,188L50,188L50,188L50,198L50,197L50,196L50,198L50,197L50,196L50,196L50,195L50,198L50,195L50,195L50,191L50,187L50,180L50,199L50,200L50,200L50,200L50,200L50,200L50,200L50,200L50,200L50,197L50,195L50,194L0,200L0,200L0,200L0,200L0,200L0,200L0,200L0,200L0,200L0,200L0,200L0,200L0,200L0,200L0,200L0,200L0,200L0,200L0,200L0,200L0,200L0,200L0,200L0,200L0,200L0,200L0,200L0,200L0,200L0,200L0,200L0,200L0,200L0,200L0,200L0,200L0,200L0,200L0,200L0,200L0,200L0,200L0,200L0,200L0,200L0,200L0,200L0,200L0,200L0,200L0,200L0,200L0,200L0,200L0,200L0,200L0,200L0,200L0,200L0,200L0,200L0,200L0,200L0,200L0,200L0,200L0,200L0,200L0,200L0,200L0,200L0,200L0,200L0,200L0,200L0,200L0,200L0,200L0,200L0,200L0,200L0,200L0,200L0,200L0,200L0,200L0,200L0,197L0,194L0,199L0,199L0,199L0,199L0,198L0,198L0,197L0,197L0,197L0,196L0,196L0,196L0,196L0,196L0,196L0,199L0,199L0,199L0,198L0,198L0,198L0,197L0,197L0,197L0,197L0,197L0,197L0,200L0,200L0,200L0,200L0,200L0,200L0,194L0,200L0,199L0,192L0,197L0,197L0,197L0,197L0,197L0,200L0,200L0,200L0,200L0,200L0,200L0,200L0,200L0,200L0,200L0,200L0,200L0,200L0,200L0,200L0,200L0,200L0,200L0,200L0,198L0,198L0,200L0,200L0,198L0,200L0,198L0,198L0,198L0,198L0,200L0,200L0,200L0,200L0,200L0,200L0,200L0,200L0,200L0,200L0,200L0,200L0,200L0,200L0,199L0,199L0,198L0,199L0,199L0,198L0,199L0,200L0,200L0,200L0,200L0,200L0,200L0,200L0,200L0,200L0,200L0,200L0,200L0,200L0,200L0,200L0,200L0,200L0,200L0,200L0,200L0,200L0,200L0,200L0,200L0,200L0,200L0,200L0,200L0,200L0,200L0,200L0,200L0,200L0,200L0,200L0,200L0,200L0,200L0,200L0,200L0,200L0,200L0,200L0,200L0,200L0,200L0,200L0,200L0,200L0,200L0,200L0,200L0,200L0,200L0,200L0,200L0,200L0,200L0,200L0,200L0,200L0,200L0,200L0,200L0,200" style="fill: none; stroke: #4682b4; stroke-width: 2;"></path></g></g></g></g></g></g></svg>