<svg class="marks" width="331" height="310" version="1.1" xmlns="http://www.w3.org/2000/svg" xmlns:xlink="http://www.w3.org/1999/xlink"><g transform="translate(57,12)"><g class="mark-group"><g transform="translate(0,0)"><rect class="background" width="1" height="1" style="fill: none;"></rect><g class="mark-group root"><g transform="translate(0,0)"><rect class="background" width="264" height="255" style="fill: none;"></rect><g class="mark-group"><g transform="translate(0,255)"><rect class="background" width="0" height="0" style="pointer-events: none; fill: none;"></rect><g class="mark-rule" style="pointer-events: none;"><line transform="translate(0.5,-255)" x2="0" y2="255" style="fill: none; stroke: #000; stroke-opacity: 0.15; opacity: 1;"></line><line transform="translate(66.5,-255)" x2="0" y2="255" style="fill: none; stroke: #000; stroke-opacity: 0.15; opacity: 1;"></line><line transform="translate(132.5,-255)" x2="0" y2="255" style="fill: none; stroke: #000; stroke-opacity: 0.15; opacity: 1;"></line><line transform="translate(198.5,-255)" x2="0" y2="255" style="fill: none; stroke: #000; stroke-opacity: 0.15; opacity: 1;"></line><line transform="translate(264.5,-255)" x2="0" y2="255" style="fill: none; stroke: #000; stroke-opacity: 0.15; opacity: 1;"></line></g><g class="mark-rule" style="pointer-events: none;"><line transform="translate(0.5,0)" x2="0" y2="6" style="fill: none; stroke: #000; stroke-width: 1; opacity: 1;"></line><line transform="translate(66.5,0)" x2="0" y2="6" style="fill: none; stroke: #000; stroke-width: 1; opacity: 1;"></line><line transform="translate(132.5,0)" x2="0" y2="6" style="fill: none; stroke: #000; stroke-width: 1; opacity: 1;"></line><line transform="translate(198.5,0)" x2="0" y2="6" style="fill: none; stroke: #000; stroke-width: 1; opacity: 1;"></line><line transform="translate(264.5,0)" x2="0" y2="6" style="fill: none; stroke: #000; stroke-width: 1; opacity: 1;"></line></g><g class="mark-rule" style="pointer-events: none;"></g><g class="mark-text"><text text-anchor="middle" transform="translate(0.5,19)" style="font: 11px sans-serif; fill: #000; opacity: 1;">0</text><text text-anchor="middle" transform="translate(66.5,19)" style="font: 11px sans-serif; fill: #000; opacity: 1;">1</text><text text-anchor="middle" transform="translate(132.5,19)" style="font: 11px sans-serif; fill: #000; opacity: 1;">2</text><text text-anchor="middle" transform="translate(198.5,19)" style="font: 11px sans-serif; fill: #000; opacity: 1;">3</text><text text-anchor="middle" transform="translate(264.5,19)" style="font: 11px sans-serif; fill: #000; opacity: 1;">4</text></g><g class="mark-path" style="pointer-events: none;"><path transform="translate(0.5,0.5)" d="M0,6V0H264V6" style="fill: none; stroke: #000; stroke-width: 1;"></path></g><g class="mark-text"><text text-anchor="middle" transform="translate(132,35)" style="font: bold 11px sans-serif; fill: #000;">DaysToManufacture</text></g></g></g><g class="mark-group"><g transform="translate(0,0)"><rect class="background" width="0" height="0" style="pointer-events: none; fill: none;"></rect><g class="mark-rule" style="pointer-events: none;"><line transform="translate(0,255.5)" x2="264" y2="0" style="fill: none; stroke: #000; stroke-opacity: 0.15; opacity: 1;"></line><line transform="translate(0,223.5)" x2="264" y2="0" style="fill: none; stroke: #000; stroke-opacity: 0.15; opacity: 1;"></line><line transform="translate(0,191.5)" x2="264" y2="0" style="fill: none; stroke: #000; stroke-opacity: 0.15; opacity: 1;"></line><line transform="translate(0,159.5)" x2="264" y2="0" style="fill: none; stroke: #000; stroke-opacity: 0.15; opacity: 1;"></line><line transform="translate(0,128.5)" x2="264" y2="0" style="fill: none; stroke: #000; stroke-opacity: 0.15; opacity: 1;"></line><line transform="translate(0,96.5)" x2="264" y2="0" style="fill: none; stroke: #000; stroke-opacity: 0.15; opacity: 1;"></line><line transform="translate(0,64.5)" x2="264" y2="0" style="fill: none; stroke: #000; stroke-opacity: 0.15; opacity: 1;"></line><line transform="translate(0,32.5)" x2="264" y2="0" style="fill: none; stroke: #000; stroke-opacity: 0.15; opacity: 1;"></line><line transform="translate(0,0.5)" x2="264" y2="0" style="fill: none; stroke: #000; stroke-opacity: 0.15; opacity: 1;"></line></g><g class="mark-rule" style="pointer-events: none;"><line transform="translate(-6,255.5)" x2="6" y2="0" style="fill: none; stroke: #000; stroke-width: 1; opacity: 1;"></line><line transform="translate(-6,223.5)" x2="6" y2="0" style="fill: none; stroke: #000; stroke-width: 1; opacity: 1;"></line><line transform="translate(-6,191.5)" x2="6" y2="0" style="fill: none; stroke: #000; stroke-width: 1; opacity: 1;"></line><line transform="translate(-6,159.5)" x2="6" y2="0" style="fill: none; stroke: #000; stroke-width: 1; opacity: 1;"></line><line transform="translate(-6,128.5)" x2="6" y2="0" style="fill: none; stroke: #000; stroke-width: 1; opacity: 1;"></line><line transform="translate(-6,96.5)" x2="6" y2="0" style="fill: none; stroke: #000; stroke-width: 1; opacity: 1;"></line><line transform="translate(-6,64.5)" x2="6" y2="0" style="fill: none; stroke: #000; stroke-width: 1; opacity: 1;"></line><line transform="translate(-6,32.5)" x2="6" y2="0" style="fill: none; stroke: #000; stroke-width: 1; opacity: 1;"></line><line transform="translate(-6,0.5)" x2="6" y2="0" style="fill: none; stroke: #000; stroke-width: 1; opacity: 1;"></line></g><g class="mark-rule" style="pointer-events: none;"></g><g class="mark-text"><text text-anchor="end" transform="translate(-9,258.5)" style="font: 11px sans-serif; fill: #000; opacity: 1;">0.0k</text><text text-anchor="end" transform="translate(-9,226.5)" style="font: 11px sans-serif; fill: #000; opacity: 1;">0.5k</text><text text-anchor="end" transform="translate(-9,194.5)" style="font: 11px sans-serif; fill: #000; opacity: 1;">1.0k</text><text text-anchor="end" transform="translate(-9,162.5)" style="font: 11px sans-serif; fill: #000; opacity: 1;">1.5k</text><text text-anchor="end" transform="translate(-9,131.5)" style="font: 11px sans-serif; fill: #000; opacity: 1;">2.0k</text><text text-anchor="end" transform="translate(-9,99.5)" style="font: 11px sans-serif; fill: #000; opacity: 1;">2.5k</text><text text-anchor="end" transform="translate(-9,67.5)" style="font: 11px sans-serif; fill: #000; opacity: 1;">3.0k</text><text text-anchor="end" transform="translate(-9,35.5)" style="font: 11px sans-serif; fill: #000; opacity: 1;">3.5k</text><text text-anchor="end" transform="translate(-9,3.5)" style="font: 11px sans-serif; fill: #000; opacity: 1;">4.0k</text></g><g class="mark-path" style="pointer-events: none;"><path transform="translate(0.5,0.5)" d="M-6,0H0V255H-6" style="fill: none; stroke: #000; stroke-width: 1;"></path></g><g class="mark-text"><text text-anchor="middle" transform="translate(-45,127) rotate(-90) translate(0,3)" style="font: bold 11px sans-serif; fill: #000;">ListPrice</text></g></g></g><g class="mark-line marks"><path d="M264,99L264,184L264,221L264,221L264,221L264,221L264,221L264,219L264,219L264,219L264,219L264,219L264,206L264,206L264,206L264,206L264,208L264,208L264,221L264,147L264,147L264,147L264,147L264,178L264,178L264,178L264,103L264,103L264,103L264,103L264,208L264,208L264,208L264,208L264,208L264,208L264,208L264,208L264,103L264,103L264,103L264,103L264,178L264,184L264,184L264,184L264,184L264,221L264,99L264,99L264,99L264,99L264,221L264,99L264,99L264,99L264,186L264,186L264,186L264,186L264,109L264,109L264,109L264,107L264,107L264,107L264,40L264,40L264,40L264,40L264,38L264,38L264,38L264,38L264,205L264,205L264,205L264,205L264,205L264,205L264,205L264,205L264,205L264,205L264,205L264,205L264,162L264,162L264,162L264,162L264,162L264,27L264,27L264,27L264,27L264,27L264,221L132,233L132,168L132,238L132,239L132,232L132,217L132,169L66,233L66,255L66,246L66,242L66,246L66,246L66,242L66,246L66,246L66,242L66,255L66,255L66,255L66,255L66,255L66,164L66,164L66,164L66,164L66,164L66,164L66,164L66,234L66,234L66,234L66,234L66,234L66,234L66,234L66,234L66,234L66,217L66,217L66,217L66,217L66,217L66,234L66,234L66,234L66,168L66,168L66,168L66,168L66,169L66,169L66,169L66,169L66,255L66,255L66,255L66,255L66,246L66,244L66,240L66,253L66,248L66,247L66,252L66,251L66,247L66,252L66,251L66,247L66,251L66,242L66,236L66,250L66,239L66,234L66,241L66,249L66,240L66,234L66,248L66,237L66,232L66,239L66,246L66,233L66,233L66,217L66,217L66,217L66,217L66,164L66,164L66,164L66,164L66,191L66,234L66,191L66,191L66,191L66,191L66,191L66,191L66,191L66,247L66,234L66,234L66,234L66,234L66,234L66,234L66,234L66,234L66,234L66,232L66,232L66,232L66,248L66,253L66,253L66,252L66,253L66,253L66,252L66,253L66,253L66,252L66,238L66,238L66,238L66,238L66,239L66,239L66,239L66,239L66,252L66,251L66,250L66,252L66,251L66,250L66,250L66,249L66,252L66,249L66,248L66,244L66,239L66,229L66,254L66,255L66,255L66,255L66,255L66,255L66,255L66,255L66,255L66,252L66,249L66,247L0,254L0,255L0,255L0,255L0,255L0,255L0,255L0,255L0,255L0,255L0,255L0,255L0,255L0,255L0,255L0,255L0,255L0,255L0,255L0,255L0,255L0,255L0,255L0,255L0,255L0,255L0,255L0,255L0,255L0,255L0,255L0,255L0,255L0,255L0,255L0,255L0,255L0,255L0,255L0,255L0,255L0,255L0,255L0,255L0,255L0,255L0,255L0,255L0,255L0,255L0,255L0,255L0,255L0,255L0,255L0,255L0,255L0,255L0,255L0,255L0,255L0,255L0,255L0,255L0,255L0,255L0,255L0,255L0,255L0,255L0,255L0,255L0,255L0,255L0,255L0,255L0,255L0,255L0,255L0,255L0,255L0,255L0,255L0,255L0,255L0,255L0,255L0,251L0,247L0,253L0,254L0,253L0,254L0,253L0,252L0,251L0,251L0,251L0,250L0,250L0,250L0,249L0,249L0,249L0,253L0,253L0,253L0,253L0,253L0,253L0,251L0,251L0,251L0,251L0,251L0,251L0,255L0,254L0,254L0,255L0,254L0,254L0,247L0,255L0,254L0,245L0,251L0,252L0,252L0,252L0,252L0,255L0,255L0,255L0,255L0,255L0,255L0,255L0,255L0,255L0,255L0,255L0,255L0,255L0,255L0,255L0,255L0,255L0,255L0,255L0,253L0,253L0,254L0,254L0,253L0,254L0,252L0,252L0,252L0,252L0,255L0,255L0,255L0,255L0,255L0,255L0,255L0,255L0,255L0,255L0,255L0,255L0,255L0,255L0,253L0,253L0,253L0,254L0,253L0,253L0,253L0,255L0,255L0,255L0,255L0,255L0,255L0,255L0,255L0,255L0,255L0,255L0,255L0,255L0,255L0,255L0,255L0,255L0,255L0,255L0,255L0,255L0,255L0,255L0,255L0,255L0,255L0,255L0,255L0,255L0,255L0,255L0,255L0,255L0,255L0,255L0,255L0,255L0,255L0,255L0,255L0,255L0,255L0,255L0,255L0,255L0,255L0,255L0,255L0,255L0,255L0,255L0,255L0,255L0,255L0,255L0,255L0,255L0,255L0,255L0,255L0,255L0,255L0,255L0,255L0,255" style="fill: none; stroke: #4682b4; stroke-width: 2;"></path></g></g></g></g></g></g></svg>