<svg class="marks" width="175" height="253" version="1.1" xmlns="http://www.w3.org/2000/svg" xmlns:xlink="http://www.w3.org/1999/xlink"><g transform="translate(57,12)"><g class="mark-group"><g transform="translate(0,0)"><rect class="background" width="1" height="1" style="fill: none;"></rect><g class="mark-group root"><g transform="translate(0,0)"><rect class="background" width="100" height="200" style="fill: none;"></rect><g class="mark-group"><g transform="translate(0,200)"><rect class="background" width="0" height="0" style="pointer-events: none; fill: none;"></rect><g class="mark-rule" style="pointer-events: none;"></g><g class="mark-rule" style="pointer-events: none;"><line transform="translate(13.5,0)" x2="0" y2="6" style="fill: none; stroke: #000; stroke-width: 1; opacity: 1;"></line><line transform="translate(38.5,0)" x2="0" y2="6" style="fill: none; stroke: #000; stroke-width: 1; opacity: 1;"></line><line transform="translate(63.5,0)" x2="0" y2="6" style="fill: none; stroke: #000; stroke-width: 1; opacity: 1;"></line><line transform="translate(88.5,0)" x2="0" y2="6" style="fill: none; stroke: #000; stroke-width: 1; opacity: 1;"></line></g><g class="mark-rule" style="pointer-events: none;"></g><g class="mark-text"><text text-anchor="end" transform="translate(13.5,9) rotate(270) translate(0,3)" style="font: 11px sans-serif; fill: #000; opacity: 1;">0</text><text text-anchor="end" transform="translate(38.5,9) rotate(270) translate(0,3)" style="font: 11px sans-serif; fill: #000; opacity: 1;">1</text><text text-anchor="end" transform="translate(63.5,9) rotate(270) translate(0,3)" style="font: 11px sans-serif; fill: #000; opacity: 1;">2</text><text text-anchor="end" transform="translate(88.5,9) rotate(270) translate(0,3)" style="font: 11px sans-serif; fill: #000; opacity: 1;">4</text></g><g class="mark-path" style="pointer-events: none;"><path transform="translate(0.5,0.5)" d="M0,6V0H100V6" style="fill: none; stroke: #000; stroke-width: 1;"></path></g><g class="mark-text"><text text-anchor="middle" transform="translate(50,33)" style="font: bold 11px sans-serif; fill: #000;">DaysToManufacture</text></g></g></g><g class="mark-group"><g transform="translate(0,0)"><rect class="background" width="0" height="0" style="pointer-events: none; fill: none;"></rect><g class="mark-rule" style="pointer-events: none;"><line transform="translate(0,200.5)" x2="100" y2="0" style="fill: none; stroke: #000; stroke-opacity: 0.15; opacity: 1;"></line><line transform="translate(0,182.5)" x2="100" y2="0" style="fill: none; stroke: #000; stroke-opacity: 0.15; opacity: 1;"></line><line transform="translate(0,164.5)" x2="100" y2="0" style="fill: none; stroke: #000; stroke-opacity: 0.15; opacity: 1;"></line><line transform="translate(0,145.5)" x2="100" y2="0" style="fill: none; stroke: #000; stroke-opacity: 0.15; opacity: 1;"></line><line transform="translate(0,127.5)" x2="100" y2="0" style="fill: none; stroke: #000; stroke-opacity: 0.15; opacity: 1;"></line><line transform="translate(0,109.5)" x2="100" y2="0" style="fill: none; stroke: #000; stroke-opacity: 0.15; opacity: 1;"></line><line transform="translate(0,91.5)" x2="100" y2="0" style="fill: none; stroke: #000; stroke-opacity: 0.15; opacity: 1;"></line><line transform="translate(0,73.5)" x2="100" y2="0" style="fill: none; stroke: #000; stroke-opacity: 0.15; opacity: 1;"></line><line transform="translate(0,55.5)" x2="100" y2="0" style="fill: none; stroke: #000; stroke-opacity: 0.15; opacity: 1;"></line><line transform="translate(0,36.5)" x2="100" y2="0" style="fill: none; stroke: #000; stroke-opacity: 0.15; opacity: 1;"></line><line transform="translate(0,18.5)" x2="100" y2="0" style="fill: none; stroke: #000; stroke-opacity: 0.15; opacity: 1;"></line><line transform="translate(0,0.5)" x2="100" y2="0" style="fill: none; stroke: #000; stroke-opacity: 0.15; opacity: 1;"></line></g><g class="mark-rule" style="pointer-events: none;"><line transform="translate(-6,200.5)" x2="6" y2="0" style="fill: none; stroke: #000; stroke-width: 1; opacity: 1;"></line><line transform="translate(-6,182.5)" x2="6" y2="0" style="fill: none; stroke: #000; stroke-width: 1; opacity: 1;"></line><line transform="translate(-6,164.5)" x2="6" y2="0" style="fill: none; stroke: #000; stroke-width: 1; opacity: 1;"></line><line transform="translate(-6,145.5)" x2="6" y2="0" style="fill: none; stroke: #000; stroke-width: 1; opacity: 1;"></line><line transform="translate(-6,127.5)" x2="6" y2="0" style="fill: none; stroke: #000; stroke-width: 1; opacity: 1;"></line><line transform="translate(-6,109.5)" x2="6" y2="0" style="fill: none; stroke: #000; stroke-width: 1; opacity: 1;"></line><line transform="translate(-6,91.5)" x2="6" y2="0" style="fill: none; stroke: #000; stroke-width: 1; opacity: 1;"></line><line transform="translate(-6,73.5)" x2="6" y2="0" style="fill: none; stroke: #000; stroke-width: 1; opacity: 1;"></line><line transform="translate(-6,55.5)" x2="6" y2="0" style="fill: none; stroke: #000; stroke-width: 1; opacity: 1;"></line><line transform="translate(-6,36.5)" x2="6" y2="0" style="fill: none; stroke: #000; stroke-width: 1; opacity: 1;"></line><line transform="translate(-6,18.5)" x2="6" y2="0" style="fill: none; stroke: #000; stroke-width: 1; opacity: 1;"></line><line transform="translate(-6,0.5)" x2="6" y2="0" style="fill: none; stroke: #000; stroke-width: 1; opacity: 1;"></line></g><g class="mark-rule" style="pointer-events: none;"></g><g class="mark-text"><text text-anchor="end" transform="translate(-9,203.5)" style="font: 11px sans-serif; fill: #000; opacity: 1;">0.0k</text><text text-anchor="end" transform="translate(-9,185.5)" style="font: 11px sans-serif; fill: #000; opacity: 1;">0.1k</text><text text-anchor="end" transform="translate(-9,167.5)" style="font: 11px sans-serif; fill: #000; opacity: 1;">0.2k</text><text text-anchor="end" transform="translate(-9,148.5)" style="font: 11px sans-serif; fill: #000; opacity: 1;">0.3k</text><text text-anchor="end" transform="translate(-9,130.5)" style="font: 11px sans-serif; fill: #000; opacity: 1;">0.4k</text><text text-anchor="end" transform="translate(-9,112.5)" style="font: 11px sans-serif; fill: #000; opacity: 1;">0.5k</text><text text-anchor="end" transform="translate(-9,94.5)" style="font: 11px sans-serif; fill: #000; opacity: 1;">0.6k</text><text text-anchor="end" transform="translate(-9,76.5)" style="font: 11px sans-serif; fill: #000; opacity: 1;">0.7k</text><text text-anchor="end" transform="translate(-9,58.5)" style="font: 11px sans-serif; fill: #000; opacity: 1;">0.8k</text><text text-anchor="end" transform="translate(-9,39.5)" style="font: 11px sans-serif; fill: #000; opacity: 1;">0.9k</text><text text-anchor="end" transform="translate(-9,21.5)" style="font: 11px sans-serif; fill: #000; opacity: 1;">1.0k</text><text text-anchor="end" transform="translate(-9,3.5)" style="font: 11px sans-serif; fill: #000; opacity: 1;">1.1k</text></g><g class="mark-path" style="pointer-events: none;"><path transform="translate(0.5,0.5)" d="M-6,0H0V200H-6" style="fill: none; stroke: #000; stroke-width: 1;"></path></g><g class="mark-text"><text text-anchor="middle" transform="translate(-45,100) rotate(-90) translate(0,3)" style="font: bold 11px sans-serif; fill: #000;">Weight</text></g></g></g><g class="mark-rect marks"><rect transform="translate(3.5,121)" width="19" height="79" style="fill: #4682b4;"></rect><rect transform="translate(3.5,118)" width="19" height="82" style="fill: #4682b4;"></rect><rect transform="translate(3.5,127)" width="19" height="73" style="fill: #4682b4;"></rect><rect transform="translate(3.5,119)" width="19" height="81" style="fill: #4682b4;"></rect><rect transform="translate(3.5,118)" width="19" height="82" style="fill: #4682b4;"></rect><rect transform="translate(3.5,127)" width="19" height="73" style="fill: #4682b4;"></rect><rect transform="translate(3.5,116)" width="19" height="84" style="fill: #4682b4;"></rect><rect transform="translate(28.5,200)" width="19" height="0" style="fill: #4682b4;"></rect><rect transform="translate(28.5,200)" width="19" height="0" style="fill: #4682b4;"></rect><rect transform="translate(28.5,200)" width="19" height="0" style="fill: #4682b4;"></rect><rect transform="translate(28.5,200)" width="19" height="0" style="fill: #4682b4;"></rect><rect transform="translate(28.5,200)" width="19" height="0" style="fill: #4682b4;"></rect><rect transform="translate(28.5,200)" width="19" height="0" style="fill: #4682b4;"></rect><rect transform="translate(28.5,200)" width="19" height="0" style="fill: #4682b4;"></rect><rect transform="translate(28.5,200)" width="19" height="0" style="fill: #4682b4;"></rect><rect transform="translate(28.5,200)" width="19" height="0" style="fill: #4682b4;"></rect><rect transform="translate(28.5,200)" width="19" height="0" style="fill: #4682b4;"></rect><rect transform="translate(28.5,200)" width="19" height="0" style="fill: #4682b4;"></rect><rect transform="translate(28.5,200)" width="19" height="0" style="fill: #4682b4;"></rect><rect transform="translate(28.5,200)" width="19" height="0" style="fill: #4682b4;"></rect><rect transform="translate(28.5,200)" width="19" height="0" style="fill: #4682b4;"></rect><rect transform="translate(28.5,200)" width="19" height="0" style="fill: #4682b4;"></rect><rect transform="translate(28.5,200)" width="19" height="0" style="fill: #4682b4;"></rect><rect transform="translate(28.5,200)" width="19" height="0" style="fill: #4682b4;"></rect><rect transform="translate(28.5,200)" width="19" height="0" style="fill: #4682b4;"></rect><rect transform="translate(28.5,200)" width="19" height="0" style="fill: #4682b4;"></rect><rect transform="translate(28.5,200)" width="19" height="0" style="fill: #4682b4;"></rect><rect transform="translate(28.5,200)" width="19" height="0" style="fill: #4682b4;"></rect><rect transform="translate(28.5,200)" width="19" height="0" style="fill: #4682b4;"></rect><rect transform="translate(28.5,200)" width="19" height="0" style="fill: #4682b4;"></rect><rect transform="translate(28.5,200)" width="19" height="0" style="fill: #4682b4;"></rect><rect transform="translate(28.5,200)" width="19" height="0" style="fill: #4682b4;"></rect><rect transform="translate(28.5,199)" width="19" height="1" style="fill: #4682b4;"></rect><rect transform="translate(28.5,199)" width="19" height="1" style="fill: #4682b4;"></rect><rect transform="translate(28.5,199)" width="19" height="1" style="fill: #4682b4;"></rect><rect transform="translate(28.5,200)" width="19" height="0" style="fill: #4682b4;"></rect><rect transform="translate(28.5,199)" width="19" height="1" style="fill: #4682b4;"></rect><rect transform="translate(28.5,199)" width="19" height="1" style="fill: #4682b4;"></rect><rect transform="translate(28.5,199)" width="19" height="1" style="fill: #4682b4;"></rect><rect transform="translate(53.5,200)" width="19" height="0" style="fill: #4682b4;"></rect><rect transform="translate(53.5,200)" width="19" height="0" style="fill: #4682b4;"></rect><rect transform="translate(78.5,197)" width="19" height="3" style="fill: #4682b4;"></rect><rect transform="translate(78.5,197)" width="19" height="3" style="fill: #4682b4;"></rect><rect transform="translate(78.5,197)" width="19" height="3" style="fill: #4682b4;"></rect><rect transform="translate(78.5,197)" width="19" height="3" style="fill: #4682b4;"></rect><rect transform="translate(78.5,197)" width="19" height="3" style="fill: #4682b4;"></rect><rect transform="translate(78.5,197)" width="19" height="3" style="fill: #4682b4;"></rect><rect transform="translate(78.5,197)" width="19" height="3" style="fill: #4682b4;"></rect><rect transform="translate(78.5,197)" width="19" height="3" style="fill: #4682b4;"></rect><rect transform="translate(78.5,197)" width="19" height="3" style="fill: #4682b4;"></rect><rect transform="translate(78.5,197)" width="19" height="3" style="fill: #4682b4;"></rect><rect transform="translate(78.5,196)" width="19" height="4" style="fill: #4682b4;"></rect><rect transform="translate(78.5,196)" width="19" height="4" style="fill: #4682b4;"></rect><rect transform="translate(78.5,196)" width="19" height="4" style="fill: #4682b4;"></rect><rect transform="translate(78.5,197)" width="19" height="3" style="fill: #4682b4;"></rect><rect transform="translate(78.5,197)" width="19" height="3" style="fill: #4682b4;"></rect><rect transform="translate(78.5,196)" width="19" height="4" style="fill: #4682b4;"></rect><rect transform="translate(78.5,196)" width="19" height="4" style="fill: #4682b4;"></rect><rect transform="translate(78.5,196)" width="19" height="4" style="fill: #4682b4;"></rect><rect transform="translate(78.5,196)" width="19" height="4" style="fill: #4682b4;"></rect><rect transform="translate(78.5,197)" width="19" height="3" style="fill: #4682b4;"></rect><rect transform="translate(78.5,197)" width="19" height="3" style="fill: #4682b4;"></rect><rect transform="translate(78.5,196)" width="19" height="4" style="fill: #4682b4;"></rect><rect transform="translate(78.5,196)" width="19" height="4" style="fill: #4682b4;"></rect><rect transform="translate(78.5,196)" width="19" height="4" style="fill: #4682b4;"></rect><rect transform="translate(78.5,196)" width="19" height="4" style="fill: #4682b4;"></rect><rect transform="translate(78.5,196)" width="19" height="4" style="fill: #4682b4;"></rect><rect transform="translate(78.5,196)" width="19" height="4" style="fill: #4682b4;"></rect><rect transform="translate(78.5,196)" width="19" height="4" style="fill: #4682b4;"></rect><rect transform="translate(78.5,196)" width="19" height="4" style="fill: #4682b4;"></rect><rect transform="translate(78.5,196)" width="19" height="4" style="fill: #4682b4;"></rect><rect transform="translate(78.5,196)" width="19" height="4" style="fill: #4682b4;"></rect><rect transform="translate(78.5,196)" width="19" height="4" style="fill: #4682b4;"></rect><rect transform="translate(78.5,196)" width="19" height="4" style="fill: #4682b4;"></rect><rect transform="translate(78.5,196)" width="19" height="4" style="fill: #4682b4;"></rect><rect transform="translate(78.5,196)" width="19" height="4" style="fill: #4682b4;"></rect><rect transform="translate(78.5,196)" width="19" height="4" style="fill: #4682b4;"></rect><rect transform="translate(78.5,195)" width="19" height="5" style="fill: #4682b4;"></rect><rect transform="translate(78.5,195)" width="19" height="5" style="fill: #4682b4;"></rect><rect transform="translate(78.5,195)" width="19" height="5" style="fill: #4682b4;"></rect><rect transform="translate(78.5,195)" width="19" height="5" style="fill: #4682b4;"></rect><rect transform="translate(78.5,197)" width="19" height="3" style="fill: #4682b4;"></rect><rect transform="translate(78.5,197)" width="19" height="3" style="fill: #4682b4;"></rect><rect transform="translate(78.5,197)" width="19" height="3" style="fill: #4682b4;"></rect><rect transform="translate(78.5,197)" width="19" height="3" style="fill: #4682b4;"></rect><rect transform="translate(78.5,197)" width="19" height="3" style="fill: #4682b4;"></rect><rect transform="translate(78.5,197)" width="19" height="3" style="fill: #4682b4;"></rect><rect transform="translate(78.5,197)" width="19" height="3" style="fill: #4682b4;"></rect><rect transform="translate(78.5,197)" width="19" height="3" style="fill: #4682b4;"></rect><rect transform="translate(78.5,197)" width="19" height="3" style="fill: #4682b4;"></rect><rect transform="translate(78.5,197)" width="19" height="3" style="fill: #4682b4;"></rect><rect transform="translate(78.5,197)" width="19" height="3" style="fill: #4682b4;"></rect><rect transform="translate(78.5,197)" width="19" height="3" style="fill: #4682b4;"></rect><rect transform="translate(78.5,197)" width="19" height="3" style="fill: #4682b4;"></rect><rect transform="translate(53.5,200)" width="19" height="0" style="fill: #4682b4;"></rect><rect transform="translate(28.5,36)" width="19" height="164" style="fill: #4682b4;"></rect><rect transform="translate(28.5,45)" width="19" height="155" style="fill: #4682b4;"></rect><rect transform="translate(28.5,82)" width="19" height="118" style="fill: #4682b4;"></rect><rect transform="translate(53.5,200)" width="19" height="0" style="fill: #4682b4;"></rect><rect transform="translate(28.5,9)" width="19" height="191" style="fill: #4682b4;"></rect><rect transform="translate(28.5,18)" width="19" height="182" style="fill: #4682b4;"></rect><rect transform="translate(28.5,38)" width="19" height="162" style="fill: #4682b4;"></rect><rect transform="translate(28.5,199)" width="19" height="1" style="fill: #4682b4;"></rect><rect transform="translate(28.5,199)" width="19" height="1" style="fill: #4682b4;"></rect><rect transform="translate(28.5,199)" width="19" height="1" style="fill: #4682b4;"></rect><rect transform="translate(28.5,200)" width="19" height="0" style="fill: #4682b4;"></rect><rect transform="translate(28.5,200)" width="19" height="0" style="fill: #4682b4;"></rect><rect transform="translate(28.5,200)" width="19" height="0" style="fill: #4682b4;"></rect><rect transform="translate(28.5,200)" width="19" height="0" style="fill: #4682b4;"></rect><rect transform="translate(28.5,200)" width="19" height="0" style="fill: #4682b4;"></rect><rect transform="translate(28.5,200)" width="19" height="0" style="fill: #4682b4;"></rect><rect transform="translate(28.5,200)" width="19" height="0" style="fill: #4682b4;"></rect><rect transform="translate(28.5,200)" width="19" height="0" style="fill: #4682b4;"></rect><rect transform="translate(28.5,199)" width="19" height="1" style="fill: #4682b4;"></rect><rect transform="translate(28.5,199)" width="19" height="1" style="fill: #4682b4;"></rect><rect transform="translate(28.5,199)" width="19" height="1" style="fill: #4682b4;"></rect><rect transform="translate(28.5,199)" width="19" height="1" style="fill: #4682b4;"></rect><rect transform="translate(28.5,199)" width="19" height="1" style="fill: #4682b4;"></rect><rect transform="translate(28.5,199)" width="19" height="1" style="fill: #4682b4;"></rect><rect transform="translate(28.5,199)" width="19" height="1" style="fill: #4682b4;"></rect><rect transform="translate(28.5,199)" width="19" height="1" style="fill: #4682b4;"></rect><rect transform="translate(28.5,199)" width="19" height="1" style="fill: #4682b4;"></rect><rect transform="translate(28.5,161)" width="19" height="39" style="fill: #4682b4;"></rect><rect transform="translate(28.5,199)" width="19" height="1" style="fill: #4682b4;"></rect><rect transform="translate(28.5,199)" width="19" height="1" style="fill: #4682b4;"></rect><rect transform="translate(28.5,199)" width="19" height="1" style="fill: #4682b4;"></rect><rect transform="translate(28.5,199)" width="19" height="1" style="fill: #4682b4;"></rect><rect transform="translate(28.5,199)" width="19" height="1" style="fill: #4682b4;"></rect><rect transform="translate(28.5,199)" width="19" height="1" style="fill: #4682b4;"></rect><rect transform="translate(28.5,199)" width="19" height="1" style="fill: #4682b4;"></rect><rect transform="translate(28.5,199)" width="19" height="1" style="fill: #4682b4;"></rect><rect transform="translate(28.5,199)" width="19" height="1" style="fill: #4682b4;"></rect><rect transform="translate(28.5,199)" width="19" height="1" style="fill: #4682b4;"></rect><rect transform="translate(28.5,199)" width="19" height="1" style="fill: #4682b4;"></rect><rect transform="translate(28.5,199)" width="19" height="1" style="fill: #4682b4;"></rect><rect transform="translate(28.5,142)" width="19" height="58" style="fill: #4682b4;"></rect><rect transform="translate(28.5,199)" width="19" height="1" style="fill: #4682b4;"></rect><rect transform="translate(28.5,199)" width="19" height="1" style="fill: #4682b4;"></rect><rect transform="translate(28.5,199)" width="19" height="1" style="fill: #4682b4;"></rect><rect transform="translate(28.5,199)" width="19" height="1" style="fill: #4682b4;"></rect><rect transform="translate(28.5,199)" width="19" height="1" style="fill: #4682b4;"></rect><rect transform="translate(28.5,199)" width="19" height="1" style="fill: #4682b4;"></rect><rect transform="translate(28.5,199)" width="19" height="1" style="fill: #4682b4;"></rect><rect transform="translate(28.5,199)" width="19" height="1" style="fill: #4682b4;"></rect><rect transform="translate(28.5,160)" width="19" height="40" style="fill: #4682b4;"></rect><rect transform="translate(28.5,161)" width="19" height="39" style="fill: #4682b4;"></rect><rect transform="translate(28.5,166)" width="19" height="34" style="fill: #4682b4;"></rect><rect transform="translate(28.5,166)" width="19" height="34" style="fill: #4682b4;"></rect><rect transform="translate(28.5,169)" width="19" height="31" style="fill: #4682b4;"></rect><rect transform="translate(28.5,173)" width="19" height="27" style="fill: #4682b4;"></rect><rect transform="translate(53.5,200)" width="19" height="0" style="fill: #4682b4;"></rect><rect transform="translate(53.5,199)" width="19" height="1" style="fill: #4682b4;"></rect><rect transform="translate(53.5,199)" width="19" height="1" style="fill: #4682b4;"></rect><rect transform="translate(28.5,184)" width="19" height="16" style="fill: #4682b4;"></rect><rect transform="translate(28.5,142)" width="19" height="58" style="fill: #4682b4;"></rect><rect transform="translate(28.5,91)" width="19" height="109" style="fill: #4682b4;"></rect><rect transform="translate(28.5,85)" width="19" height="115" style="fill: #4682b4;"></rect><rect transform="translate(28.5,95)" width="19" height="105" style="fill: #4682b4;"></rect><rect transform="translate(78.5,195)" width="19" height="5" style="fill: #4682b4;"></rect><rect transform="translate(78.5,195)" width="19" height="5" style="fill: #4682b4;"></rect><rect transform="translate(78.5,195)" width="19" height="5" style="fill: #4682b4;"></rect><rect transform="translate(78.5,195)" width="19" height="5" style="fill: #4682b4;"></rect><rect transform="translate(78.5,195)" width="19" height="5" style="fill: #4682b4;"></rect><rect transform="translate(78.5,195)" width="19" height="5" style="fill: #4682b4;"></rect><rect transform="translate(78.5,195)" width="19" height="5" style="fill: #4682b4;"></rect><rect transform="translate(78.5,195)" width="19" height="5" style="fill: #4682b4;"></rect><rect transform="translate(78.5,195)" width="19" height="5" style="fill: #4682b4;"></rect><rect transform="translate(78.5,195)" width="19" height="5" style="fill: #4682b4;"></rect><rect transform="translate(78.5,195)" width="19" height="5" style="fill: #4682b4;"></rect><rect transform="translate(78.5,195)" width="19" height="5" style="fill: #4682b4;"></rect><rect transform="translate(78.5,195)" width="19" height="5" style="fill: #4682b4;"></rect><rect transform="translate(78.5,195)" width="19" height="5" style="fill: #4682b4;"></rect><rect transform="translate(78.5,195)" width="19" height="5" style="fill: #4682b4;"></rect><rect transform="translate(78.5,195)" width="19" height="5" style="fill: #4682b4;"></rect><rect transform="translate(78.5,195)" width="19" height="5" style="fill: #4682b4;"></rect><rect transform="translate(78.5,195)" width="19" height="5" style="fill: #4682b4;"></rect><rect transform="translate(78.5,195)" width="19" height="5" style="fill: #4682b4;"></rect><rect transform="translate(78.5,195)" width="19" height="5" style="fill: #4682b4;"></rect><rect transform="translate(78.5,197)" width="19" height="3" style="fill: #4682b4;"></rect><rect transform="translate(78.5,197)" width="19" height="3" style="fill: #4682b4;"></rect><rect transform="translate(78.5,197)" width="19" height="3" style="fill: #4682b4;"></rect><rect transform="translate(78.5,197)" width="19" height="3" style="fill: #4682b4;"></rect><rect transform="translate(78.5,196)" width="19" height="4" style="fill: #4682b4;"></rect><rect transform="translate(78.5,195)" width="19" height="5" style="fill: #4682b4;"></rect><rect transform="translate(78.5,195)" width="19" height="5" style="fill: #4682b4;"></rect><rect transform="translate(78.5,195)" width="19" height="5" style="fill: #4682b4;"></rect><rect transform="translate(78.5,195)" width="19" height="5" style="fill: #4682b4;"></rect><rect transform="translate(78.5,195)" width="19" height="5" style="fill: #4682b4;"></rect><rect transform="translate(78.5,195)" width="19" height="5" style="fill: #4682b4;"></rect><rect transform="translate(78.5,195)" width="19" height="5" style="fill: #4682b4;"></rect><rect transform="translate(78.5,195)" width="19" height="5" style="fill: #4682b4;"></rect><rect transform="translate(78.5,195)" width="19" height="5" style="fill: #4682b4;"></rect><rect transform="translate(78.5,195)" width="19" height="5" style="fill: #4682b4;"></rect><rect transform="translate(78.5,195)" width="19" height="5" style="fill: #4682b4;"></rect><rect transform="translate(78.5,195)" width="19" height="5" style="fill: #4682b4;"></rect><rect transform="translate(78.5,195)" width="19" height="5" style="fill: #4682b4;"></rect><rect transform="translate(78.5,195)" width="19" height="5" style="fill: #4682b4;"></rect><rect transform="translate(78.5,195)" width="19" height="5" style="fill: #4682b4;"></rect><rect transform="translate(78.5,195)" width="19" height="5" style="fill: #4682b4;"></rect><rect transform="translate(28.5,159)" width="19" height="41" style="fill: #4682b4;"></rect><rect transform="translate(28.5,169)" width="19" height="31" style="fill: #4682b4;"></rect><rect transform="translate(28.5,169)" width="19" height="31" style="fill: #4682b4;"></rect><rect transform="translate(78.5,196)" width="19" height="4" style="fill: #4682b4;"></rect><rect transform="translate(78.5,196)" width="19" height="4" style="fill: #4682b4;"></rect><rect transform="translate(78.5,196)" width="19" height="4" style="fill: #4682b4;"></rect></g></g></g></g></g></g></svg>