<svg class="marks" width="175" height="253" version="1.1" xmlns="http://www.w3.org/2000/svg" xmlns:xlink="http://www.w3.org/1999/xlink"><g transform="translate(57,12)"><g class="mark-group"><g transform="translate(0,0)"><rect class="background" width="1" height="1" style="fill: none;"></rect><g class="mark-group root"><g transform="translate(0,0)"><rect class="background" width="100" height="200" style="fill: none;"></rect><g class="mark-group"><g transform="translate(0,200)"><rect class="background" width="0" height="0" style="pointer-events: none; fill: none;"></rect><g class="mark-rule" style="pointer-events: none;"></g><g class="mark-rule" style="pointer-events: none;"><line transform="translate(13.5,0)" x2="0" y2="6" style="fill: none; stroke: #000; stroke-width: 1; opacity: 1;"></line><line transform="translate(38.5,0)" x2="0" y2="6" style="fill: none; stroke: #000; stroke-width: 1; opacity: 1;"></line><line transform="translate(63.5,0)" x2="0" y2="6" style="fill: none; stroke: #000; stroke-width: 1; opacity: 1;"></line><line transform="translate(88.5,0)" x2="0" y2="6" style="fill: none; stroke: #000; stroke-width: 1; opacity: 1;"></line></g><g class="mark-rule" style="pointer-events: none;"></g><g class="mark-text"><text text-anchor="end" transform="translate(13.5,9) rotate(270) translate(0,3)" style="font: 11px sans-serif; fill: #000; opacity: 1;">0</text><text text-anchor="end" transform="translate(38.5,9) rotate(270) translate(0,3)" style="font: 11px sans-serif; fill: #000; opacity: 1;">1</text><text text-anchor="end" transform="translate(63.5,9) rotate(270) translate(0,3)" style="font: 11px sans-serif; fill: #000; opacity: 1;">2</text><text text-anchor="end" transform="translate(88.5,9) rotate(270) translate(0,3)" style="font: 11px sans-serif; fill: #000; opacity: 1;">4</text></g><g class="mark-path" style="pointer-events: none;"><path transform="translate(0.5,0.5)" d="M0,6V0H100V6" style="fill: none; stroke: #000; stroke-width: 1;"></path></g><g class="mark-text"><text text-anchor="middle" transform="translate(50,33)" style="font: bold 11px sans-serif; fill: #000;">DaysToManufacture</text></g></g></g><g class="mark-group"><g transform="translate(0,0)"><rect class="background" width="0" height="0" style="pointer-events: none; fill: none;"></rect><g class="mark-rule" style="pointer-events: none;"><line transform="translate(0,200.5)" x2="100" y2="0" style="fill: none; stroke: #000; stroke-opacity: 0.15; opacity: 1;"></line><line transform="translate(0,182.5)" x2="100" y2="0" style="fill: none; stroke: #000; stroke-opacity: 0.15; opacity: 1;"></line><line transform="translate(0,164.5)" x2="100" y2="0" style="fill: none; stroke: #000; stroke-opacity: 0.15; opacity: 1;"></line><line transform="translate(0,145.5)" x2="100" y2="0" style="fill: none; stroke: #000; stroke-opacity: 0.15; opacity: 1;"></line><line transform="translate(0,127.5)" x2="100" y2="0" style="fill: none; stroke: #000; stroke-opacity: 0.15; opacity: 1;"></line><line transform="translate(0,109.5)" x2="100" y2="0" style="fill: none; stroke: #000; stroke-opacity: 0.15; opacity: 1;"></line><line transform="translate(0,91.5)" x2="100" y2="0" style="fill: none; stroke: #000; stroke-opacity: 0.15; opacity: 1;"></line><line transform="translate(0,73.5)" x2="100" y2="0" style="fill: none; stroke: #000; stroke-opacity: 0.15; opacity: 1;"></line><line transform="translate(0,55.5)" x2="100" y2="0" style="fill: none; stroke: #000; stroke-opacity: 0.15; opacity: 1;"></line><line transform="translate(0,36.5)" x2="100" y2="0" style="fill: none; stroke: #000; stroke-opacity: 0.15; opacity: 1;"></line><line transform="translate(0,18.5)" x2="100" y2="0" style="fill: none; stroke: #000; stroke-opacity: 0.15; opacity: 1;"></line><line transform="translate(0,0.5)" x2="100" y2="0" style="fill: none; stroke: #000; stroke-opacity: 0.15; opacity: 1;"></line></g><g class="mark-rule" style="pointer-events: none;"><line transform="translate(-6,200.5)" x2="6" y2="0" style="fill: none; stroke: #000; stroke-width: 1; opacity: 1;"></line><line transform="translate(-6,182.5)" x2="6" y2="0" style="fill: none; stroke: #000; stroke-width: 1; opacity: 1;"></line><line transform="translate(-6,164.5)" x2="6" y2="0" style="fill: none; stroke: #000; stroke-width: 1; opacity: 1;"></line><line transform="translate(-6,145.5)" x2="6" y2="0" style="fill: none; stroke: #000; stroke-width: 1; opacity: 1;"></line><line transform="translate(-6,127.5)" x2="6" y2="0" style="fill: none; stroke: #000; stroke-width: 1; opacity: 1;"></line><line transform="translate(-6,109.5)" x2="6" y2="0" style="fill: none; stroke: #000; stroke-width: 1; opacity: 1;"></line><line transform="translate(-6,91.5)" x2="6" y2="0" style="fill: none; stroke: #000; stroke-width: 1; opacity: 1;"></line><line transform="translate(-6,73.5)" x2="6" y2="0" style="fill: none; stroke: #000; stroke-width: 1; opacity: 1;"></line><line transform="translate(-6,55.5)" x2="6" y2="0" style="fill: none; stroke: #000; stroke-width: 1; opacity: 1;"></line><line transform="translate(-6,36.5)" x2="6" y2="0" style="fill: none; stroke: #000; stroke-width: 1; opacity: 1;"></line><line transform="translate(-6,18.5)" x2="6" y2="0" style="fill: none; stroke: #000; stroke-width: 1; opacity: 1;"></line><line transform="translate(-6,0.5)" x2="6" y2="0" style="fill: none; stroke: #000; stroke-width: 1; opacity: 1;"></line></g><g class="mark-rule" style="pointer-events: none;"></g><g class="mark-text"><text text-anchor="end" transform="translate(-9,203.5)" style="font: 11px sans-serif; fill: #000; opacity: 1;">0.0k</text><text text-anchor="end" transform="translate(-9,185.5)" style="font: 11px sans-serif; fill: #000; opacity: 1;">0.1k</text><text text-anchor="end" transform="translate(-9,167.5)" style="font: 11px sans-serif; fill: #000; opacity: 1;">0.2k</text><text text-anchor="end" transform="translate(-9,148.5)" style="font: 11px sans-serif; fill: #000; opacity: 1;">0.3k</text><text text-anchor="end" transform="translate(-9,130.5)" style="font: 11px sans-serif; fill: #000; opacity: 1;">0.4k</text><text text-anchor="end" transform="translate(-9,112.5)" style="font: 11px sans-serif; fill: #000; opacity: 1;">0.5k</text><text text-anchor="end" transform="translate(-9,94.5)" style="font: 11px sans-serif; fill: #000; opacity: 1;">0.6k</text><text text-anchor="end" transform="translate(-9,76.5)" style="font: 11px sans-serif; fill: #000; opacity: 1;">0.7k</text><text text-anchor="end" transform="translate(-9,58.5)" style="font: 11px sans-serif; fill: #000; opacity: 1;">0.8k</text><text text-anchor="end" transform="translate(-9,39.5)" style="font: 11px sans-serif; fill: #000; opacity: 1;">0.9k</text><text text-anchor="end" transform="translate(-9,21.5)" style="font: 11px sans-serif; fill: #000; opacity: 1;">1.0k</text><text text-anchor="end" transform="translate(-9,3.5)" style="font: 11px sans-serif; fill: #000; opacity: 1;">1.1k</text></g><g class="mark-path" style="pointer-events: none;"><path transform="translate(0.5,0.5)" d="M-6,0H0V200H-6" style="fill: none; stroke: #000; stroke-width: 1;"></path></g><g class="mark-text"><text text-anchor="middle" transform="translate(-45,100) rotate(-90) translate(0,3)" style="font: bold 11px sans-serif; fill: #000;">Weight</text></g></g></g><g class="mark-area marks"><path d="M88,197L88,197L88,195L88,195L88,197L88,197L88,197L88,197L88,197L88,197L88,197L88,197L88,197L88,197L88,196L88,196L88,196L88,197L88,197L88,196L88,196L88,196L88,196L88,197L88,197L88,196L88,196L88,196L88,196L88,196L88,196L88,196L88,196L88,196L88,196L88,196L88,196L88,196L88,196L88,196L88,195L88,195L88,195L88,195L88,197L88,197L88,197L88,197L88,196L88,197L88,197L88,196L88,197L88,197L88,197L88,197L88,197L88,195L88,195L88,195L88,195L88,195L88,195L88,195L88,195L88,195L88,195L88,195L88,195L88,195L88,195L88,195L88,195L88,195L88,195L88,195L88,195L88,195L88,195L88,195L88,195L88,195L88,195L88,197L88,197L88,197L88,197L88,196L88,195L88,195L88,195L88,195L88,195L88,195L88,195L88,195L88,196L63,199L63,199L63,200L63,200L63,200L63,200L63,200L38,142L38,199L38,200L38,200L38,200L38,200L38,200L38,200L38,200L38,199L38,199L38,199L38,199L38,199L38,199L38,199L38,199L38,199L38,161L38,199L38,199L38,199L38,199L38,199L38,199L38,199L38,199L38,199L38,199L38,199L38,199L38,142L38,199L38,199L38,199L38,199L38,199L38,199L38,199L38,199L38,160L38,161L38,166L38,166L38,169L38,173L38,200L38,200L38,200L38,184L38,200L38,91L38,85L38,95L38,200L38,200L38,200L38,200L38,199L38,199L38,199L38,200L38,199L38,199L38,199L38,199L38,169L38,169L38,159L38,200L38,200L38,200L38,200L38,200L38,200L38,200L38,200L38,200L38,200L38,200L38,200L38,200L38,200L38,200L38,200L38,36L38,45L38,82L38,200L38,9L38,18L38,38L38,200L38,199L13,118L13,116L13,127L13,118L13,119L13,127L13,121L13,200L13,200L13,200L13,200L13,200L13,200L13,200L38,200L38,200L38,200L38,200L38,200L38,200L38,200L38,200L38,200L38,200L38,200L38,200L38,200L38,200L38,200L38,200L38,200L38,200L38,200L38,200L38,200L38,200L38,200L38,200L38,200L38,200L38,200L38,200L38,200L38,200L38,200L38,200L38,200L38,200L38,200L38,200L38,200L38,200L38,200L38,200L38,200L38,200L38,200L38,200L38,200L38,200L38,200L38,200L38,200L38,200L38,200L38,200L38,200L38,200L38,200L38,200L38,200L38,200L38,200L38,200L38,200L38,200L38,200L38,200L38,200L38,200L38,200L38,200L38,200L38,200L38,200L38,200L38,200L38,200L38,200L38,200L38,200L38,200L38,200L38,200L38,200L38,200L38,200L38,200L38,200L38,200L38,200L38,200L38,200L38,200L38,200L38,200L38,200L38,200L63,200L63,200L63,200L63,200L63,200L63,200L63,200L88,200L88,200L88,200L88,200L88,200L88,200L88,200L88,200L88,200L88,200L88,200L88,200L88,200L88,200L88,200L88,200L88,200L88,200L88,200L88,200L88,200L88,200L88,200L88,200L88,200L88,200L88,200L88,200L88,200L88,200L88,200L88,200L88,200L88,200L88,200L88,200L88,200L88,200L88,200L88,200L88,200L88,200L88,200L88,200L88,200L88,200L88,200L88,200L88,200L88,200L88,200L88,200L88,200L88,200L88,200L88,200L88,200L88,200L88,200L88,200L88,200L88,200L88,200L88,200L88,200L88,200L88,200L88,200L88,200L88,200L88,200L88,200L88,200L88,200L88,200L88,200L88,200L88,200L88,200L88,200L88,200L88,200L88,200L88,200L88,200L88,200L88,200L88,200L88,200L88,200L88,200L88,200L88,200L88,200L88,200L88,200L88,200Z" style="fill: #4682b4; opacity: 0.7;"></path></g></g></g></g></g></g></svg>