<svg class="marks" width="328" height="308" version="1.1" xmlns="http://www.w3.org/2000/svg" xmlns:xlink="http://www.w3.org/1999/xlink"><g transform="translate(57,12)"><g class="mark-group"><g transform="translate(0,0)"><rect class="background" width="1" height="1" style="fill: none;"></rect><g class="mark-group root"><g transform="translate(0,0)"><rect class="background" width="264" height="255" style="fill: none;"></rect><g class="mark-group"><g transform="translate(0,255)"><rect class="background" width="0" height="0" style="pointer-events: none; fill: none;"></rect><g class="mark-rule" style="pointer-events: none;"></g><g class="mark-rule" style="pointer-events: none;"><line transform="translate(33.5,0)" x2="0" y2="6" style="fill: none; stroke: #000; stroke-width: 1; opacity: 1;"></line><line transform="translate(99.5,0)" x2="0" y2="6" style="fill: none; stroke: #000; stroke-width: 1; opacity: 1;"></line><line transform="translate(165.5,0)" x2="0" y2="6" style="fill: none; stroke: #000; stroke-width: 1; opacity: 1;"></line><line transform="translate(231.5,0)" x2="0" y2="6" style="fill: none; stroke: #000; stroke-width: 1; opacity: 1;"></line></g><g class="mark-rule" style="pointer-events: none;"></g><g class="mark-text"><text text-anchor="end" transform="translate(33.5,9) rotate(270) translate(0,3)" style="font: 11px sans-serif; fill: #000; opacity: 1;">0</text><text text-anchor="end" transform="translate(99.5,9) rotate(270) translate(0,3)" style="font: 11px sans-serif; fill: #000; opacity: 1;">1</text><text text-anchor="end" transform="translate(165.5,9) rotate(270) translate(0,3)" style="font: 11px sans-serif; fill: #000; opacity: 1;">2</text><text text-anchor="end" transform="translate(231.5,9) rotate(270) translate(0,3)" style="font: 11px sans-serif; fill: #000; opacity: 1;">4</text></g><g class="mark-path" style="pointer-events: none;"><path transform="translate(0.5,0.5)" d="M0,6V0H264V6" style="fill: none; stroke: #000; stroke-width: 1;"></path></g><g class="mark-text"><text text-anchor="middle" transform="translate(132,33)" style="font: bold 11px sans-serif; fill: #000;">DaysToManufacture</text></g></g></g><g class="mark-group"><g transform="translate(0,0)"><rect class="background" width="0" height="0" style="pointer-events: none; fill: none;"></rect><g class="mark-rule" style="pointer-events: none;"><line transform="translate(0,255.5)" x2="264" y2="0" style="fill: none; stroke: #000; stroke-opacity: 0.15; opacity: 1;"></line><line transform="translate(0,232.5)" x2="264" y2="0" style="fill: none; stroke: #000; stroke-opacity: 0.15; opacity: 1;"></line><line transform="translate(0,209.5)" x2="264" y2="0" style="fill: none; stroke: #000; stroke-opacity: 0.15; opacity: 1;"></line><line transform="translate(0,185.5)" x2="264" y2="0" style="fill: none; stroke: #000; stroke-opacity: 0.15; opacity: 1;"></line><line transform="translate(0,162.5)" x2="264" y2="0" style="fill: none; stroke: #000; stroke-opacity: 0.15; opacity: 1;"></line><line transform="translate(0,139.5)" x2="264" y2="0" style="fill: none; stroke: #000; stroke-opacity: 0.15; opacity: 1;"></line><line transform="translate(0,116.5)" x2="264" y2="0" style="fill: none; stroke: #000; stroke-opacity: 0.15; opacity: 1;"></line><line transform="translate(0,93.5)" x2="264" y2="0" style="fill: none; stroke: #000; stroke-opacity: 0.15; opacity: 1;"></line><line transform="translate(0,70.5)" x2="264" y2="0" style="fill: none; stroke: #000; stroke-opacity: 0.15; opacity: 1;"></line><line transform="translate(0,46.5)" x2="264" y2="0" style="fill: none; stroke: #000; stroke-opacity: 0.15; opacity: 1;"></line><line transform="translate(0,23.5)" x2="264" y2="0" style="fill: none; stroke: #000; stroke-opacity: 0.15; opacity: 1;"></line><line transform="translate(0,0.5)" x2="264" y2="0" style="fill: none; stroke: #000; stroke-opacity: 0.15; opacity: 1;"></line></g><g class="mark-rule" style="pointer-events: none;"><line transform="translate(-6,255.5)" x2="6" y2="0" style="fill: none; stroke: #000; stroke-width: 1; opacity: 1;"></line><line transform="translate(-6,232.5)" x2="6" y2="0" style="fill: none; stroke: #000; stroke-width: 1; opacity: 1;"></line><line transform="translate(-6,209.5)" x2="6" y2="0" style="fill: none; stroke: #000; stroke-width: 1; opacity: 1;"></line><line transform="translate(-6,185.5)" x2="6" y2="0" style="fill: none; stroke: #000; stroke-width: 1; opacity: 1;"></line><line transform="translate(-6,162.5)" x2="6" y2="0" style="fill: none; stroke: #000; stroke-width: 1; opacity: 1;"></line><line transform="translate(-6,139.5)" x2="6" y2="0" style="fill: none; stroke: #000; stroke-width: 1; opacity: 1;"></line><line transform="translate(-6,116.5)" x2="6" y2="0" style="fill: none; stroke: #000; stroke-width: 1; opacity: 1;"></line><line transform="translate(-6,93.5)" x2="6" y2="0" style="fill: none; stroke: #000; stroke-width: 1; opacity: 1;"></line><line transform="translate(-6,70.5)" x2="6" y2="0" style="fill: none; stroke: #000; stroke-width: 1; opacity: 1;"></line><line transform="translate(-6,46.5)" x2="6" y2="0" style="fill: none; stroke: #000; stroke-width: 1; opacity: 1;"></line><line transform="translate(-6,23.5)" x2="6" y2="0" style="fill: none; stroke: #000; stroke-width: 1; opacity: 1;"></line><line transform="translate(-6,0.5)" x2="6" y2="0" style="fill: none; stroke: #000; stroke-width: 1; opacity: 1;"></line></g><g class="mark-rule" style="pointer-events: none;"></g><g class="mark-text"><text text-anchor="end" transform="translate(-9,258.5)" style="font: 11px sans-serif; fill: #000; opacity: 1;">0.0k</text><text text-anchor="end" transform="translate(-9,235.5)" style="font: 11px sans-serif; fill: #000; opacity: 1;">0.1k</text><text text-anchor="end" transform="translate(-9,212.5)" style="font: 11px sans-serif; fill: #000; opacity: 1;">0.2k</text><text text-anchor="end" transform="translate(-9,188.5)" style="font: 11px sans-serif; fill: #000; opacity: 1;">0.3k</text><text text-anchor="end" transform="translate(-9,165.5)" style="font: 11px sans-serif; fill: #000; opacity: 1;">0.4k</text><text text-anchor="end" transform="translate(-9,142.5)" style="font: 11px sans-serif; fill: #000; opacity: 1;">0.5k</text><text text-anchor="end" transform="translate(-9,119.5)" style="font: 11px sans-serif; fill: #000; opacity: 1;">0.6k</text><text text-anchor="end" transform="translate(-9,96.5)" style="font: 11px sans-serif; fill: #000; opacity: 1;">0.7k</text><text text-anchor="end" transform="translate(-9,73.5)" style="font: 11px sans-serif; fill: #000; opacity: 1;">0.8k</text><text text-anchor="end" transform="translate(-9,49.5)" style="font: 11px sans-serif; fill: #000; opacity: 1;">0.9k</text><text text-anchor="end" transform="translate(-9,26.5)" style="font: 11px sans-serif; fill: #000; opacity: 1;">1.0k</text><text text-anchor="end" transform="translate(-9,3.5)" style="font: 11px sans-serif; fill: #000; opacity: 1;">1.1k</text></g><g class="mark-path" style="pointer-events: none;"><path transform="translate(0.5,0.5)" d="M-6,0H0V255H-6" style="fill: none; stroke: #000; stroke-width: 1;"></path></g><g class="mark-text"><text text-anchor="middle" transform="translate(-45,127) rotate(-90) translate(0,3)" style="font: bold 11px sans-serif; fill: #000;">Weight</text></g></g></g><g class="mark-area marks"><path d="M231,252L231,251L231,248L231,249L231,252L231,252L231,252L231,252L231,252L231,251L231,251L231,251L231,251L231,251L231,250L231,250L231,250L231,251L231,251L231,250L231,250L231,250L231,250L231,251L231,251L231,250L231,250L231,250L231,250L231,250L231,250L231,250L231,250L231,250L231,250L231,249L231,249L231,250L231,249L231,249L231,249L231,249L231,249L231,249L231,252L231,251L231,251L231,251L231,250L231,251L231,251L231,250L231,251L231,251L231,251L231,251L231,251L231,249L231,248L231,248L231,248L231,248L231,249L231,249L231,249L231,249L231,249L231,249L231,248L231,248L231,248L231,248L231,248L231,248L231,248L231,248L231,249L231,249L231,249L231,249L231,249L231,249L231,249L231,251L231,251L231,251L231,251L231,250L231,248L231,248L231,249L231,249L231,249L231,249L231,249L231,248L231,250L165,254L165,254L165,254L165,254L165,254L165,254L165,254L99,182L99,254L99,254L99,254L99,254L99,254L99,255L99,254L99,254L99,254L99,254L99,254L99,254L99,254L99,254L99,254L99,254L99,254L99,205L99,254L99,254L99,254L99,254L99,254L99,254L99,254L99,254L99,254L99,254L99,254L99,254L99,182L99,254L99,254L99,254L99,254L99,254L99,254L99,254L99,254L99,204L99,205L99,212L99,211L99,216L99,220L99,254L99,254L99,254L99,235L99,254L99,116L99,108L99,122L99,254L99,254L99,254L99,254L99,254L99,254L99,254L99,254L99,254L99,254L99,254L99,254L99,216L99,216L99,203L99,254L99,254L99,254L99,255L99,254L99,254L99,254L99,254L99,254L99,254L99,254L99,254L99,254L99,254L99,254L99,254L99,46L99,58L99,104L99,254L99,12L99,23L99,49L99,254L99,254L33,151L33,148L33,162L33,151L33,152L33,162L33,154L33,255L33,255L33,255L33,255L33,255L33,255L33,255L99,255L99,255L99,255L99,255L99,255L99,255L99,255L99,255L99,255L99,255L99,255L99,255L99,255L99,255L99,255L99,255L99,255L99,255L99,255L99,255L99,255L99,255L99,255L99,255L99,255L99,255L99,255L99,255L99,255L99,255L99,255L99,255L99,255L99,255L99,255L99,255L99,255L99,255L99,255L99,255L99,255L99,255L99,255L99,255L99,255L99,255L99,255L99,255L99,255L99,255L99,255L99,255L99,255L99,255L99,255L99,255L99,255L99,255L99,255L99,255L99,255L99,255L99,255L99,255L99,255L99,255L99,255L99,255L99,255L99,255L99,255L99,255L99,255L99,255L99,255L99,255L99,255L99,255L99,255L99,255L99,255L99,255L99,255L99,255L99,255L99,255L99,255L99,255L99,255L99,255L99,255L99,255L99,255L99,255L165,255L165,255L165,255L165,255L165,255L165,255L165,255L231,255L231,255L231,255L231,255L231,255L231,255L231,255L231,255L231,255L231,255L231,255L231,255L231,255L231,255L231,255L231,255L231,255L231,255L231,255L231,255L231,255L231,255L231,255L231,255L231,255L231,255L231,255L231,255L231,255L231,255L231,255L231,255L231,255L231,255L231,255L231,255L231,255L231,255L231,255L231,255L231,255L231,255L231,255L231,255L231,255L231,255L231,255L231,255L231,255L231,255L231,255L231,255L231,255L231,255L231,255L231,255L231,255L231,255L231,255L231,255L231,255L231,255L231,255L231,255L231,255L231,255L231,255L231,255L231,255L231,255L231,255L231,255L231,255L231,255L231,255L231,255L231,255L231,255L231,255L231,255L231,255L231,255L231,255L231,255L231,255L231,255L231,255L231,255L231,255L231,255L231,255L231,255L231,255L231,255L231,255L231,255L231,255Z" style="fill: #4682b4; opacity: 0.7;"></path></g></g></g></g></g></g></svg>