<svg class="marks" width="272" height="255" version="1.1" xmlns="http://www.w3.org/2000/svg" xmlns:xlink="http://www.w3.org/1999/xlink"><g transform="translate(58,12)"><g class="mark-group"><g transform="translate(0,0)"><rect class="background" width="1" height="1" style="fill: none;"></rect><g class="mark-group root"><g transform="translate(0,0)"><rect class="background" width="200" height="200" style="fill: none;"></rect><g class="mark-group"><g transform="translate(0,200)"><rect class="background" width="0" height="0" style="pointer-events: none; fill: none;"></rect><g class="mark-rule" style="pointer-events: none;"><line transform="translate(0.5,-200)" x2="0" y2="200" style="fill: none; stroke: #000; stroke-opacity: 0.15; opacity: 1;"></line><line transform="translate(40.5,-200)" x2="0" y2="200" style="fill: none; stroke: #000; stroke-opacity: 0.15; opacity: 1;"></line><line transform="translate(80.5,-200)" x2="0" y2="200" style="fill: none; stroke: #000; stroke-opacity: 0.15; opacity: 1;"></line><line transform="translate(120.5,-200)" x2="0" y2="200" style="fill: none; stroke: #000; stroke-opacity: 0.15; opacity: 1;"></line><line transform="translate(160.5,-200)" x2="0" y2="200" style="fill: none; stroke: #000; stroke-opacity: 0.15; opacity: 1;"></line><line transform="translate(200.5,-200)" x2="0" y2="200" style="fill: none; stroke: #000; stroke-opacity: 0.15; opacity: 1;"></line></g><g class="mark-rule" style="pointer-events: none;"><line transform="translate(0.5,0)" x2="0" y2="6" style="fill: none; stroke: #000; stroke-width: 1; opacity: 1;"></line><line transform="translate(40.5,0)" x2="0" y2="6" style="fill: none; stroke: #000; stroke-width: 1; opacity: 1;"></line><line transform="translate(80.5,0)" x2="0" y2="6" style="fill: none; stroke: #000; stroke-width: 1; opacity: 1;"></line><line transform="translate(120.5,0)" x2="0" y2="6" style="fill: none; stroke: #000; stroke-width: 1; opacity: 1;"></line><line transform="translate(160.5,0)" x2="0" y2="6" style="fill: none; stroke: #000; stroke-width: 1; opacity: 1;"></line><line transform="translate(200.5,0)" x2="0" y2="6" style="fill: none; stroke: #000; stroke-width: 1; opacity: 1;"></line></g><g class="mark-rule" style="pointer-events: none;"></g><g class="mark-text"><text text-anchor="middle" transform="translate(0.5,19)" style="font: 11px sans-serif; fill: #000; opacity: 1;">0</text><text text-anchor="middle" transform="translate(40.5,19)" style="font: 11px sans-serif; fill: #000; opacity: 1;">10</text><text text-anchor="middle" transform="translate(80.5,19)" style="font: 11px sans-serif; fill: #000; opacity: 1;">20</text><text text-anchor="middle" transform="translate(120.5,19)" style="font: 11px sans-serif; fill: #000; opacity: 1;">30</text><text text-anchor="middle" transform="translate(160.5,19)" style="font: 11px sans-serif; fill: #000; opacity: 1;">40</text><text text-anchor="middle" transform="translate(200.5,19)" style="font: 11px sans-serif; fill: #000; opacity: 1;">50</text></g><g class="mark-path" style="pointer-events: none;"><path transform="translate(0.5,0.5)" d="M0,6V0H200V6" style="fill: none; stroke: #000; stroke-width: 1;"></path></g><g class="mark-text"><text text-anchor="middle" transform="translate(100,35)" style="font: bold 11px sans-serif; fill: #000;">MPG</text></g></g></g><g class="mark-group"><g transform="translate(0,0)"><rect class="background" width="0" height="0" style="pointer-events: none; fill: none;"></rect><g class="mark-rule" style="pointer-events: none;"><line transform="translate(0,200.5)" x2="200" y2="0" style="fill: none; stroke: #000; stroke-opacity: 0.15; opacity: 1;"></line><line transform="translate(0,182.5)" x2="200" y2="0" style="fill: none; stroke: #000; stroke-opacity: 0.15; opacity: 1;"></line><line transform="translate(0,164.5)" x2="200" y2="0" style="fill: none; stroke: #000; stroke-opacity: 0.15; opacity: 1;"></line><line transform="translate(0,145.5)" x2="200" y2="0" style="fill: none; stroke: #000; stroke-opacity: 0.15; opacity: 1;"></line><line transform="translate(0,127.5)" x2="200" y2="0" style="fill: none; stroke: #000; stroke-opacity: 0.15; opacity: 1;"></line><line transform="translate(0,109.5)" x2="200" y2="0" style="fill: none; stroke: #000; stroke-opacity: 0.15; opacity: 1;"></line><line transform="translate(0,91.5)" x2="200" y2="0" style="fill: none; stroke: #000; stroke-opacity: 0.15; opacity: 1;"></line><line transform="translate(0,73.5)" x2="200" y2="0" style="fill: none; stroke: #000; stroke-opacity: 0.15; opacity: 1;"></line><line transform="translate(0,55.5)" x2="200" y2="0" style="fill: none; stroke: #000; stroke-opacity: 0.15; opacity: 1;"></line><line transform="translate(0,36.5)" x2="200" y2="0" style="fill: none; stroke: #000; stroke-opacity: 0.15; opacity: 1;"></line><line transform="translate(0,18.5)" x2="200" y2="0" style="fill: none; stroke: #000; stroke-opacity: 0.15; opacity: 1;"></line><line transform="translate(0,0.5)" x2="200" y2="0" style="fill: none; stroke: #000; stroke-opacity: 0.15; opacity: 1;"></line></g><g class="mark-rule" style="pointer-events: none;"><line transform="translate(-6,200.5)" x2="6" y2="0" style="fill: none; stroke: #000; stroke-width: 1; opacity: 1;"></line><line transform="translate(-6,182.5)" x2="6" y2="0" style="fill: none; stroke: #000; stroke-width: 1; opacity: 1;"></line><line transform="translate(-6,164.5)" x2="6" y2="0" style="fill: none; stroke: #000; stroke-width: 1; opacity: 1;"></line><line transform="translate(-6,145.5)" x2="6" y2="0" style="fill: none; stroke: #000; stroke-width: 1; opacity: 1;"></line><line transform="translate(-6,127.5)" x2="6" y2="0" style="fill: none; stroke: #000; stroke-width: 1; opacity: 1;"></line><line transform="translate(-6,109.5)" x2="6" y2="0" style="fill: none; stroke: #000; stroke-width: 1; opacity: 1;"></line><line transform="translate(-6,91.5)" x2="6" y2="0" style="fill: none; stroke: #000; stroke-width: 1; opacity: 1;"></line><line transform="translate(-6,73.5)" x2="6" y2="0" style="fill: none; stroke: #000; stroke-width: 1; opacity: 1;"></line><line transform="translate(-6,55.5)" x2="6" y2="0" style="fill: none; stroke: #000; stroke-width: 1; opacity: 1;"></line><line transform="translate(-6,36.5)" x2="6" y2="0" style="fill: none; stroke: #000; stroke-width: 1; opacity: 1;"></line><line transform="translate(-6,18.5)" x2="6" y2="0" style="fill: none; stroke: #000; stroke-width: 1; opacity: 1;"></line><line transform="translate(-6,0.5)" x2="6" y2="0" style="fill: none; stroke: #000; stroke-width: 1; opacity: 1;"></line></g><g class="mark-rule" style="pointer-events: none;"></g><g class="mark-text"><text text-anchor="end" transform="translate(-9,203.5)" style="font: 11px sans-serif; fill: #000; opacity: 1;">0.0k</text><text text-anchor="end" transform="translate(-9,185.5)" style="font: 11px sans-serif; fill: #000; opacity: 1;">0.1k</text><text text-anchor="end" transform="translate(-9,167.5)" style="font: 11px sans-serif; fill: #000; opacity: 1;">0.2k</text><text text-anchor="end" transform="translate(-9,148.5)" style="font: 11px sans-serif; fill: #000; opacity: 1;">0.3k</text><text text-anchor="end" transform="translate(-9,130.5)" style="font: 11px sans-serif; fill: #000; opacity: 1;">0.4k</text><text text-anchor="end" transform="translate(-9,112.5)" style="font: 11px sans-serif; fill: #000; opacity: 1;">0.5k</text><text text-anchor="end" transform="translate(-9,94.5)" style="font: 11px sans-serif; fill: #000; opacity: 1;">0.6k</text><text text-anchor="end" transform="translate(-9,76.5)" style="font: 11px sans-serif; fill: #000; opacity: 1;">0.7k</text><text text-anchor="end" transform="translate(-9,58.5)" style="font: 11px sans-serif; fill: #000; opacity: 1;">0.8k</text><text text-anchor="end" transform="translate(-9,39.5)" style="font: 11px sans-serif; fill: #000; opacity: 1;">0.9k</text><text text-anchor="end" transform="translate(-9,21.5)" style="font: 11px sans-serif; fill: #000; opacity: 1;">1.0k</text><text text-anchor="end" transform="translate(-9,3.5)" style="font: 11px sans-serif; fill: #000; opacity: 1;">1.1k</text></g><g class="mark-path" style="pointer-events: none;"><path transform="translate(0.5,0.5)" d="M-6,0H0V200H-6" style="fill: none; stroke: #000; stroke-width: 1;"></path></g><g class="mark-text"><text text-anchor="middle" transform="translate(-45,100) rotate(-90) translate(0,3)" style="font: bold 11px sans-serif; fill: #000;">Dow Jones Indstrial Average</text></g></g></g><g class="mark-symbol marks"><path transform="translate(124,26)" d="M0,3.0901936161855166A3.0901936161855166,3.0901936161855166 0 1,1 0,-3.0901936161855166A3.0901936161855166,3.0901936161855166 0 1,1 0,3.0901936161855166Z" style="fill: transparent; stroke: #4682b4; stroke-width: 2; opacity: 0.7;"></path><path transform="translate(140,26)" d="M0,3.0901936161855166A3.0901936161855166,3.0901936161855166 0 1,1 0,-3.0901936161855166A3.0901936161855166,3.0901936161855166 0 1,1 0,3.0901936161855166Z" style="fill: transparent; stroke: #4682b4; stroke-width: 2; opacity: 0.7;"></path><path transform="translate(124,36)" d="M0,3.0901936161855166A3.0901936161855166,3.0901936161855166 0 1,1 0,-3.0901936161855166A3.0901936161855166,3.0901936161855166 0 1,1 0,3.0901936161855166Z" style="fill: transparent; stroke: #4682b4; stroke-width: 2; opacity: 0.7;"></path><path transform="translate(128,36)" d="M0,3.0901936161855166A3.0901936161855166,3.0901936161855166 0 1,1 0,-3.0901936161855166A3.0901936161855166,3.0901936161855166 0 1,1 0,3.0901936161855166Z" style="fill: transparent; stroke: #4682b4; stroke-width: 2; opacity: 0.7;"></path><path transform="translate(124,36)" d="M0,3.0901936161855166A3.0901936161855166,3.0901936161855166 0 1,1 0,-3.0901936161855166A3.0901936161855166,3.0901936161855166 0 1,1 0,3.0901936161855166Z" style="fill: transparent; stroke: #4682b4; stroke-width: 2; opacity: 0.7;"></path><path transform="translate(128,36)" d="M0,3.0901936161855166A3.0901936161855166,3.0901936161855166 0 1,1 0,-3.0901936161855166A3.0901936161855166,3.0901936161855166 0 1,1 0,3.0901936161855166Z" style="fill: transparent; stroke: #4682b4; stroke-width: 2; opacity: 0.7;"></path><path transform="translate(124,36)" d="M0,3.0901936161855166A3.0901936161855166,3.0901936161855166 0 1,1 0,-3.0901936161855166A3.0901936161855166,3.0901936161855166 0 1,1 0,3.0901936161855166Z" style="fill: transparent; stroke: #4682b4; stroke-width: 2; opacity: 0.7;"></path><path transform="translate(132,38)" d="M0,3.0901936161855166A3.0901936161855166,3.0901936161855166 0 1,1 0,-3.0901936161855166A3.0901936161855166,3.0901936161855166 0 1,1 0,3.0901936161855166Z" style="fill: transparent; stroke: #4682b4; stroke-width: 2; opacity: 0.7;"></path><path transform="translate(132,13)" d="M0,3.0901936161855166A3.0901936161855166,3.0901936161855166 0 1,1 0,-3.0901936161855166A3.0901936161855166,3.0901936161855166 0 1,1 0,3.0901936161855166Z" style="fill: transparent; stroke: #4682b4; stroke-width: 2; opacity: 0.7;"></path><path transform="translate(128,13)" d="M0,3.0901936161855166A3.0901936161855166,3.0901936161855166 0 1,1 0,-3.0901936161855166A3.0901936161855166,3.0901936161855166 0 1,1 0,3.0901936161855166Z" style="fill: transparent; stroke: #4682b4; stroke-width: 2; opacity: 0.7;"></path><path transform="translate(126,17)" d="M0,3.0901936161855166A3.0901936161855166,3.0901936161855166 0 1,1 0,-3.0901936161855166A3.0901936161855166,3.0901936161855166 0 1,1 0,3.0901936161855166Z" style="fill: transparent; stroke: #4682b4; stroke-width: 2; opacity: 0.7;"></path><path transform="translate(144,17)" d="M0,3.0901936161855166A3.0901936161855166,3.0901936161855166 0 1,1 0,-3.0901936161855166A3.0901936161855166,3.0901936161855166 0 1,1 0,3.0901936161855166Z" style="fill: transparent; stroke: #4682b4; stroke-width: 2; opacity: 0.7;"></path><path transform="translate(134,17)" d="M0,3.0901936161855166A3.0901936161855166,3.0901936161855166 0 1,1 0,-3.0901936161855166A3.0901936161855166,3.0901936161855166 0 1,1 0,3.0901936161855166Z" style="fill: transparent; stroke: #4682b4; stroke-width: 2; opacity: 0.7;"></path><path transform="translate(122,17)" d="M0,3.0901936161855166A3.0901936161855166,3.0901936161855166 0 1,1 0,-3.0901936161855166A3.0901936161855166,3.0901936161855166 0 1,1 0,3.0901936161855166Z" style="fill: transparent; stroke: #4682b4; stroke-width: 2; opacity: 0.7;"></path><path transform="translate(134,17)" d="M0,3.0901936161855166A3.0901936161855166,3.0901936161855166 0 1,1 0,-3.0901936161855166A3.0901936161855166,3.0901936161855166 0 1,1 0,3.0901936161855166Z" style="fill: transparent; stroke: #4682b4; stroke-width: 2; opacity: 0.7;"></path><path transform="translate(122,17)" d="M0,3.0901936161855166A3.0901936161855166,3.0901936161855166 0 1,1 0,-3.0901936161855166A3.0901936161855166,3.0901936161855166 0 1,1 0,3.0901936161855166Z" style="fill: transparent; stroke: #4682b4; stroke-width: 2; opacity: 0.7;"></path><path transform="translate(172,33)" d="M0,3.0901936161855166A3.0901936161855166,3.0901936161855166 0 1,1 0,-3.0901936161855166A3.0901936161855166,3.0901936161855166 0 1,1 0,3.0901936161855166Z" style="fill: transparent; stroke: #4682b4; stroke-width: 2; opacity: 0.7;"></path><path transform="translate(144,33)" d="M0,3.0901936161855166A3.0901936161855166,3.0901936161855166 0 1,1 0,-3.0901936161855166A3.0901936161855166,3.0901936161855166 0 1,1 0,3.0901936161855166Z" style="fill: transparent; stroke: #4682b4; stroke-width: 2; opacity: 0.7;"></path><path transform="translate(131,33)" d="M0,3.0901936161855166A3.0901936161855166,3.0901936161855166 0 1,1 0,-3.0901936161855166A3.0901936161855166,3.0901936161855166 0 1,1 0,3.0901936161855166Z" style="fill: transparent; stroke: #4682b4; stroke-width: 2; opacity: 0.7;"></path><path transform="translate(158,33)" d="M0,3.0901936161855166A3.0901936161855166,3.0901936161855166 0 1,1 0,-3.0901936161855166A3.0901936161855166,3.0901936161855166 0 1,1 0,3.0901936161855166Z" style="fill: transparent; stroke: #4682b4; stroke-width: 2; opacity: 0.7;"></path><path transform="translate(144,33)" d="M0,3.0901936161855166A3.0901936161855166,3.0901936161855166 0 1,1 0,-3.0901936161855166A3.0901936161855166,3.0901936161855166 0 1,1 0,3.0901936161855166Z" style="fill: transparent; stroke: #4682b4; stroke-width: 2; opacity: 0.7;"></path><path transform="translate(124,33)" d="M0,3.0901936161855166A3.0901936161855166,3.0901936161855166 0 1,1 0,-3.0901936161855166A3.0901936161855166,3.0901936161855166 0 1,1 0,3.0901936161855166Z" style="fill: transparent; stroke: #4682b4; stroke-width: 2; opacity: 0.7;"></path><path transform="translate(126,33)" d="M0,3.0901936161855166A3.0901936161855166,3.0901936161855166 0 1,1 0,-3.0901936161855166A3.0901936161855166,3.0901936161855166 0 1,1 0,3.0901936161855166Z" style="fill: transparent; stroke: #4682b4; stroke-width: 2; opacity: 0.7;"></path><path transform="translate(128,35)" d="M0,3.0901936161855166A3.0901936161855166,3.0901936161855166 0 1,1 0,-3.0901936161855166A3.0901936161855166,3.0901936161855166 0 1,1 0,3.0901936161855166Z" style="fill: transparent; stroke: #4682b4; stroke-width: 2; opacity: 0.7;"></path><path transform="translate(136,35)" d="M0,3.0901936161855166A3.0901936161855166,3.0901936161855166 0 1,1 0,-3.0901936161855166A3.0901936161855166,3.0901936161855166 0 1,1 0,3.0901936161855166Z" style="fill: transparent; stroke: #4682b4; stroke-width: 2; opacity: 0.7;"></path><path transform="translate(143,35)" d="M0,3.0901936161855166A3.0901936161855166,3.0901936161855166 0 1,1 0,-3.0901936161855166A3.0901936161855166,3.0901936161855166 0 1,1 0,3.0901936161855166Z" style="fill: transparent; stroke: #4682b4; stroke-width: 2; opacity: 0.7;"></path><path transform="translate(137,35)" d="M0,3.0901936161855166A3.0901936161855166,3.0901936161855166 0 1,1 0,-3.0901936161855166A3.0901936161855166,3.0901936161855166 0 1,1 0,3.0901936161855166Z" style="fill: transparent; stroke: #4682b4; stroke-width: 2; opacity: 0.7;"></path><path transform="translate(138,35)" d="M0,3.0901936161855166A3.0901936161855166,3.0901936161855166 0 1,1 0,-3.0901936161855166A3.0901936161855166,3.0901936161855166 0 1,1 0,3.0901936161855166Z" style="fill: transparent; stroke: #4682b4; stroke-width: 2; opacity: 0.7;"></path><path transform="translate(127,35)" d="M0,3.0901936161855166A3.0901936161855166,3.0901936161855166 0 1,1 0,-3.0901936161855166A3.0901936161855166,3.0901936161855166 0 1,1 0,3.0901936161855166Z" style="fill: transparent; stroke: #4682b4; stroke-width: 2; opacity: 0.7;"></path><path transform="translate(149,35)" d="M0,3.0901936161855166A3.0901936161855166,3.0901936161855166 0 1,1 0,-3.0901936161855166A3.0901936161855166,3.0901936161855166 0 1,1 0,3.0901936161855166Z" style="fill: transparent; stroke: #4682b4; stroke-width: 2; opacity: 0.7;"></path><path transform="translate(134,35)" d="M0,3.0901936161855166A3.0901936161855166,3.0901936161855166 0 1,1 0,-3.0901936161855166A3.0901936161855166,3.0901936161855166 0 1,1 0,3.0901936161855166Z" style="fill: transparent; stroke: #4682b4; stroke-width: 2; opacity: 0.7;"></path><path transform="translate(166,16)" d="M0,3.0901936161855166A3.0901936161855166,3.0901936161855166 0 1,1 0,-3.0901936161855166A3.0901936161855166,3.0901936161855166 0 1,1 0,3.0901936161855166Z" style="fill: transparent; stroke: #4682b4; stroke-width: 2; opacity: 0.7;"></path><path transform="translate(152,16)" d="M0,3.0901936161855166A3.0901936161855166,3.0901936161855166 0 1,1 0,-3.0901936161855166A3.0901936161855166,3.0901936161855166 0 1,1 0,3.0901936161855166Z" style="fill: transparent; stroke: #4682b4; stroke-width: 2; opacity: 0.7;"></path><path transform="translate(128,16)" d="M0,3.0901936161855166A3.0901936161855166,3.0901936161855166 0 1,1 0,-3.0901936161855166A3.0901936161855166,3.0901936161855166 0 1,1 0,3.0901936161855166Z" style="fill: transparent; stroke: #4682b4; stroke-width: 2; opacity: 0.7;"></path><path transform="translate(149,16)" d="M0,3.0901936161855166A3.0901936161855166,3.0901936161855166 0 1,1 0,-3.0901936161855166A3.0901936161855166,3.0901936161855166 0 1,1 0,3.0901936161855166Z" style="fill: transparent; stroke: #4682b4; stroke-width: 2; opacity: 0.7;"></path><path transform="translate(137,16)" d="M0,3.0901936161855166A3.0901936161855166,3.0901936161855166 0 1,1 0,-3.0901936161855166A3.0901936161855166,3.0901936161855166 0 1,1 0,3.0901936161855166Z" style="fill: transparent; stroke: #4682b4; stroke-width: 2; opacity: 0.7;"></path><path transform="translate(125,16)" d="M0,3.0901936161855166A3.0901936161855166,3.0901936161855166 0 1,1 0,-3.0901936161855166A3.0901936161855166,3.0901936161855166 0 1,1 0,3.0901936161855166Z" style="fill: transparent; stroke: #4682b4; stroke-width: 2; opacity: 0.7;"></path><path transform="translate(148,16)" d="M0,3.0901936161855166A3.0901936161855166,3.0901936161855166 0 1,1 0,-3.0901936161855166A3.0901936161855166,3.0901936161855166 0 1,1 0,3.0901936161855166Z" style="fill: transparent; stroke: #4682b4; stroke-width: 2; opacity: 0.7;"></path><path transform="translate(129,16)" d="M0,3.0901936161855166A3.0901936161855166,3.0901936161855166 0 1,1 0,-3.0901936161855166A3.0901936161855166,3.0901936161855166 0 1,1 0,3.0901936161855166Z" style="fill: transparent; stroke: #4682b4; stroke-width: 2; opacity: 0.7;"></path><path transform="translate(186,16)" d="M0,3.0901936161855166A3.0901936161855166,3.0901936161855166 0 1,1 0,-3.0901936161855166A3.0901936161855166,3.0901936161855166 0 1,1 0,3.0901936161855166Z" style="fill: transparent; stroke: #4682b4; stroke-width: 2; opacity: 0.7;"></path><path transform="translate(163,16)" d="M0,3.0901936161855166A3.0901936161855166,3.0901936161855166 0 1,1 0,-3.0901936161855166A3.0901936161855166,3.0901936161855166 0 1,1 0,3.0901936161855166Z" style="fill: transparent; stroke: #4682b4; stroke-width: 2; opacity: 0.7;"></path><path transform="translate(177,16)" d="M0,3.0901936161855166A3.0901936161855166,3.0901936161855166 0 1,1 0,-3.0901936161855166A3.0901936161855166,3.0901936161855166 0 1,1 0,3.0901936161855166Z" style="fill: transparent; stroke: #4682b4; stroke-width: 2; opacity: 0.7;"></path><path transform="translate(174,16)" d="M0,3.0901936161855166A3.0901936161855166,3.0901936161855166 0 1,1 0,-3.0901936161855166A3.0901936161855166,3.0901936161855166 0 1,1 0,3.0901936161855166Z" style="fill: transparent; stroke: #4682b4; stroke-width: 2; opacity: 0.7;"></path><path transform="translate(146,16)" d="M0,3.0901936161855166A3.0901936161855166,3.0901936161855166 0 1,1 0,-3.0901936161855166A3.0901936161855166,3.0901936161855166 0 1,1 0,3.0901936161855166Z" style="fill: transparent; stroke: #4682b4; stroke-width: 2; opacity: 0.7;"></path><path transform="translate(178,16)" d="M0,3.0901936161855166A3.0901936161855166,3.0901936161855166 0 1,1 0,-3.0901936161855166A3.0901936161855166,3.0901936161855166 0 1,1 0,3.0901936161855166Z" style="fill: transparent; stroke: #4682b4; stroke-width: 2; opacity: 0.7;"></path><path transform="translate(164,16)" d="M0,3.0901936161855166A3.0901936161855166,3.0901936161855166 0 1,1 0,-3.0901936161855166A3.0901936161855166,3.0901936161855166 0 1,1 0,3.0901936161855166Z" style="fill: transparent; stroke: #4682b4; stroke-width: 2; opacity: 0.7;"></path><path transform="translate(135,16)" d="M0,3.0901936161855166A3.0901936161855166,3.0901936161855166 0 1,1 0,-3.0901936161855166A3.0901936161855166,3.0901936161855166 0 1,1 0,3.0901936161855166Z" style="fill: transparent; stroke: #4682b4; stroke-width: 2; opacity: 0.7;"></path><path transform="translate(131,16)" d="M0,3.0901936161855166A3.0901936161855166,3.0901936161855166 0 1,1 0,-3.0901936161855166A3.0901936161855166,3.0901936161855166 0 1,1 0,3.0901936161855166Z" style="fill: transparent; stroke: #4682b4; stroke-width: 2; opacity: 0.7;"></path><path transform="translate(140,16)" d="M0,3.0901936161855166A3.0901936161855166,3.0901936161855166 0 1,1 0,-3.0901936161855166A3.0901936161855166,3.0901936161855166 0 1,1 0,3.0901936161855166Z" style="fill: transparent; stroke: #4682b4; stroke-width: 2; opacity: 0.7;"></path><path transform="translate(130,16)" d="M0,3.0901936161855166A3.0901936161855166,3.0901936161855166 0 1,1 0,-3.0901936161855166A3.0901936161855166,3.0901936161855166 0 1,1 0,3.0901936161855166Z" style="fill: transparent; stroke: #4682b4; stroke-width: 2; opacity: 0.7;"></path><path transform="translate(156,4)" d="M0,3.0901936161855166A3.0901936161855166,3.0901936161855166 0 1,1 0,-3.0901936161855166A3.0901936161855166,3.0901936161855166 0 1,1 0,3.0901936161855166Z" style="fill: transparent; stroke: #4682b4; stroke-width: 2; opacity: 0.7;"></path><path transform="translate(156,4)" d="M0,3.0901936161855166A3.0901936161855166,3.0901936161855166 0 1,1 0,-3.0901936161855166A3.0901936161855166,3.0901936161855166 0 1,1 0,3.0901936161855166Z" style="fill: transparent; stroke: #4682b4; stroke-width: 2; opacity: 0.7;"></path><path transform="translate(140,4)" d="M0,3.0901936161855166A3.0901936161855166,3.0901936161855166 0 1,1 0,-3.0901936161855166A3.0901936161855166,3.0901936161855166 0 1,1 0,3.0901936161855166Z" style="fill: transparent; stroke: #4682b4; stroke-width: 2; opacity: 0.7;"></path><path transform="translate(129,4)" d="M0,3.0901936161855166A3.0901936161855166,3.0901936161855166 0 1,1 0,-3.0901936161855166A3.0901936161855166,3.0901936161855166 0 1,1 0,3.0901936161855166Z" style="fill: transparent; stroke: #4682b4; stroke-width: 2; opacity: 0.7;"></path><path transform="translate(148,4)" d="M0,3.0901936161855166A3.0901936161855166,3.0901936161855166 0 1,1 0,-3.0901936161855166A3.0901936161855166,3.0901936161855166 0 1,1 0,3.0901936161855166Z" style="fill: transparent; stroke: #4682b4; stroke-width: 2; opacity: 0.7;"></path><path transform="translate(151,4)" d="M0,3.0901936161855166A3.0901936161855166,3.0901936161855166 0 1,1 0,-3.0901936161855166A3.0901936161855166,3.0901936161855166 0 1,1 0,3.0901936161855166Z" style="fill: transparent; stroke: #4682b4; stroke-width: 2; opacity: 0.7;"></path><path transform="translate(136,4)" d="M0,3.0901936161855166A3.0901936161855166,3.0901936161855166 0 1,1 0,-3.0901936161855166A3.0901936161855166,3.0901936161855166 0 1,1 0,3.0901936161855166Z" style="fill: transparent; stroke: #4682b4; stroke-width: 2; opacity: 0.7;"></path><path transform="translate(139,4)" d="M0,3.0901936161855166A3.0901936161855166,3.0901936161855166 0 1,1 0,-3.0901936161855166A3.0901936161855166,3.0901936161855166 0 1,1 0,3.0901936161855166Z" style="fill: transparent; stroke: #4682b4; stroke-width: 2; opacity: 0.7;"></path><path transform="translate(138,4)" d="M0,3.0901936161855166A3.0901936161855166,3.0901936161855166 0 1,1 0,-3.0901936161855166A3.0901936161855166,3.0901936161855166 0 1,1 0,3.0901936161855166Z" style="fill: transparent; stroke: #4682b4; stroke-width: 2; opacity: 0.7;"></path><path transform="translate(132,4)" d="M0,3.0901936161855166A3.0901936161855166,3.0901936161855166 0 1,1 0,-3.0901936161855166A3.0901936161855166,3.0901936161855166 0 1,1 0,3.0901936161855166Z" style="fill: transparent; stroke: #4682b4; stroke-width: 2; opacity: 0.7;"></path><path transform="translate(138,4)" d="M0,3.0901936161855166A3.0901936161855166,3.0901936161855166 0 1,1 0,-3.0901936161855166A3.0901936161855166,3.0901936161855166 0 1,1 0,3.0901936161855166Z" style="fill: transparent; stroke: #4682b4; stroke-width: 2; opacity: 0.7;"></path><path transform="translate(135,4)" d="M0,3.0901936161855166A3.0901936161855166,3.0901936161855166 0 1,1 0,-3.0901936161855166A3.0901936161855166,3.0901936161855166 0 1,1 0,3.0901936161855166Z" style="fill: transparent; stroke: #4682b4; stroke-width: 2; opacity: 0.7;"></path><path transform="translate(130,4)" d="M0,3.0901936161855166A3.0901936161855166,3.0901936161855166 0 1,1 0,-3.0901936161855166A3.0901936161855166,3.0901936161855166 0 1,1 0,3.0901936161855166Z" style="fill: transparent; stroke: #4682b4; stroke-width: 2; opacity: 0.7;"></path><path transform="translate(132,4)" d="M0,3.0901936161855166A3.0901936161855166,3.0901936161855166 0 1,1 0,-3.0901936161855166A3.0901936161855166,3.0901936161855166 0 1,1 0,3.0901936161855166Z" style="fill: transparent; stroke: #4682b4; stroke-width: 2; opacity: 0.7;"></path><path transform="translate(126,4)" d="M0,3.0901936161855166A3.0901936161855166,3.0901936161855166 0 1,1 0,-3.0901936161855166A3.0901936161855166,3.0901936161855166 0 1,1 0,3.0901936161855166Z" style="fill: transparent; stroke: #4682b4; stroke-width: 2; opacity: 0.7;"></path><path transform="translate(123,4)" d="M0,3.0901936161855166A3.0901936161855166,3.0901936161855166 0 1,1 0,-3.0901936161855166A3.0901936161855166,3.0901936161855166 0 1,1 0,3.0901936161855166Z" style="fill: transparent; stroke: #4682b4; stroke-width: 2; opacity: 0.7;"></path><path transform="translate(136,4)" d="M0,3.0901936161855166A3.0901936161855166,3.0901936161855166 0 1,1 0,-3.0901936161855166A3.0901936161855166,3.0901936161855166 0 1,1 0,3.0901936161855166Z" style="fill: transparent; stroke: #4682b4; stroke-width: 2; opacity: 0.7;"></path><path transform="translate(124,4)" d="M0,3.0901936161855166A3.0901936161855166,3.0901936161855166 0 1,1 0,-3.0901936161855166A3.0901936161855166,3.0901936161855166 0 1,1 0,3.0901936161855166Z" style="fill: transparent; stroke: #4682b4; stroke-width: 2; opacity: 0.7;"></path><path transform="translate(144,4)" d="M0,3.0901936161855166A3.0901936161855166,3.0901936161855166 0 1,1 0,-3.0901936161855166A3.0901936161855166,3.0901936161855166 0 1,1 0,3.0901936161855166Z" style="fill: transparent; stroke: #4682b4; stroke-width: 2; opacity: 0.7;"></path><path transform="translate(148,4)" d="M0,3.0901936161855166A3.0901936161855166,3.0901936161855166 0 1,1 0,-3.0901936161855166A3.0901936161855166,3.0901936161855166 0 1,1 0,3.0901936161855166Z" style="fill: transparent; stroke: #4682b4; stroke-width: 2; opacity: 0.7;"></path><path transform="translate(124,4)" d="M0,3.0901936161855166A3.0901936161855166,3.0901936161855166 0 1,1 0,-3.0901936161855166A3.0901936161855166,3.0901936161855166 0 1,1 0,3.0901936161855166Z" style="fill: transparent; stroke: #4682b4; stroke-width: 2; opacity: 0.7;"></path><path transform="translate(152,4)" d="M0,3.0901936161855166A3.0901936161855166,3.0901936161855166 0 1,1 0,-3.0901936161855166A3.0901936161855166,3.0901936161855166 0 1,1 0,3.0901936161855166Z" style="fill: transparent; stroke: #4682b4; stroke-width: 2; opacity: 0.7;"></path><path transform="translate(144,4)" d="M0,3.0901936161855166A3.0901936161855166,3.0901936161855166 0 1,1 0,-3.0901936161855166A3.0901936161855166,3.0901936161855166 0 1,1 0,3.0901936161855166Z" style="fill: transparent; stroke: #4682b4; stroke-width: 2; opacity: 0.7;"></path><path transform="translate(144,4)" d="M0,3.0901936161855166A3.0901936161855166,3.0901936161855166 0 1,1 0,-3.0901936161855166A3.0901936161855166,3.0901936161855166 0 1,1 0,3.0901936161855166Z" style="fill: transparent; stroke: #4682b4; stroke-width: 2; opacity: 0.7;"></path><path transform="translate(144,4)" d="M0,3.0901936161855166A3.0901936161855166,3.0901936161855166 0 1,1 0,-3.0901936161855166A3.0901936161855166,3.0901936161855166 0 1,1 0,3.0901936161855166Z" style="fill: transparent; stroke: #4682b4; stroke-width: 2; opacity: 0.7;"></path><path transform="translate(136,4)" d="M0,3.0901936161855166A3.0901936161855166,3.0901936161855166 0 1,1 0,-3.0901936161855166A3.0901936161855166,3.0901936161855166 0 1,1 0,3.0901936161855166Z" style="fill: transparent; stroke: #4682b4; stroke-width: 2; opacity: 0.7;"></path><path transform="translate(152,4)" d="M0,3.0901936161855166A3.0901936161855166,3.0901936161855166 0 1,1 0,-3.0901936161855166A3.0901936161855166,3.0901936161855166 0 1,1 0,3.0901936161855166Z" style="fill: transparent; stroke: #4682b4; stroke-width: 2; opacity: 0.7;"></path><path transform="translate(128,4)" d="M0,3.0901936161855166A3.0901936161855166,3.0901936161855166 0 1,1 0,-3.0901936161855166A3.0901936161855166,3.0901936161855166 0 1,1 0,3.0901936161855166Z" style="fill: transparent; stroke: #4682b4; stroke-width: 2; opacity: 0.7;"></path><path transform="translate(152,4)" d="M0,3.0901936161855166A3.0901936161855166,3.0901936161855166 0 1,1 0,-3.0901936161855166A3.0901936161855166,3.0901936161855166 0 1,1 0,3.0901936161855166Z" style="fill: transparent; stroke: #4682b4; stroke-width: 2; opacity: 0.7;"></path><path transform="translate(152,4)" d="M0,3.0901936161855166A3.0901936161855166,3.0901936161855166 0 1,1 0,-3.0901936161855166A3.0901936161855166,3.0901936161855166 0 1,1 0,3.0901936161855166Z" style="fill: transparent; stroke: #4682b4; stroke-width: 2; opacity: 0.7;"></path><path transform="translate(128,4)" d="M0,3.0901936161855166A3.0901936161855166,3.0901936161855166 0 1,1 0,-3.0901936161855166A3.0901936161855166,3.0901936161855166 0 1,1 0,3.0901936161855166Z" style="fill: transparent; stroke: #4682b4; stroke-width: 2; opacity: 0.7;"></path><path transform="translate(144,4)" d="M0,3.0901936161855166A3.0901936161855166,3.0901936161855166 0 1,1 0,-3.0901936161855166A3.0901936161855166,3.0901936161855166 0 1,1 0,3.0901936161855166Z" style="fill: transparent; stroke: #4682b4; stroke-width: 2; opacity: 0.7;"></path><path transform="translate(176,4)" d="M0,3.0901936161855166A3.0901936161855166,3.0901936161855166 0 1,1 0,-3.0901936161855166A3.0901936161855166,3.0901936161855166 0 1,1 0,3.0901936161855166Z" style="fill: transparent; stroke: #4682b4; stroke-width: 2; opacity: 0.7;"></path><path transform="translate(128,4)" d="M0,3.0901936161855166A3.0901936161855166,3.0901936161855166 0 1,1 0,-3.0901936161855166A3.0901936161855166,3.0901936161855166 0 1,1 0,3.0901936161855166Z" style="fill: transparent; stroke: #4682b4; stroke-width: 2; opacity: 0.7;"></path><path transform="translate(124,4)" d="M0,3.0901936161855166A3.0901936161855166,3.0901936161855166 0 1,1 0,-3.0901936161855166A3.0901936161855166,3.0901936161855166 0 1,1 0,3.0901936161855166Z" style="fill: transparent; stroke: #4682b4; stroke-width: 2; opacity: 0.7;"></path></g></g></g></g></g></g></svg>